<?xml version="1.0" encoding="ISO-8859-1"?>
<!DOCTYPE svg PUBLIC "-//W3C//DTD SVG 1.0//EN" "http://www.w3.org/TR/2001/REC-SVG-20010904/DTD/svg10.dtd">
<!-- generated by Grace-5.1.25 -->
<svg xml:space="preserve" width="11.0000in" height="8.5000in" viewBox="0.0000 0.0000 792.0000 612.0000">
 <g transform="translate(0,612.0000) scale(1,-1)">
 <desc></desc>
  <g style="fill:#FFFFFF; fill-rule:nonzero">
   <path  d="M0.0000,0.0000L0.0000,612.0000L792.0000,612.0000L792.0000,0.0000z"/>
  </g>
  <g style="fill:none; stroke:#FFA500; stroke-width:  2.7540; stroke-linecap:butt; stroke-linejoin:miter; stroke-dasharray:none">
   <path d="M91.7388,105.7499L91.8000,105.8995L94.5977,117.4369L97.3954,134.0740L100.1931,152.6042L102.9909,178.8450L105.7886,206.8156L108.5863,235.1617L111.3840,265.4986L114.1817,292.2861
            L116.9794,320.1343L119.7771,343.2990L122.5749,363.2487L125.3726,376.5323L128.1703,390.3463L130.9680,395.4379L133.7657,399.5094L136.5634,399.6563L139.3611,399.9256L142.1589,394.4749
            L144.9566,386.5686L147.7543,376.4507L150.5520,369.5804L153.3497,363.1672L156.1474,350.7813L158.9451,341.7322L161.7429,333.2954L164.5406,328.6119L167.3383,318.7717L170.1360,315.0427
            L172.9337,311.6811L175.7314,309.6003L178.5291,305.9368L181.3269,307.8460L184.1246,309.3393L186.9223,309.3883L189.7200,311.0610L192.5177,316.5115L195.3154,317.3519L198.1131,323.8795
            L200.9109,327.2819L203.7086,334.6335L206.5063,338.9009L209.3040,340.3207L212.1017,353.1392L214.8994,355.3911L217.6971,358.9652L220.4949,364.9378L223.2926,376.2794L226.0903,376.1898
            L228.8880,377.8542L231.6857,383.6963L234.4834,386.8704L237.2811,390.3708L240.0789,390.7950L242.8766,392.1823L245.6743,392.6146L248.4720,395.0707L251.2697,394.5158L254.0674,392.4107
            L256.8651,390.9664L259.6629,389.3916L262.4606,386.5686L265.2583,386.1360L268.0560,384.4388L270.8537,379.8451L273.6514,375.9367L276.4491,375.2676L279.2469,372.5423L282.0446,370.8534
            L284.8423,365.3704L287.6400,362.8898L290.4377,358.3368L293.2354,356.4112L296.0331,354.6405L298.8309,350.3242L301.6286,349.0513L304.4263,343.8781L307.2240,342.9971L310.0217,339.9126
            L312.8194,337.0406L315.6171,334.0215L318.4149,333.7767L321.2126,328.6200L324.0103,327.0291L326.8080,324.2711L329.6057,323.9365L332.4034,322.4351L335.2011,317.3438L337.9989,318.2902
            L340.7966,315.5812L343.5943,314.3656L346.3920,312.2441L349.1897,312.0483L351.9874,310.4652L354.7851,310.5224L357.5829,305.7246L360.3806,304.9006L363.1783,304.3456L365.9760,301.4492
            L368.7737,299.6540L371.5714,298.3485L374.3691,299.0256L377.1669,300.6004L379.9646,299.5316L382.7623,295.9089L385.5600,295.9823L388.3577,296.8797L391.1554,293.0121L393.9531,295.6560
            L396.7509,294.1872L399.5486,293.1509L402.3463,291.8454L405.1440,295.9089L407.9417,293.3059L410.7394,294.4565L413.5371,293.5262L416.3349,294.3505L419.1326,294.1708L421.9303,293.4202
            L424.7280,293.1673L427.5257,294.4645L430.3234,293.9015L433.1211,295.2070L435.9189,292.4574L438.7166,293.5181L441.5143,294.4890L444.3120,294.5869L447.1097,296.3005L449.9074,295.6068
            L452.7051,296.8633L455.5029,297.1899L458.3006,296.7248L461.0983,297.8264L463.8960,297.7121L466.6937,299.3684L469.4914,302.1916L472.2891,302.5588L475.0869,301.8570L477.8846,303.7581
            L480.6823,308.1072L483.4800,308.3276L486.2777,307.5606L489.0754,306.5814L491.8731,309.6656L494.6709,307.4788L497.4686,310.8162L500.2663,314.2103L503.0640,315.2304L505.8617,314.8223
            L508.6594,315.5893L511.4571,318.2738L514.2549,318.5514L517.0526,319.8079L519.8503,322.8023L522.6480,326.4496L525.4457,326.7108L528.2434,328.8567L531.0411,329.0442L533.8389,331.0678
            L536.6366,333.5074L539.4343,334.2093L542.2320,338.3217L545.0297,339.9699L547.8274,341.3406L550.6251,347.1827L553.4229,347.3785L556.2206,349.9325L559.0183,351.1401L561.8160,352.1274
            L564.6137,355.7093L567.4114,358.4266L570.2091,359.5282L573.0069,362.3268L575.8046,365.5008L578.6023,367.6059L581.4000,368.0059L581.4612,368.0525"/>
  </g>
  <g style="fill:none; stroke:#008B00; stroke-width:  2.7540; stroke-linecap:butt; stroke-linejoin:miter; stroke-dasharray:none">
   <path d="M91.7388,105.2194L91.8000,105.3773L94.5977,116.5069L97.3954,130.7533L100.1931,150.7848L102.9909,176.2340L105.7886,207.6805L108.5863,236.4344L111.3840,267.4078L114.1817,302.2406
            L116.9794,334.1603L119.7771,361.7392L122.5749,389.0327L125.3726,409.9942L128.1703,427.7493L130.9680,435.3048L133.7657,440.8451L136.5634,435.9903L139.3611,427.7657L142.1589,419.6305
            L144.9566,408.4603L147.7543,393.0878L150.5520,378.4091L153.3497,364.7909L156.1474,352.3233L158.9451,339.8720L161.7429,329.2075L164.5406,316.1279L167.3383,312.1707L170.1360,304.6558
            L172.9337,299.9804L175.7314,297.9240L178.5291,293.4692L181.3269,295.0765L184.1246,297.9404L186.9223,298.3566L189.7200,300.4780L192.5177,304.1417L195.3154,309.4862L198.1131,316.4625
            L200.9109,322.2721L203.7086,328.1549L206.5063,333.9236L209.3040,341.8874L212.1017,350.6831L214.8994,354.8934L217.6971,362.8244L220.4949,368.0140L223.2926,375.7002L226.0903,377.6175
            L228.8880,383.4271L231.6857,390.8114L234.4834,395.1931L237.2811,397.7633L240.0789,399.2482L242.8766,403.3117L245.6743,404.8784L248.4720,401.9410L251.2697,406.6735L254.0674,404.5193
            L256.8651,405.2537L259.6629,403.3934L262.4606,399.7134L265.2583,398.7589L268.0560,392.1985L270.8537,393.6754L273.6514,390.3299L276.4491,387.5639L279.2469,383.2640L282.0446,376.7445
            L284.8423,375.9611L287.6400,373.0728L290.4377,366.6186L293.2354,368.0874L296.0331,364.7745L298.8309,359.1282L301.6286,357.0232L304.4263,352.6334L307.2240,352.5110L310.0217,347.0848
            L312.8194,346.4485L315.6171,340.9653L318.4149,342.1403L321.2126,339.3579L324.0103,334.4377L326.8080,332.5040L329.6057,331.9246L332.4034,326.5884L335.2011,326.8249L337.9989,326.4251
            L340.7966,322.6880L343.5943,320.8442L346.3920,319.3345L349.1897,317.9066L351.9874,314.5450L354.7851,315.8586L357.5829,311.5016L360.3806,311.3139L363.1783,311.5587L365.9760,307.8216
            L368.7737,307.5197L371.5714,304.4027L374.3691,306.4916L377.1669,305.9040L379.9646,307.2096L382.7623,306.9158L385.5600,306.3366L388.3577,300.9921L391.1554,302.1344L393.9531,301.9385
            L396.7509,300.9512L399.5486,301.4736L402.3463,301.2044L405.1440,302.9992L407.9417,298.8462L410.7394,302.2078L413.5371,299.4988L416.3349,298.6993L419.1326,301.0656L421.9303,299.6785
            L424.7280,302.9422L427.5257,302.0284L430.3234,302.3711L433.1211,303.7826L435.9189,300.6984L438.7166,301.8651L441.5143,301.7591L444.3120,303.2034L447.1097,303.4808L449.9074,302.5750
            L452.7051,305.3248L455.5029,305.7980L458.3006,306.0184L461.0983,306.2061L463.8960,305.9775L466.6937,308.9151L469.4914,310.1633L472.2891,309.6331L475.0869,311.1589L477.8846,312.0074
            L480.6823,314.0718L483.4800,314.1778L486.2777,314.8223L489.0754,317.0172L491.8731,318.0290L494.6709,318.9347L497.4686,318.3227L500.2663,317.4823L503.0640,320.8359L505.8617,320.4606
            L508.6594,322.8594L511.4571,323.9610L514.2549,325.4787L517.0526,326.4171L519.8503,329.7052L522.6480,331.4758L525.4457,329.8766L528.2434,333.1241L531.0411,335.4739L533.8389,335.2700
            L536.6366,338.1912L539.4343,337.0813L542.2320,342.3606L545.0297,342.1974L547.8274,345.8037L550.6251,348.8065L553.4229,352.3313L556.2206,351.0422L559.0183,356.6315L561.8160,359.1365
            L564.6137,358.6959L567.4114,360.5642L570.2091,363.3794L573.0069,368.6749L575.8046,369.8336L578.6023,372.7626L581.4000,373.4319L581.4612,373.4638"/>
  </g>
  <g style="fill:none; stroke:#00FFFF; stroke-width:  2.7540; stroke-linecap:butt; stroke-linejoin:miter; stroke-dasharray:none">
   <path d="M91.7388,105.2991L91.8000,105.4344L94.5977,116.5804L97.3954,134.3107L100.1931,156.0801L102.9909,181.8477L105.7886,215.8891L108.5863,253.6674L111.3840,292.3757L114.1817,336.1430
            L116.9794,370.8943L119.7771,405.9146L122.5749,440.0701L125.3726,463.1369L128.1703,480.3451L130.9680,495.2280L133.7657,498.2960L136.5634,494.9670L139.3611,484.9880L142.1589,473.4422
            L144.9566,458.5268L147.7543,440.5269L150.5520,421.6298L153.3497,409.7005L156.1474,393.5204L158.9451,375.9531L161.7429,362.5062L164.5406,352.4212L167.3383,341.7406L170.1360,332.9772
            L172.9337,324.6628L175.7314,320.9911L178.5291,316.9602L181.3269,314.7572L184.1246,313.6312L186.9223,313.2640L189.7200,315.1895L192.5177,314.2676L195.3154,316.1607L198.1131,320.3382
            L200.9109,322.9818L203.7086,327.3390L206.5063,327.9590L209.3040,330.7578L212.1017,333.9890L214.8994,336.7143L217.6971,339.8311L220.4949,345.0941L223.2926,347.4030L226.0903,349.2961
            L228.8880,351.7357L231.6857,354.4202L234.4834,357.6597L237.2811,358.0675L240.0789,357.0477L242.8766,354.7385L245.6743,354.9913L248.4720,356.4031L251.2697,352.9433L254.0674,349.8510
            L256.8651,349.9979L259.6629,349.2880L262.4606,347.5582L265.2583,347.7051L268.0560,342.7440L270.8537,344.4167L273.6514,340.3942L276.4491,335.3026L279.2469,333.3035L282.0446,330.6844
            L284.8423,328.9218L287.6400,325.8704L290.4377,324.5159L293.2354,322.1659L296.0331,321.4559L298.8309,320.0772L301.6286,319.0246L304.4263,317.4823L307.2240,311.9748L310.0217,310.8079
            L312.8194,313.2069L315.6171,308.0583L318.4149,307.6012L321.2126,308.0093L324.0103,305.2514L326.8080,304.9657L329.6057,303.9459L332.4034,302.7464L335.2011,301.7755L337.9989,301.5471
            L340.7966,299.1155L343.5943,300.6085L346.3920,296.5615L349.1897,296.0474L351.9874,297.4673L354.7851,297.2550L357.5829,297.1490L360.3806,295.3539L363.1783,294.2197L365.9760,297.4264
            L368.7737,295.9333L371.5714,295.2479L374.3691,294.4971L377.1669,293.9833L379.9646,295.5336L382.7623,295.4927L385.5600,294.6440L388.3577,292.5960L391.1554,295.0685L393.9531,295.3784
            L396.7509,295.5661L399.5486,294.0158L402.3463,296.0802L405.1440,298.2261L407.9417,294.6440L410.7394,296.7818L413.5371,297.4917L416.3349,298.8381L419.1326,300.8044L421.9303,301.5388
            L424.7280,300.8778L427.5257,302.3711L430.3234,300.3556L433.1211,300.4700L435.9189,304.4027L438.7166,303.0237L441.5143,302.9912L444.3120,304.3620L447.1097,307.2340L449.9074,310.9956
            L452.7051,307.5606L455.5029,308.0500L458.3006,308.4580L461.0983,312.8233L463.8960,310.1878L466.6937,312.8072L469.4914,313.0600L472.2891,315.7362L475.0869,317.8415L477.8846,320.7543
            L480.6823,317.9719L483.4800,318.1759L486.2777,319.2366L489.0754,320.8687L491.8731,323.3245L494.6709,322.7289L497.4686,320.8523L500.2663,322.8023L503.0640,325.8459L505.8617,326.3598
            L508.6594,326.6210L511.4571,330.4966L514.2549,328.7099L517.0526,331.5982L519.8503,333.3770L522.6480,331.7042L525.4457,334.5601L528.2434,337.5464L531.0411,338.2402L533.8389,338.4602
            L536.6366,337.6688L539.4343,339.6762L542.2320,341.7567L545.0297,341.5773L547.8274,345.2490L550.6251,347.4358L553.4229,346.7095L556.2206,347.7621L559.0183,351.2300L561.8160,352.0050
            L564.6137,355.3505L567.4114,353.0249L570.2091,356.7539L573.0069,361.9515L575.8046,360.4501L578.6023,363.1916L581.4000,364.9948L581.4612,365.0098"/>
  </g>
  <g style="fill:none; stroke:#0000FF; stroke-width:  2.7540; stroke-linecap:butt; stroke-linejoin:miter; stroke-dasharray:none">
   <path d="M91.7388,106.3573L91.8000,106.5279L94.5977,117.8286L97.3954,135.7795L100.1931,160.6170L102.9909,190.8231L105.7886,229.6295L108.5863,272.5645L111.3840,315.3283L114.1817,366.3821
            L116.9794,413.0133L119.7771,453.3373L122.5749,490.2752L125.3726,515.3165L128.1703,538.3262L130.9680,547.2935L133.7657,550.7939L136.5634,547.6526L139.3611,537.7796L142.1589,520.8406
            L144.9566,503.2733L147.7543,483.0540L150.5520,461.0480L153.3497,440.2659L156.1474,424.4039L158.9451,403.4177L161.7429,387.0499L164.5406,375.0473L167.3383,359.9769L170.1360,350.3977
            L172.9337,340.9491L175.7314,337.4240L178.5291,329.8766L181.3269,330.4722L184.1246,325.5113L186.9223,321.7252L189.7200,321.3825L192.5177,321.7580L195.3154,324.9647L198.1131,326.1967
            L200.9109,328.4242L203.7086,328.1877L206.5063,333.8585L209.3040,337.0242L212.1017,341.8385L214.8994,342.6950L217.6971,347.7296L220.4949,349.0513L223.2926,354.0530L226.0903,357.1456
            L228.8880,357.4229L231.6857,359.7157L234.4834,360.8335L237.2811,363.4364L240.0789,365.1743L242.8766,364.5625L245.6743,362.4002L248.4720,363.5099L251.2697,361.8127L254.0674,359.9525
            L256.8651,360.9314L259.6629,360.1483L262.4606,357.4310L265.2583,355.5135L268.0560,351.5644L270.8537,350.4221L273.6514,350.0469L276.4491,345.8527L279.2469,343.0867L282.0446,342.7768
            L284.8423,339.9861L287.6400,338.8274L290.4377,337.3425L293.2354,336.1513L296.0331,332.5446L298.8309,331.5818L301.6286,329.5911L304.4263,327.5429L307.2240,327.7226L310.0217,324.3037
            L312.8194,320.6645L315.6171,321.0726L318.4149,321.2031L321.2126,320.4197L324.0103,319.5303L326.8080,318.8532L329.6057,317.0990L332.4034,314.6755L335.2011,315.4179L337.9989,316.1117
            L340.7966,313.4108L343.5943,309.5677L346.3920,314.8143L349.1897,311.4527L351.9874,310.5141L354.7851,310.4652L357.5829,309.7716L360.3806,311.2649L363.1783,309.5024L365.9760,309.5268
            L368.7737,308.1317L371.5714,310.0573L374.3691,308.8906L377.1669,311.4688L379.9646,308.3437L382.7623,310.6610L385.5600,311.4363L388.3577,309.7800L391.1554,312.1379L393.9531,310.0573
            L396.7509,308.8333L399.5486,308.5885L402.3463,311.1751L405.1440,313.0111L407.9417,314.2676L410.7394,314.2187L413.5371,316.6419L416.3349,312.9132L419.1326,314.8387L421.9303,317.4253
            L424.7280,318.5595L427.5257,316.5849L430.3234,317.4172L433.1211,317.8821L435.9189,320.1587L438.7166,317.9230L441.5143,321.0562L444.3120,321.4398L447.1097,320.8931L449.9074,322.1903
            L452.7051,328.0570L455.5029,325.6501L458.3006,326.2457L461.0983,326.0254L463.8960,326.7270L466.6937,330.4560L469.4914,330.6354L472.2891,329.5992L475.0869,332.5446L477.8846,333.8012
            L480.6823,332.7488L483.4800,335.5882L486.2777,335.4250L489.0754,336.7143L491.8731,341.8221L494.6709,341.9281L497.4686,339.1295L500.2663,341.9770L503.0640,343.1602L505.8617,343.3885
            L508.6594,342.7768L511.4571,344.9063L514.2549,346.0975L517.0526,345.6488L519.8503,348.0069L522.6480,347.0605L525.4457,347.9580L528.2434,351.6378L531.0411,350.1284L533.8389,350.9769
            L536.6366,354.2408L539.4343,355.1137L542.2320,358.0920L545.0297,357.0313L547.8274,359.2506L550.6251,359.8462L553.4229,363.1346L556.2206,365.7946L559.0183,369.8008L561.8160,366.0800
            L564.6137,366.8308L567.4114,373.7663L570.2091,373.8642L573.0069,378.6784L575.8046,378.3519L578.6023,378.8904L581.4000,380.9548L581.4612,380.9115"/>
  </g>
  <g style="fill:none; stroke:#000000; stroke-width:  0.9180; stroke-linecap:butt; stroke-linejoin:miter; stroke-dasharray:none">
   <path d="M91.8000,91.8000L581.4000,91.8000"/>
   <path d="M91.8000,581.4000L581.4000,581.4000"/>
  </g>
  <g style="fill:none; stroke:#000000; stroke-width:  1.8360; stroke-linecap:butt; stroke-linejoin:miter; stroke-dasharray:none">
   <path d="M91.8000,91.8000L91.8000,97.9200"/>
   <path d="M91.8000,581.4000L91.8000,575.2800"/>
   <path d="M231.6857,91.8000L231.6857,97.9200"/>
   <path d="M231.6857,581.4000L231.6857,575.2800"/>
   <path d="M371.5714,91.8000L371.5714,97.9200"/>
   <path d="M371.5714,581.4000L371.5714,575.2800"/>
   <path d="M511.4571,91.8000L511.4571,97.9200"/>
   <path d="M511.4571,581.4000L511.4571,575.2800"/>
   <path d="M161.7429,91.8000L161.7429,104.0400"/>
   <path d="M161.7429,581.4000L161.7429,569.1600"/>
   <path d="M301.6286,91.8000L301.6286,104.0400"/>
   <path d="M301.6286,581.4000L301.6286,569.1600"/>
   <path d="M441.5143,91.8000L441.5143,104.0400"/>
   <path d="M441.5143,581.4000L441.5143,569.1600"/>
  </g>
  <g style="fill:#000000; fill-rule:nonzero">
   <text   style="font-family:'Helvetica','Nimbus Sans L'; font-style:normal; font-weight:bold; font-size:612.0000" transform="matrix(0.0364,0.0000,-0.0000,-0.0364,146.7429,69.6800)">0.3</text>
   <text   style="font-family:'Helvetica','Nimbus Sans L'; font-style:normal; font-weight:bold; font-size:612.0000" transform="matrix(0.0364,0.0000,-0.0000,-0.0364,286.1286,69.6800)">0.4</text>
   <text   style="font-family:'Helvetica','Nimbus Sans L'; font-style:normal; font-weight:bold; font-size:612.0000" transform="matrix(0.0364,0.0000,-0.0000,-0.0364,426.5143,69.6800)">0.5</text>
   <text   style="font-family:'Helvetica','Nimbus Sans L'; font-style:normal; font-weight:bold; font-size:612.0000" transform="matrix(0.0367,0.0000,-0.0000,-0.0367,305.1000,47.5600)">r (nm)</text>
  </g>
  <g style="fill:none; stroke:#000000; stroke-width:  0.9180; stroke-linecap:butt; stroke-linejoin:miter; stroke-dasharray:none">
   <path d="M91.8000,91.8000L91.8000,581.4000"/>
   <path d="M581.4000,91.8000L581.4000,581.4000"/>
  </g>
  <g style="fill:none; stroke:#000000; stroke-width:  1.8360; stroke-linecap:butt; stroke-linejoin:miter; stroke-dasharray:none">
   <path d="M91.8000,153.0000L97.9200,153.0000"/>
   <path d="M581.4000,153.0000L575.2800,153.0000"/>
   <path d="M91.8000,275.4000L97.9200,275.4000"/>
   <path d="M581.4000,275.4000L575.2800,275.4000"/>
   <path d="M91.8000,397.8000L97.9200,397.8000"/>
   <path d="M581.4000,397.8000L575.2800,397.8000"/>
   <path d="M91.8000,520.2000L97.9200,520.2000"/>
   <path d="M581.4000,520.2000L575.2800,520.2000"/>
   <path d="M91.8000,91.8000L104.0400,91.8000"/>
   <path d="M581.4000,91.8000L569.1600,91.8000"/>
   <path d="M91.8000,214.2000L104.0400,214.2000"/>
   <path d="M581.4000,214.2000L569.1600,214.2000"/>
   <path d="M91.8000,336.6000L104.0400,336.6000"/>
   <path d="M581.4000,336.6000L569.1600,336.6000"/>
   <path d="M91.8000,459.0000L104.0400,459.0000"/>
   <path d="M581.4000,459.0000L569.1600,459.0000"/>
   <path d="M91.8000,581.4000L104.0400,581.4000"/>
   <path d="M581.4000,581.4000L569.1600,581.4000"/>
  </g>
  <g style="fill:#000000; fill-rule:nonzero">
   <text   style="font-family:'Helvetica','Nimbus Sans L'; font-style:normal; font-weight:bold; font-size:612.0000" transform="matrix(0.0364,0.0000,-0.0000,-0.0364,74.6800,83.8000)">0</text>
   <text   style="font-family:'Helvetica','Nimbus Sans L'; font-style:normal; font-weight:bold; font-size:612.0000" transform="matrix(0.0364,0.0000,-0.0000,-0.0364,49.6800,206.2000)">500</text>
   <text   style="font-family:'Helvetica','Nimbus Sans L'; font-style:normal; font-weight:bold; font-size:612.0000" transform="matrix(0.0364,0.0000,-0.0000,-0.0364,37.6800,328.6000)">1000</text>
   <text   style="font-family:'Helvetica','Nimbus Sans L'; font-style:normal; font-weight:bold; font-size:612.0000" transform="matrix(0.0364,0.0000,-0.0000,-0.0364,37.6800,451.0000)">1500</text>
   <text   style="font-family:'Helvetica','Nimbus Sans L'; font-style:normal; font-weight:bold; font-size:612.0000" transform="matrix(0.0364,0.0000,-0.0000,-0.0364,37.6800,573.4000)">2000</text>
   <text   style="font-family:'Helvetica','Nimbus Sans L'; font-style:normal; font-weight:bold; font-size:612.0000" transform="matrix(0.0000,0.0367,0.0367,-0.0000,26.5600,318.1000)">g(r)</text>
  </g>
  <g style="fill:none; stroke:#000000; stroke-width:  1.8360; stroke-linecap:butt; stroke-linejoin:miter; stroke-dasharray:none">
   <path d="M91.8000,91.8000L91.8000,581.4000L581.4000,581.4000L581.4000,91.8000z"/>
  </g>
  <g style="fill:#FFFFFF; fill-rule:nonzero">
   <path  d="M428.4000,550.8000L428.4000,456.2000L564.8570,456.2000L564.8570,550.8000z"/>
  </g>
  <g style="fill:#000000; fill-rule:nonzero">
   <text   style="font-family:'Helvetica','Nimbus Sans L'; font-style:normal; font-weight:bold; font-size:612.0000" transform="matrix(0.0364,0.0000,-0.0000,-0.0364,478.7370,528.6800)">RSGSY</text>
  </g>
  <g style="fill:none; stroke:#0000FF; stroke-width:  2.7540; stroke-linecap:butt; stroke-linejoin:miter; stroke-dasharray:none">
   <path d="M435.8970,536.6800L466.4970,536.6800"/>
  </g>
  <g style="fill:#000000; fill-rule:nonzero">
   <text   style="font-family:'Helvetica','Nimbus Sans L'; font-style:normal; font-weight:bold; font-size:612.0000" transform="matrix(0.0364,0.0000,-0.0000,-0.0364,478.7370,506.5600)">RGSGY</text>
  </g>
  <g style="fill:none; stroke:#00FFFF; stroke-width:  2.7540; stroke-linecap:butt; stroke-linejoin:miter; stroke-dasharray:none">
   <path d="M435.8970,514.5600L466.4970,514.5600"/>
  </g>
  <g style="fill:#000000; fill-rule:nonzero">
   <text   style="font-family:'Helvetica','Nimbus Sans L'; font-style:normal; font-weight:bold; font-size:612.0000" transform="matrix(0.0364,0.0000,-0.0000,-0.0364,478.7370,484.4400)">RGLGY</text>
  </g>
  <g style="fill:none; stroke:#008B00; stroke-width:  2.7540; stroke-linecap:butt; stroke-linejoin:miter; stroke-dasharray:none">
   <path d="M435.8970,492.4400L466.4970,492.4400"/>
  </g>
  <g style="fill:#000000; fill-rule:nonzero">
   <text   style="font-family:'Helvetica','Nimbus Sans L'; font-style:normal; font-weight:bold; font-size:612.0000" transform="matrix(0.0364,0.0000,-0.0000,-0.0364,478.7370,462.3200)">HGLGY</text>
  </g>
  <g style="fill:none; stroke:#FFA500; stroke-width:  2.7540; stroke-linecap:butt; stroke-linejoin:miter; stroke-dasharray:none">
   <path d="M435.8970,470.3200L466.4970,470.3200"/>
  </g>
 </g>
</svg>
