<?xml version="1.0" encoding="ISO-8859-1"?>
<!DOCTYPE svg PUBLIC "-//W3C//DTD SVG 1.0//EN" "http://www.w3.org/TR/2001/REC-SVG-20010904/DTD/svg10.dtd">
<!-- generated by Grace-5.1.25 -->
<svg xml:space="preserve" width="11.0000in" height="8.5000in" viewBox="0.0000 0.0000 792.0000 612.0000">
 <g transform="translate(0,612.0000) scale(1,-1)">
 <desc></desc>
  <g style="fill:#FFFFFF; fill-rule:nonzero">
   <path  d="M0.0000,0.0000L0.0000,612.0000L792.0000,612.0000L792.0000,0.0000z"/>
  </g>
  <g style="fill:none; stroke:#FFA500; stroke-width:  2.7540; stroke-linecap:butt; stroke-linejoin:miter; stroke-dasharray:none">
   <path d="M91.7388,98.9569L91.8000,99.0456L94.5977,104.5450L97.3954,113.7571L100.1931,124.6580L102.9909,140.4386L105.7886,154.3667L108.5863,172.2114L111.3840,187.7227L114.1817,203.9517
            L116.9794,217.5535L119.7771,233.3666L122.5749,240.6692L125.3726,247.9557L128.1703,251.3501L130.9680,258.1631L133.7657,259.4116L136.5634,257.8858L139.3611,256.8495L142.1589,252.8760
            L144.9566,250.7626L147.7543,246.8132L150.5520,238.2460L153.3497,233.3583L156.1474,229.6621L158.9451,223.6324L161.7429,218.3288L164.5406,214.0042L167.3383,210.8874L170.1360,209.0188
            L172.9337,203.2337L175.7314,200.5901L178.5291,198.4848L181.3269,197.0814L184.1246,194.6255L186.9223,195.6128L189.7200,192.3734L192.5177,193.7768L195.3154,192.5203L198.1131,192.3163
            L200.9109,189.7298L203.7086,190.9129L206.5063,191.0028L209.3040,191.3127L212.1017,192.1369L214.8994,191.5819L217.6971,193.0997L220.4949,192.4552L223.2926,193.1567L226.0903,194.0625
            L228.8880,193.5403L231.6857,194.3807L234.4834,193.5893L237.2811,193.4341L240.0789,194.4623L242.8766,193.6383L245.6743,193.2138L248.4720,192.1286L251.2697,192.2510L254.0674,193.6953
            L256.8651,190.9783L259.6629,190.2928L262.4606,190.7171L265.2583,190.7171L268.0560,190.5376L270.8537,189.2238L273.6514,189.2076L276.4491,188.4732L279.2469,187.1024L282.0446,185.0137
            L284.8423,187.9347L287.6400,185.5684L290.4377,185.0708L293.2354,184.7770L296.0331,184.5892L298.8309,183.3410L301.6286,183.3900L304.4263,182.2558L307.2240,182.3373L310.0217,184.2059
            L312.8194,182.7209L315.6171,183.5858L318.4149,182.4433L321.2126,183.4470L324.0103,182.8595L326.8080,183.9530L329.6057,184.0100L332.4034,184.3608L335.2011,183.8957L337.9989,186.5476
            L340.7966,184.5648L343.5943,187.2820L346.3920,186.7107L349.1897,187.9511L351.9874,188.4488L354.7851,189.4196L357.5829,189.7298L360.3806,191.3700L363.1783,193.8992L365.9760,192.5447
            L368.7737,192.7487L371.5714,195.0008L374.3691,196.3308L377.1669,196.0615L379.9646,198.3869L382.7623,199.2927L385.5600,200.2391L388.3577,201.7732L391.1554,201.8547L393.9531,204.6616
            L396.7509,204.2291L399.5486,206.3833L402.3463,207.1992L405.1440,210.1121L407.9417,209.7449L410.7394,211.9726L413.5371,211.8991L416.3349,213.5310L419.1326,215.5626L421.9303,216.0196
            L424.7280,217.3902L427.5257,219.4791L430.3234,218.8590L433.1211,221.2742L435.9189,220.3849L438.7166,222.5472L441.5143,222.2696L444.3120,224.1137L447.1097,224.8072L449.9074,227.7120
            L452.7051,228.3568L455.5029,225.7619L458.3006,229.5071L461.0983,230.1436L463.8960,230.7311L466.6937,232.2241L469.4914,230.8290L472.2891,234.1172L475.0869,232.9179L477.8846,235.6594
            L480.6823,236.3285L483.4800,238.1316L486.2777,236.4589L489.0754,236.9811L491.8731,238.1642L494.6709,238.4580L497.4686,238.8252L500.2663,240.1062L503.0640,242.6032L505.8617,241.2648
            L508.6594,240.9466L511.4571,242.7662L514.2549,240.4817L517.0526,242.8316L519.8503,244.3491L522.6480,242.9214L525.4457,243.9576L528.2434,246.4380L531.0411,246.9112L533.8389,246.3400
            L536.6366,246.5932L539.4343,247.3763L542.2320,248.6084L545.0297,248.0372L547.8274,250.1180L550.6251,250.2402L553.4229,250.5178L556.2206,252.1496L559.0183,252.9736L561.8160,256.2620
            L564.6137,254.1895L567.4114,256.5149L570.2091,256.4089L573.0069,257.8530L575.8046,258.8322L578.6023,261.4758L581.4000,259.6726L581.4612,259.7374"/>
  </g>
  <g style="fill:none; stroke:#008B00; stroke-width:  2.7540; stroke-linecap:butt; stroke-linejoin:miter; stroke-dasharray:none">
   <path d="M91.7388,99.2089L91.8000,99.2985L94.5977,105.8750L97.3954,115.2665L100.1931,128.0116L102.9909,144.7059L105.7886,163.0728L108.5863,181.0972L111.3840,202.0261L114.1817,220.8990
            L116.9794,238.6376L119.7771,254.0099L122.5749,267.3427L125.3726,277.0034L128.1703,285.4157L130.9680,288.5570L133.7657,288.8427L136.5634,290.5644L139.3611,288.2388L142.1589,284.5264
            L144.9566,278.9616L147.7543,274.7268L150.5520,268.9417L153.3497,262.8303L156.1474,253.6429L158.9451,249.0164L161.7429,241.9912L164.5406,236.5977L167.3383,232.9341L170.1360,228.1935
            L172.9337,223.3303L175.7314,219.0794L178.5291,216.3623L181.3269,213.6534L184.1246,211.5400L186.9223,211.7114L189.7200,209.7777L192.5177,208.2844L195.3154,207.2807L198.1131,206.8646
            L200.9109,206.9544L203.7086,207.0849L206.5063,208.2435L209.3040,209.8509L212.1017,207.6560L214.8994,210.8220L217.6971,210.8954L220.4949,212.4049L223.2926,213.1718L226.0903,210.6506
            L228.8880,211.9398L231.6857,211.9317L234.4834,213.2698L237.2811,211.9970L240.0789,211.6379L242.8766,211.1811L245.6743,211.9398L248.4720,210.7486L251.2697,210.0795L254.0674,209.8183
            L256.8651,207.5745L259.6629,210.0712L262.4606,208.8555L265.2583,207.5336L268.0560,206.9708L270.8537,206.0242L273.6514,207.2401L276.4491,204.5801L279.2469,205.6408L282.0446,203.4866
            L284.8423,204.4249L287.6400,203.5519L290.4377,203.4051L293.2354,201.6425L296.0331,201.6508L298.8309,201.8139L301.6286,199.0315L304.4263,200.2229L307.2240,200.8104L310.0217,199.9862
            L312.8194,199.3987L315.6171,199.8067L318.4149,201.3490L321.2126,200.5737L324.0103,200.3943L326.8080,200.7940L329.6057,200.6471L332.4034,201.9771L335.2011,201.6670L337.9989,202.5972
            L340.7966,203.3316L343.5943,204.2780L346.3920,205.1757L349.1897,204.4168L351.9874,207.4195L354.7851,206.6526L357.5829,207.5581L360.3806,210.0712L363.1783,210.6262L365.9760,212.6822
            L368.7737,212.4294L371.5714,212.1275L374.3691,214.2734L377.1669,216.4602L379.9646,217.4965L382.7623,217.5944L385.5600,219.5445L388.3577,220.7846L391.1554,222.3105L393.9531,224.6197
            L396.7509,225.7213L399.5486,223.3712L402.3463,224.8806L405.1440,226.5453L407.9417,229.5316L410.7394,231.4817L413.5371,231.2043L416.3349,232.5997L419.1326,233.7093L421.9303,233.6765
            L424.7280,235.1128L427.5257,233.4317L430.3234,237.0709L433.1211,238.4908L435.9189,241.1914L438.7166,240.7101L441.5143,241.8115L444.3120,241.8362L447.1097,241.9912L449.9074,243.3292
            L452.7051,244.0800L455.5029,246.5687L458.3006,248.2250L461.0983,245.8832L463.8960,250.6647L466.6937,248.9839L469.4914,250.1587L472.2891,253.1369L475.0869,253.9528L477.8846,252.0762
            L480.6823,252.9820L483.4800,253.8143L486.2777,257.5511L489.0754,254.9239L491.8731,257.7061L494.6709,260.7823L497.4686,258.2285L500.2663,259.5666L503.0640,261.3698L505.8617,260.0317
            L508.6594,261.2229L511.4571,262.0227L514.2549,261.1169L517.0526,263.4342L519.8503,263.9889L522.6480,263.4587L525.4457,265.0009L528.2434,263.1894L531.0411,265.8085L533.8389,267.2447
            L536.6366,267.8565L539.4343,267.9463L542.2320,268.1177L545.0297,269.7578L547.8274,266.6408L550.6251,271.6426L553.4229,273.5111L556.2206,273.3806L559.0183,275.6815L561.8160,274.2127
            L564.6137,276.7503L567.4114,278.6189L570.2091,282.0458L573.0069,281.3768L575.8046,282.5435L578.6023,282.1518L581.4000,283.4493L581.4612,283.4919"/>
  </g>
  <g style="fill:none; stroke:#00FFFF; stroke-width:  2.7540; stroke-linecap:butt; stroke-linejoin:miter; stroke-dasharray:none">
   <path d="M91.7388,99.2737L91.8000,99.3638L94.5977,105.1325L97.3954,115.9928L100.1931,125.4497L102.9909,142.8863L105.7886,159.7846L108.5863,179.0328L111.3840,197.1793L114.1817,216.1256
            L116.9794,233.4971L119.7771,250.4035L122.5749,266.6817L125.3726,274.7677L128.1703,281.8255L130.9680,288.9242L133.7657,291.4048L136.5634,291.1110L139.3611,287.3577L142.1589,284.8446
            L144.9566,279.6470L147.7543,273.9518L150.5520,268.1258L153.3497,261.8185L156.1474,255.3807L158.9451,251.2113L161.7429,245.8749L164.5406,236.5243L167.3383,232.7546L170.1360,231.5796
            L172.9337,228.0792L175.7314,225.0030L178.5291,221.3068L181.3269,219.5364L184.1246,220.9969L186.9223,218.0106L189.7200,218.4267L192.5177,217.2027L195.3154,218.4184L198.1131,222.7675
            L200.9109,221.8128L203.7086,219.8382L206.5063,220.4828L209.3040,221.6495L212.1017,221.4620L214.8994,222.7266L217.6971,223.8527L220.4949,223.9913L223.2926,224.8725L226.0903,226.0231
            L228.8880,226.2841L231.6857,226.0148L234.4834,227.4265L237.2811,225.9822L240.0789,226.1210L242.8766,224.0566L245.6743,223.8608L248.4720,223.5751L251.2697,224.4728L254.0674,220.5398
            L256.8651,222.6287L259.6629,221.5680L262.4606,220.1971L265.2583,219.0059L268.0560,218.4429L270.8537,215.9951L273.6514,216.5418L276.4491,215.2607L279.2469,213.7023L282.0446,214.2570
            L284.8423,211.8257L287.6400,212.4049L290.4377,210.4467L293.2354,208.4638L296.0331,208.2354L298.8309,207.8682L301.6286,206.3260L304.4263,208.4558L307.2240,207.7214L310.0217,207.3870
            L312.8194,208.1130L315.6171,208.5128L318.4149,206.8401L321.2126,207.5174L324.0103,205.7877L326.8080,207.4276L329.6057,207.7703L332.4034,205.1348L335.2011,206.8484L337.9989,207.0523
            L340.7966,207.0034L343.5943,209.2962L346.3920,209.5490L349.1897,208.3659L351.9874,211.2707L354.7851,212.5273L357.5829,212.4049L360.3806,212.7395L363.1783,213.7185L365.9760,214.4693
            L368.7737,216.7050L371.5714,219.2997L374.3691,219.3078L377.1669,219.0794L379.9646,221.7149L382.7623,224.3913L385.5600,225.8273L388.3577,226.4637L391.1554,227.2307L393.9531,230.5597
            L396.7509,230.6496L399.5486,232.7791L402.3463,233.4073L405.1440,234.2234L407.9417,233.7338L410.7394,239.0129L413.5371,239.1517L416.3349,239.5106L419.1326,241.6156L421.9303,242.0482
            L424.7280,242.2604L427.5257,243.9412L430.3234,243.8269L433.1211,246.4463L435.9189,247.0419L438.7166,246.2994L441.5143,250.6402L444.3120,246.9520L447.1097,249.6855L449.9074,251.8069
            L452.7051,251.2848L455.5029,249.4896L458.3006,252.2311L461.0983,251.0319L463.8960,251.5376L466.6937,253.1450L469.4914,253.9283L472.2891,254.8831L475.0869,254.1731L477.8846,257.2738
            L480.6823,257.5511L483.4800,256.2865L486.2777,257.8123L489.0754,257.3636L491.8731,258.6038L494.6709,256.9147L497.4686,259.7054L500.2663,257.4615L503.0640,257.7225L505.8617,260.2846
            L508.6594,260.8231L511.4571,261.7940L514.2549,263.0180L517.0526,260.4559L519.8503,263.1079L522.6480,262.1367L525.4457,264.1847L528.2434,264.1358L531.0411,262.2185L533.8389,264.8702
            L536.6366,264.3561L539.4343,266.2817L542.2320,267.0734L545.0297,267.2528L547.8274,268.5828L550.6251,270.0188L553.4229,269.5047L556.2206,269.4641L559.0183,271.4467L561.8160,273.2582
            L564.6137,273.7395L567.4114,275.2818L570.2091,275.5755L573.0069,273.6335L575.8046,277.1014L578.6023,278.6434L581.4000,279.5572L581.4612,279.5816"/>
  </g>
  <g style="fill:none; stroke:#0000FF; stroke-width:  2.7540; stroke-linecap:butt; stroke-linejoin:miter; stroke-dasharray:none">
   <path d="M91.7388,100.2683L91.8000,100.3675L94.5977,107.2376L97.3954,118.2612L100.1931,131.8057L102.9909,149.5363L105.7886,169.9186L108.5863,191.0679L111.3840,210.2100L114.1817,233.9948
            L116.9794,254.3281L119.7771,270.6962L122.5749,285.5790L125.3726,300.0048L128.1703,309.0128L130.9680,315.1080L133.7657,316.8867L136.5634,315.5648L139.3611,314.3002L142.1589,314.5695
            L144.9566,309.5677L147.7543,302.6323L150.5520,294.2932L153.3497,287.4882L156.1474,283.0740L158.9451,273.2989L161.7429,267.9708L164.5406,262.0227L167.3383,256.0987L170.1360,249.9628
            L172.9337,245.8749L175.7314,242.7907L178.5291,239.0700L181.3269,235.9532L184.1246,234.8516L186.9223,232.6322L189.7200,233.4073L192.5177,233.7093L195.3154,230.2170L198.1131,233.5869
            L200.9109,233.3911L203.7086,233.5135L206.5063,232.7791L209.3040,236.0428L212.1017,234.6802L214.8994,236.2550L217.6971,237.9197L220.4949,238.4663L223.2926,238.1397L226.0903,239.5270
            L228.8880,240.6286L231.6857,240.7346L234.4834,239.6249L237.2811,241.9177L240.0789,239.3882L242.8766,239.4372L245.6743,239.4372L248.4720,236.9975L251.2697,238.1642L254.0674,237.8298
            L256.8651,237.2587L259.6629,238.5804L262.4606,235.7409L265.2583,235.8224L268.0560,231.7754L270.8537,235.2269L273.6514,233.4726L276.4491,232.0366L279.2469,231.2533L282.0446,231.1064
            L284.8423,229.9803L287.6400,230.7392L290.4377,228.0302L293.2354,229.2378L296.0331,228.6258L298.8309,226.8145L301.6286,228.2750L304.4263,227.0185L307.2240,228.0385L310.0217,227.6875
            L312.8194,226.7492L315.6171,226.9859L318.4149,226.5372L321.2126,229.4011L324.0103,228.7972L326.8080,228.9360L329.6057,228.5933L332.4034,231.5796L335.2011,229.2297L337.9989,233.0075
            L340.7966,233.5786L343.5943,232.6812L346.3920,234.9576L349.1897,237.9358L351.9874,235.9938L354.7851,239.3312L357.5829,241.2812L360.3806,243.0029L363.1783,244.2022L365.9760,245.9567
            L368.7737,246.3320L371.5714,252.9736L374.3691,254.7036L377.1669,255.2992L379.9646,256.9800L382.7623,260.7578L385.5600,262.5203L388.3577,263.6545L391.1554,266.6244L393.9531,269.5782
            L396.7509,272.4340L399.5486,274.7841L402.3463,276.4240L405.1440,278.1131L407.9417,279.9653L410.7394,280.5038L413.5371,283.6860L416.3349,283.3839L419.1326,287.2924L421.9303,286.9335
            L424.7280,292.7673L427.5257,289.5933L430.3234,293.2814L433.1211,290.4829L435.9189,293.8770L438.7166,296.4800L441.5143,296.9042L444.3120,295.9333L447.1097,296.7248L449.9074,297.4428
            L452.7051,296.3740L455.5029,296.5453L458.3006,300.1353L461.0983,296.8797L463.8960,300.4455L466.6937,299.1970L469.4914,301.0981L472.2891,299.1725L475.0869,300.3231L477.8846,298.4136
            L480.6823,298.4790L483.4800,299.1889L486.2777,299.0829L489.0754,299.1889L491.8731,300.1353L494.6709,300.1436L497.4686,299.7600L500.2663,301.2614L503.0640,302.1588L505.8617,300.1028
            L508.6594,303.4237L511.4571,302.1263L514.2549,300.5679L517.0526,302.6812L519.8503,302.7302L522.6480,302.8852L525.4457,301.6450L528.2434,304.4272L531.0411,302.5914L533.8389,305.0636
            L536.6366,304.1253L539.4343,305.7655L542.2320,304.9251L545.0297,307.8950L547.8274,304.9902L550.6251,309.3229L553.4229,308.1072L556.2206,307.4054L559.0183,309.5352L561.8160,309.3800
            L564.6137,312.4072L567.4114,312.6928L570.2091,313.6801L573.0069,315.6221L575.8046,316.6664L578.6023,316.4870L581.4000,317.8495L581.4612,317.8861"/>
  </g>
  <g style="fill:none; stroke:#000000; stroke-width:  0.9180; stroke-linecap:butt; stroke-linejoin:miter; stroke-dasharray:none">
   <path d="M91.8000,91.8000L581.4000,91.8000"/>
   <path d="M91.8000,581.4000L581.4000,581.4000"/>
  </g>
  <g style="fill:none; stroke:#000000; stroke-width:  1.8360; stroke-linecap:butt; stroke-linejoin:miter; stroke-dasharray:none">
   <path d="M91.8000,91.8000L91.8000,97.9200"/>
   <path d="M91.8000,581.4000L91.8000,575.2800"/>
   <path d="M231.6857,91.8000L231.6857,97.9200"/>
   <path d="M231.6857,581.4000L231.6857,575.2800"/>
   <path d="M371.5714,91.8000L371.5714,97.9200"/>
   <path d="M371.5714,581.4000L371.5714,575.2800"/>
   <path d="M511.4571,91.8000L511.4571,97.9200"/>
   <path d="M511.4571,581.4000L511.4571,575.2800"/>
   <path d="M161.7429,91.8000L161.7429,104.0400"/>
   <path d="M161.7429,581.4000L161.7429,569.1600"/>
   <path d="M301.6286,91.8000L301.6286,104.0400"/>
   <path d="M301.6286,581.4000L301.6286,569.1600"/>
   <path d="M441.5143,91.8000L441.5143,104.0400"/>
   <path d="M441.5143,581.4000L441.5143,569.1600"/>
  </g>
  <g style="fill:#000000; fill-rule:nonzero">
   <text   style="font-family:'Helvetica','Nimbus Sans L'; font-style:normal; font-weight:bold; font-size:612.0000" transform="matrix(0.0364,0.0000,-0.0000,-0.0364,146.7429,69.6800)">0.3</text>
   <text   style="font-family:'Helvetica','Nimbus Sans L'; font-style:normal; font-weight:bold; font-size:612.0000" transform="matrix(0.0364,0.0000,-0.0000,-0.0364,286.1286,69.6800)">0.4</text>
   <text   style="font-family:'Helvetica','Nimbus Sans L'; font-style:normal; font-weight:bold; font-size:612.0000" transform="matrix(0.0364,0.0000,-0.0000,-0.0364,426.5143,69.6800)">0.5</text>
   <text   style="font-family:'Helvetica','Nimbus Sans L'; font-style:normal; font-weight:bold; font-size:612.0000" transform="matrix(0.0367,0.0000,-0.0000,-0.0367,305.1000,47.5600)">r (nm)</text>
  </g>
  <g style="fill:none; stroke:#000000; stroke-width:  0.9180; stroke-linecap:butt; stroke-linejoin:miter; stroke-dasharray:none">
   <path d="M91.8000,91.8000L91.8000,581.4000"/>
   <path d="M581.4000,91.8000L581.4000,581.4000"/>
  </g>
  <g style="fill:none; stroke:#000000; stroke-width:  1.8360; stroke-linecap:butt; stroke-linejoin:miter; stroke-dasharray:none">
   <path d="M91.8000,153.0000L97.9200,153.0000"/>
   <path d="M581.4000,153.0000L575.2800,153.0000"/>
   <path d="M91.8000,275.4000L97.9200,275.4000"/>
   <path d="M581.4000,275.4000L575.2800,275.4000"/>
   <path d="M91.8000,397.8000L97.9200,397.8000"/>
   <path d="M581.4000,397.8000L575.2800,397.8000"/>
   <path d="M91.8000,520.2000L97.9200,520.2000"/>
   <path d="M581.4000,520.2000L575.2800,520.2000"/>
   <path d="M91.8000,91.8000L104.0400,91.8000"/>
   <path d="M581.4000,91.8000L569.1600,91.8000"/>
   <path d="M91.8000,214.2000L104.0400,214.2000"/>
   <path d="M581.4000,214.2000L569.1600,214.2000"/>
   <path d="M91.8000,336.6000L104.0400,336.6000"/>
   <path d="M581.4000,336.6000L569.1600,336.6000"/>
   <path d="M91.8000,459.0000L104.0400,459.0000"/>
   <path d="M581.4000,459.0000L569.1600,459.0000"/>
   <path d="M91.8000,581.4000L104.0400,581.4000"/>
   <path d="M581.4000,581.4000L569.1600,581.4000"/>
  </g>
  <g style="fill:#000000; fill-rule:nonzero">
   <text   style="font-family:'Helvetica','Nimbus Sans L'; font-style:normal; font-weight:bold; font-size:612.0000" transform="matrix(0.0364,0.0000,-0.0000,-0.0364,74.6800,83.8000)">0</text>
   <text   style="font-family:'Helvetica','Nimbus Sans L'; font-style:normal; font-weight:bold; font-size:612.0000" transform="matrix(0.0364,0.0000,-0.0000,-0.0364,49.6800,206.2000)">500</text>
   <text   style="font-family:'Helvetica','Nimbus Sans L'; font-style:normal; font-weight:bold; font-size:612.0000" transform="matrix(0.0364,0.0000,-0.0000,-0.0364,37.6800,328.6000)">1000</text>
   <text   style="font-family:'Helvetica','Nimbus Sans L'; font-style:normal; font-weight:bold; font-size:612.0000" transform="matrix(0.0364,0.0000,-0.0000,-0.0364,37.6800,451.0000)">1500</text>
   <text   style="font-family:'Helvetica','Nimbus Sans L'; font-style:normal; font-weight:bold; font-size:612.0000" transform="matrix(0.0364,0.0000,-0.0000,-0.0364,37.6800,573.4000)">2000</text>
   <text   style="font-family:'Helvetica','Nimbus Sans L'; font-style:normal; font-weight:bold; font-size:612.0000" transform="matrix(0.0000,0.0367,0.0367,-0.0000,26.5600,318.1000)">g(r)</text>
  </g>
  <g style="fill:none; stroke:#000000; stroke-width:  1.8360; stroke-linecap:butt; stroke-linejoin:miter; stroke-dasharray:none">
   <path d="M91.8000,91.8000L91.8000,581.4000L581.4000,581.4000L581.4000,91.8000z"/>
  </g>
  <g style="fill:#FFFFFF; fill-rule:nonzero">
   <path  d="M428.4000,550.8000L428.4000,456.2000L564.8570,456.2000L564.8570,550.8000z"/>
  </g>
  <g style="fill:#000000; fill-rule:nonzero">
   <text   style="font-family:'Helvetica','Nimbus Sans L'; font-style:normal; font-weight:bold; font-size:612.0000" transform="matrix(0.0364,0.0000,-0.0000,-0.0364,478.7370,528.6800)">RSGSY</text>
  </g>
  <g style="fill:none; stroke:#0000FF; stroke-width:  2.7540; stroke-linecap:butt; stroke-linejoin:miter; stroke-dasharray:none">
   <path d="M435.8970,536.6800L466.4970,536.6800"/>
  </g>
  <g style="fill:#000000; fill-rule:nonzero">
   <text   style="font-family:'Helvetica','Nimbus Sans L'; font-style:normal; font-weight:bold; font-size:612.0000" transform="matrix(0.0364,0.0000,-0.0000,-0.0364,478.7370,506.5600)">RGSGY</text>
  </g>
  <g style="fill:none; stroke:#00FFFF; stroke-width:  2.7540; stroke-linecap:butt; stroke-linejoin:miter; stroke-dasharray:none">
   <path d="M435.8970,514.5600L466.4970,514.5600"/>
  </g>
  <g style="fill:#000000; fill-rule:nonzero">
   <text   style="font-family:'Helvetica','Nimbus Sans L'; font-style:normal; font-weight:bold; font-size:612.0000" transform="matrix(0.0364,0.0000,-0.0000,-0.0364,478.7370,484.4400)">RGLGY</text>
  </g>
  <g style="fill:none; stroke:#008B00; stroke-width:  2.7540; stroke-linecap:butt; stroke-linejoin:miter; stroke-dasharray:none">
   <path d="M435.8970,492.4400L466.4970,492.4400"/>
  </g>
  <g style="fill:#000000; fill-rule:nonzero">
   <text   style="font-family:'Helvetica','Nimbus Sans L'; font-style:normal; font-weight:bold; font-size:612.0000" transform="matrix(0.0364,0.0000,-0.0000,-0.0364,478.7370,462.3200)">HGLGY</text>
  </g>
  <g style="fill:none; stroke:#FFA500; stroke-width:  2.7540; stroke-linecap:butt; stroke-linejoin:miter; stroke-dasharray:none">
   <path d="M435.8970,470.3200L466.4970,470.3200"/>
  </g>
 </g>
</svg>
