<?xml version="1.0" encoding="ISO-8859-1"?>
<!DOCTYPE svg PUBLIC "-//W3C//DTD SVG 1.0//EN" "http://www.w3.org/TR/2001/REC-SVG-20010904/DTD/svg10.dtd">
<!-- generated by Grace-5.1.25 -->
<svg xml:space="preserve" width="11.0000in" height="8.5000in" viewBox="0.0000 0.0000 792.0000 612.0000">
 <g transform="translate(0,612.0000) scale(1,-1)">
 <desc></desc>
  <g style="fill:#FFFFFF; fill-rule:nonzero">
   <path  d="M0.0000,0.0000L0.0000,612.0000L792.0000,612.0000L792.0000,0.0000z"/>
  </g>
  <g style="fill:none; stroke:#FFA500; stroke-width:  2.7540; stroke-linecap:butt; stroke-linejoin:miter; stroke-dasharray:none">
   <path d="M91.7388,91.8000L91.8000,91.8000L94.2480,91.8000L96.6960,91.8029L99.1440,91.8000L101.5920,91.8000L104.0400,91.8000L106.4880,91.8000L108.9360,91.8029L111.3840,91.8000
            L113.8320,91.8000L116.2800,91.8000L118.7280,91.8000L121.1760,91.8000L123.6240,91.8000L126.0720,91.8000L128.5200,91.8029L130.9680,91.8000L133.4160,91.8000L135.8640,91.8029
            L138.3120,91.8184L140.7600,91.8641L143.2080,92.1028L145.6560,92.6962L148.1040,94.2590L150.5520,97.8497L153.0000,103.4405L155.4480,112.7076L157.8960,125.4769L160.3440,142.0322
            L162.7920,162.4231L165.2400,184.4012L167.6880,207.2237L170.1360,228.8807L172.5840,251.5531L175.0320,271.7055L177.4800,287.7746L179.9280,301.9047L182.3760,312.7501L184.8240,321.4454
            L187.2720,324.2192L189.7200,326.3847L192.1680,325.8036L194.6160,321.5737L197.0640,316.5854L199.5120,310.3675L201.9600,301.7946L204.4080,291.5120L206.8560,284.1778L209.3040,275.1738
            L211.7520,267.3806L214.2000,260.2667L216.6480,253.4676L219.0960,246.8705L221.5440,242.0842L223.9920,239.1784L226.4400,236.7103L228.8880,233.5816L231.3360,232.4347L233.7840,231.8442
            L236.2320,229.0153L238.6800,231.2143L241.1280,232.4682L243.5760,232.8474L246.0240,237.5422L248.4720,238.2058L250.9200,241.2338L253.3680,241.9924L255.8160,245.8061L258.2640,247.8370
            L260.7120,250.8130L263.1600,253.9203L265.6080,257.0554L268.0560,260.2055L270.5040,261.2667L272.9520,264.0562L275.4000,265.6954L277.8480,266.3928L280.2960,268.1209L282.7440,270.8031
            L285.1920,270.9285L287.6400,270.6379L290.0880,270.2861L292.5360,272.0724L294.9840,270.0477L297.4320,269.9407L299.8800,267.6866L302.3280,265.9493L304.7760,266.0198L307.2240,263.0498
            L309.6720,262.8449L312.1200,261.2577L314.5680,259.1656L317.0160,258.0310L319.4640,254.6789L321.9120,254.4189L324.3600,253.7215L326.8080,251.2167L329.2560,249.1552L331.7040,246.5677
            L334.1520,245.4637L336.6000,244.5187L339.0480,243.3594L341.4960,239.7106L343.9440,239.7872L346.3920,238.7228L348.8400,236.9887L351.2880,235.3708L353.7360,234.5571L356.1840,232.8628
            L358.6320,232.1257L361.0800,230.2723L363.5280,229.3304L365.9760,229.4679L368.4240,227.6390L370.8720,227.2505L373.3200,225.7548L375.7680,226.4980L378.2160,224.1585L380.6640,224.1002
            L383.1120,222.9381L385.5600,222.0113L388.0080,222.7026L390.4560,221.0358L392.9040,219.8825L395.3520,219.1548L397.8000,219.5768L400.2480,218.6622L402.6960,218.3748L405.1440,219.8277
            L407.5920,218.0965L410.0400,217.9986L412.4880,217.6103L414.9360,216.9496L417.3840,217.6896L419.8320,217.4174L422.2800,217.1300L424.7280,217.0933L427.1760,216.9281L429.6240,216.5826
            L432.0720,216.6039L434.5200,217.6774L436.9680,216.5917L439.4160,215.7599L441.8640,216.7109L444.3120,217.2064L446.7600,217.2615L449.2080,217.1146L451.6560,218.8916L454.1040,217.7202
            L456.5520,218.4451L459.0000,218.8306L461.4480,219.2250L463.8960,218.9650L466.3440,220.5890L468.7920,220.4730L471.2400,220.6319L473.6880,222.0970L476.1360,221.6750L478.5840,221.7788
            L481.0320,222.6782L483.4800,223.6965L485.9280,223.9536L488.3760,225.9477L490.8240,224.7120L493.2720,227.1404L495.7200,226.1678L498.1680,226.6571L500.6160,228.0611L503.0640,228.0579
            L505.5120,229.4038L507.9600,230.0643L510.4080,231.8229L512.8560,231.5996L515.3040,232.2298L517.7520,232.3093L520.2000,234.9243L522.6480,234.6122L525.0960,235.5941L527.5440,235.8724
            L529.9920,237.7471L532.4400,237.9216L534.8880,239.2734L537.3360,239.1571L539.7840,242.6132L542.2320,242.1728L544.6800,245.3474L547.1280,246.5831L549.5760,246.6840L552.0240,247.7300
            L554.4720,248.3447L556.9200,249.7638L559.3680,252.3484L561.8160,253.3088L564.2640,253.9418L566.7120,256.4711L569.1600,257.7742L571.6080,258.0461L574.0560,260.4503L576.5040,261.2760
            L578.9520,265.5243L581.4000,265.3101L581.4612,265.3688"/>
  </g>
  <g style="fill:none; stroke:#FFA500; stroke-width:  2.7540; stroke-linecap:butt; stroke-linejoin:miter; stroke-dasharray: 14 8">
   <path d="M91.7388,91.8000L91.8000,91.8000L94.2480,91.8000L96.6960,91.8000L99.1440,91.8000L101.5920,91.8000L104.0400,91.8000L106.4880,91.8000L108.9360,91.8000L111.3840,91.8000
            L113.8320,91.8000L116.2800,91.8000L118.7280,91.8000L121.1760,91.8000L123.6240,91.8000L126.0720,91.8000L128.5200,91.8000L130.9680,91.8000L133.4160,91.8000L135.8640,91.8029
            L138.3120,91.8152L140.7600,91.8673L143.2080,92.0629L145.6560,92.7236L148.1040,94.2497L150.5520,97.7824L153.0000,103.3364L155.4480,112.7781L157.8960,126.1895L160.3440,143.2770
            L162.7920,163.3834L165.2400,189.2857L167.6880,215.3562L170.1360,243.2095L172.5840,268.6347L175.0320,295.0660L177.4800,317.0045L179.9280,336.9302L182.3760,352.0851L184.8240,363.6186
            L187.2720,368.5518L189.7200,371.4206L192.1680,369.8211L194.6160,364.3189L197.0640,358.6638L199.5120,351.3235L201.9600,344.1575L204.4080,335.7682L206.8560,326.2472L209.3040,316.2613
            L211.7520,310.5572L214.2000,301.9995L216.6480,295.2374L219.0960,290.3529L221.5440,284.5051L223.9920,280.0794L226.4400,277.8345L228.8880,274.8923L231.3360,273.2835L233.7840,273.2377
            L236.2320,272.3691L238.6800,273.0083L241.1280,275.3481L243.5760,277.0056L246.0240,280.0642L248.4720,281.2020L250.9200,285.3124L253.3680,288.7318L255.8160,292.0961L258.2640,296.2648
            L260.7120,298.6078L263.1600,303.6908L265.6080,307.8015L268.0560,310.5205L270.5040,313.1844L272.9520,316.2948L275.4000,318.3685L277.8480,319.3350L280.2960,321.0905L282.7440,323.6841
            L285.1920,322.6014L287.6400,323.1152L290.0880,323.8217L292.5360,324.3874L294.9840,321.3597L297.4320,322.4944L299.8800,320.1301L302.3280,317.3009L304.7760,317.0532L307.2240,313.9460
            L309.6720,313.5056L312.1200,310.9180L314.5680,308.5232L317.0160,306.3946L319.4640,304.7552L321.9120,300.6171L324.3600,299.1674L326.8080,297.7177L329.2560,294.3441L331.7040,291.3042
            L334.1520,290.0990L336.6000,287.3404L339.0480,285.1137L341.4960,283.9668L343.9440,281.5719L346.3920,279.4923L348.8400,277.8284L351.2880,276.5807L353.7360,273.2744L356.1840,273.1552
            L358.6320,270.5676L361.0800,270.7145L363.5280,268.4756L365.9760,266.3316L368.4240,266.9067L370.8720,265.8271L373.3200,264.6494L375.7680,263.0927L378.2160,261.3801L380.6640,259.9272
            L383.1120,258.4163L385.5600,258.9791L388.0080,258.6640L390.4560,258.0584L392.9040,257.3000L395.3520,256.1071L397.8000,255.7311L400.2480,256.1408L402.6960,254.2385L405.1440,253.4341
            L407.5920,256.4253L410.0400,254.5413L412.4880,255.3303L414.9360,253.1252L417.3840,255.4956L419.8320,253.8897L422.2800,255.7034L424.7280,254.6973L427.1760,253.4921L429.6240,254.4219
            L432.0720,255.1773L434.5200,254.4862L436.9680,254.6483L439.4160,253.8042L441.8640,255.6238L444.3120,257.4469L446.7600,255.7800L449.2080,257.4253L451.6560,256.9849L454.1040,257.8168
            L456.5520,258.0339L459.0000,260.0219L461.4480,260.0219L463.8960,258.2603L466.3440,259.8782L468.7920,260.2177L471.2400,261.8662L473.6880,263.7840L476.1360,263.4413L478.5840,262.7348
            L481.0320,264.4966L483.4800,264.9399L485.9280,264.9216L488.3760,267.2523L490.8240,266.8974L493.2720,269.5033L495.7200,268.8090L498.1680,269.9591L500.6160,271.3750L503.0640,271.9256
            L505.5120,271.8125L507.9600,274.4519L510.4080,275.1674L512.8560,276.1829L515.3040,276.8681L517.7520,277.9721L520.2000,278.5961L522.6480,279.1680L525.0960,279.6022L527.5440,281.9085
            L529.9920,283.1134L532.4400,284.2542L534.8880,284.7132L537.3360,286.2454L539.7840,287.8481L542.2320,290.2182L544.6800,290.7659L547.1280,293.2981L549.5760,294.2004L552.0240,297.4271
            L554.4720,299.7392L556.9200,300.5407L559.3680,301.7672L561.8160,301.7243L564.2640,303.8896L566.7120,306.2600L569.1600,307.6362L571.6080,310.8752L574.0560,311.8754L576.5040,315.5670
            L578.9520,316.7903L581.4000,318.2584L581.4612,318.3111"/>
  </g>
  <g style="fill:none; stroke:#008B00; stroke-width:  2.7540; stroke-linecap:butt; stroke-linejoin:miter; stroke-dasharray:none">
   <path d="M91.7388,91.8000L91.8000,91.8000L94.2480,91.8000L96.6960,91.8000L99.1440,91.8000L101.5920,91.8000L104.0400,91.8000L106.4880,91.8000L108.9360,91.8000L111.3840,91.8000
            L113.8320,91.8000L116.2800,91.8000L118.7280,91.8000L121.1760,91.8000L123.6240,91.8000L126.0720,91.8000L128.5200,91.8000L130.9680,91.8000L133.4160,91.8000L135.8640,91.8029
            L138.3120,91.8245L140.7600,91.8886L143.2080,92.1395L145.6560,92.9195L148.1040,94.5831L150.5520,97.9903L153.0000,104.2021L155.4480,113.8668L157.8960,128.2661L160.3440,146.1155
            L162.7920,167.8765L165.2400,191.9068L167.6880,221.2040L170.1360,249.6446L172.5840,278.8590L175.0320,306.4098L177.4800,330.4616L179.9280,353.6356L182.3760,369.0962L184.8240,382.8748
            L187.2720,389.4900L189.7200,391.0621L192.1680,388.3157L194.6160,382.4158L197.0640,371.7969L199.5120,360.6303L201.9600,348.9898L204.4080,334.1532L206.8560,320.7174L209.3040,310.4042
            L211.7520,297.7023L214.2000,286.5543L216.6480,279.2353L219.0960,270.0232L221.5440,263.1265L223.9920,258.3673L226.4400,256.4069L228.8880,254.5780L231.3360,252.1922L233.7840,251.0270
            L236.2320,253.7124L238.6800,254.3455L241.1280,258.3489L243.5760,260.0863L246.0240,263.8298L248.4720,268.5642L250.9200,273.6046L253.3680,276.3574L255.8160,282.8321L258.2640,287.9245
            L260.7120,290.8606L263.1600,297.1091L265.6080,301.9995L268.0560,306.9633L270.5040,310.4989L272.9520,313.1934L275.4000,317.7475L277.8480,319.1729L280.2960,322.2834L282.7440,326.2288
            L285.1920,325.3448L287.6400,324.5742L290.0880,326.1399L292.5360,323.8584L294.9840,325.8616L297.4320,324.7759L299.8800,322.4087L302.3280,321.8949L304.7760,320.9681L307.2240,318.2767
            L309.6720,315.8055L312.1200,313.3496L314.5680,310.3829L317.0160,309.6855L319.4640,307.2296L321.9120,305.8808L324.3600,301.9721L326.8080,300.4702L329.2560,297.6352L331.7040,295.3321
            L334.1520,294.8212L336.6000,288.8877L339.0480,288.8633L341.4960,286.4473L343.9440,285.9732L346.3920,282.1653L348.8400,279.4830L351.2880,278.4708L353.7360,277.5410L356.1840,275.5591
            L358.6320,274.5099L361.0800,272.2497L363.5280,270.6991L365.9760,269.4269L368.4240,270.3718L370.8720,267.3532L373.3200,266.7353L375.7680,265.3162L378.2160,263.8758L380.6640,263.8359
            L383.1120,261.7287L385.5600,260.6001L388.0080,260.2422L390.4560,260.1504L392.9040,259.4378L395.3520,258.5570L397.8000,259.3644L400.2480,258.2603L402.6960,256.9910L405.1440,256.9575
            L407.5920,257.2664L410.0400,257.1409L412.4880,257.2603L414.9360,255.8625L417.3840,257.3918L419.8320,255.3120L422.2800,256.0674L424.7280,256.7281L427.1760,256.8748L429.6240,255.3455
            L432.0720,255.4128L434.5200,256.4527L436.9680,256.6454L439.4160,256.5842L441.8640,257.0094L444.3120,257.2848L446.7600,257.1134L449.2080,259.0554L451.6560,258.9945L454.1040,258.1685
            L456.5520,260.0924L459.0000,259.8843L461.4480,260.9213L463.8960,261.1353L466.3440,261.5360L468.7920,262.6493L471.2400,262.5269L473.6880,264.0041L476.1360,263.7840L478.5840,264.5301
            L481.0320,264.7566L483.4800,267.7630L485.9280,267.5429L488.3760,266.2614L490.8240,267.2034L493.2720,267.9221L495.7200,270.5799L498.1680,270.1241L500.6160,271.0876L503.0640,272.4120
            L505.5120,274.3204L507.9600,274.0144L510.4080,274.4303L512.8560,275.4673L515.3040,275.8130L517.7520,276.7733L520.2000,275.8497L522.6480,278.1036L525.0960,279.4801L527.5440,280.3548
            L529.9920,281.2387L532.4400,284.1839L534.8880,283.2145L537.3360,286.7470L539.7840,285.4960L542.2320,287.0069L544.6800,289.2243L547.1280,291.0288L549.5760,293.0107L552.0240,294.6408
            L554.4720,295.2494L556.9200,297.6597L559.3680,297.9838L561.8160,300.3784L564.2640,303.0761L566.7120,304.1251L569.1600,306.3364L571.6080,309.4010L574.0560,309.3307L576.5040,312.0772
            L578.9520,313.3983L581.4000,316.3499L581.4612,316.3849"/>
  </g>
  <g style="fill:none; stroke:#00FFFF; stroke-width:  2.7540; stroke-linecap:butt; stroke-linejoin:miter; stroke-dasharray:none">
   <path d="M91.7388,91.8000L91.8000,91.8000L94.2480,91.8000L96.6960,91.8000L99.1440,91.8000L101.5920,91.8000L104.0400,91.8000L106.4880,91.8000L108.9360,91.8000L111.3840,91.8000
            L113.8320,91.8000L116.2800,91.8000L118.7280,91.8000L121.1760,91.8000L123.6240,91.8000L126.0720,91.8000L128.5200,91.8000L130.9680,91.8000L133.4160,91.8000L135.8640,91.8029
            L138.3120,91.8122L140.7600,91.8947L143.2080,92.1119L145.6560,92.8306L148.1040,94.4304L150.5520,97.6387L153.0000,103.6821L155.4480,113.2521L157.8960,126.9969L160.3440,145.3630
            L162.7920,167.9193L165.2400,195.7453L167.6880,227.0762L170.1360,262.2087L172.5840,294.9558L175.0320,331.1224L177.4800,359.8964L179.9280,386.6060L182.3760,408.8013L184.8240,424.5677
            L187.2720,431.1374L189.7200,437.2909L192.1680,434.4375L194.6160,427.9596L197.0640,415.8939L199.5120,402.4062L201.9600,387.8692L204.4080,373.8032L206.8560,358.8075L209.3040,344.8762
            L211.7520,330.5625L214.2000,319.5245L216.6480,307.6272L219.0960,299.6903L221.5440,293.2981L223.9920,286.5727L226.4400,281.3792L228.8880,278.0426L231.3360,276.1342L233.7840,274.1584
            L236.2320,274.4396L238.6800,274.3510L241.1280,275.1400L243.5760,274.2837L246.0240,277.3361L248.4720,279.6757L250.9200,280.6666L253.3680,284.0248L255.8160,287.2882L258.2640,290.6709
            L260.7120,293.0506L263.1600,296.6288L265.6080,298.2866L268.0560,299.7025L270.5040,301.6203L272.9520,304.6389L275.4000,305.5077L277.8480,303.9385L280.2960,305.7461L282.7440,306.5841
            L285.1920,307.4436L287.6400,305.8776L290.0880,304.0213L292.5360,303.8010L294.9840,303.8284L297.4320,302.4215L299.8800,300.7823L302.3280,298.5894L304.7760,298.0540L307.2240,295.9590
            L309.6720,292.6560L312.1200,292.4205L314.5680,288.5942L317.0160,287.1477L319.4640,285.0769L321.9120,285.0373L324.3600,282.0980L326.8080,280.6727L329.2560,278.4982L331.7040,277.1954
            L334.1520,277.8835L336.6000,272.3476L339.0480,271.8859L341.4960,268.9620L343.9440,268.1576L346.3920,267.8090L348.8400,267.0993L351.2880,266.6251L353.7360,264.9186L356.1840,264.0868
            L358.6320,264.4721L361.0800,261.3311L363.5280,259.5969L365.9760,259.3982L368.4240,260.3034L370.8720,259.5081L373.3200,258.0767L375.7680,258.7803L378.2160,258.8628L380.6640,257.2114
            L383.1120,256.6760L385.5600,256.2539L388.0080,256.5017L390.4560,256.5597L392.9040,256.0001L395.3520,256.1315L397.8000,256.4498L400.2480,256.8686L402.6960,255.9083L405.1440,256.4405
            L407.5920,257.3979L410.0400,255.2079L412.4880,256.6241L414.9360,256.5477L417.3840,257.1592L419.8320,257.7313L422.2800,257.4958L424.7280,258.6579L427.1760,259.6643L429.6240,259.5908
            L432.0720,261.2055L434.5200,261.3952L436.9680,262.1478L439.4160,262.4719L441.8640,262.1416L444.3120,263.4445L446.7600,262.9429L449.2080,264.9186L451.6560,264.9277L454.1040,266.4325
            L456.5520,267.0352L459.0000,268.3532L461.4480,268.5674L463.8960,269.1424L466.3440,269.5706L468.7920,272.4607L471.2400,271.8521L473.6880,271.9410L476.1360,273.0908L478.5840,274.7760
            L481.0320,274.9258L483.4800,276.7733L485.9280,276.7366L488.3760,276.6845L490.8240,278.4003L493.2720,279.4157L495.7200,279.6666L498.1680,281.9330L500.6160,282.1102L503.0640,283.6762
            L505.5120,286.4748L507.9600,285.6919L510.4080,286.8510L512.8560,287.5666L515.3040,288.7502L517.7520,290.0349L520.2000,289.5729L522.6480,291.0349L525.0960,292.8393L527.5440,291.9556
            L529.9920,293.7845L532.4400,294.9987L534.8880,294.9040L537.3360,297.2068L539.7840,297.7757L542.2320,298.8340L544.6800,300.6171L547.1280,301.9260L549.5760,302.6847L552.0240,304.3422
            L554.4720,305.6176L556.9200,308.0522L559.3680,308.9454L561.8160,310.8262L564.2640,311.4838L566.7120,314.8116L569.1600,315.1296L571.6080,316.5577L574.0560,320.7754L576.5040,320.5798
            L578.9520,322.6351L581.4000,324.9289L581.4612,324.9655"/>
  </g>
  <g style="fill:none; stroke:#0000FF; stroke-width:  2.7540; stroke-linecap:butt; stroke-linejoin:miter; stroke-dasharray:none">
   <path d="M91.7388,91.8000L91.8000,91.8000L94.2480,91.8000L96.6960,91.8000L99.1440,91.8000L101.5920,91.8000L104.0400,91.8000L106.4880,91.8000L108.9360,91.8000L111.3840,91.8000
            L113.8320,91.8000L116.2800,91.8000L118.7280,91.8000L121.1760,91.8000L123.6240,91.8000L126.0720,91.8000L128.5200,91.8000L130.9680,91.8000L133.4160,91.8029L135.8640,91.8091
            L138.3120,91.8184L140.7600,91.8764L143.2080,92.1273L145.6560,92.7298L148.1040,94.3293L150.5520,97.8160L153.0000,104.2726L155.4480,113.9830L157.8960,128.7800L160.3440,150.0852
            L162.7920,175.7703L165.2400,208.2910L167.6880,244.2893L170.1360,284.2023L172.5840,325.4640L175.0320,366.0042L177.4800,400.9197L179.9280,435.1746L182.3760,457.8960L184.8240,476.8278
            L187.2720,483.9725L189.7200,485.6668L192.1680,484.2477L194.6160,472.7171L197.0640,458.5442L199.5120,440.5575L201.9600,423.7206L204.4080,403.8191L206.8560,386.8170L209.3040,370.1178
            L211.7520,353.5593L214.2000,338.6644L216.6480,326.6264L219.0960,313.8877L221.5440,304.6727L223.9920,297.8707L226.4400,291.0349L228.8880,287.4167L231.3360,282.1624L233.7840,280.5078
            L236.2320,279.9327L238.6800,278.2443L241.1280,278.2811L243.5760,279.4923L246.0240,279.7552L248.4720,283.5232L250.9200,285.4899L253.3680,286.6765L255.8160,289.4322L258.2640,292.7539
            L260.7120,295.1394L263.1600,299.2102L265.6080,299.6200L268.0560,303.7030L270.5040,305.1314L272.9520,306.0274L275.4000,308.4468L277.8480,310.2573L280.2960,309.9303L282.7440,310.5907
            L285.1920,311.6918L287.6400,311.6368L290.0880,309.4164L292.5360,308.5202L294.9840,308.3398L297.4320,305.8747L299.8800,306.2233L302.3280,304.6267L304.7760,301.8619L307.2240,299.9412
            L309.6720,299.9074L312.1200,299.0511L314.5680,294.8763L317.0160,292.9678L319.4640,291.5029L321.9120,290.5333L324.3600,288.3558L326.8080,286.8755L329.2560,285.2055L331.7040,282.7558
            L334.1520,283.2451L336.6000,283.3276L339.0480,280.3609L341.4960,278.9968L343.9440,278.9356L346.3920,276.4216L348.8400,275.5804L351.2880,273.6201L353.7360,273.9319L356.1840,272.3109
            L358.6320,271.5096L361.0800,271.9836L363.5280,270.5370L365.9760,271.6778L368.4240,270.0080L370.8720,268.2066L373.3200,269.8428L375.7680,268.7326L378.2160,267.5152L380.6640,266.2765
            L383.1120,266.2920L385.5600,267.2340L388.0080,265.8117L390.4560,266.1297L392.9040,266.6068L395.3520,266.0717L397.8000,267.1605L400.2480,266.2675L402.6960,268.0445L405.1440,267.3561
            L407.5920,268.7478L410.0400,267.8548L412.4880,268.1270L414.9360,268.8947L417.3840,267.2952L419.8320,270.0110L422.2800,269.1608L424.7280,269.9897L427.1760,270.9897L429.6240,272.0203
            L432.0720,270.4423L434.5200,272.6475L436.9680,274.1887L439.4160,274.6323L441.8640,275.1248L444.3120,274.8739L446.7600,275.3542L449.2080,276.8497L451.6560,278.3635L454.1040,278.1435
            L456.5520,279.0243L459.0000,280.9939L461.4480,281.1836L463.8960,282.6640L466.3440,282.6517L468.7920,284.3215L471.2400,284.0525L473.6880,285.8997L476.1360,286.3218L478.5840,288.5514
            L481.0320,288.3984L483.4800,288.0836L485.9280,290.0807L488.3760,290.8941L490.8240,290.4721L493.2720,293.9497L495.7200,292.4050L498.1680,296.0232L500.6160,295.9071L503.0640,295.5828
            L505.5120,297.9715L507.9600,297.6504L510.4080,298.0327L512.8560,299.1277L515.3040,300.4061L517.7520,302.5532L520.2000,300.9199L522.6480,303.4798L525.0960,303.0761L527.5440,303.2230
            L529.9920,304.8744L532.4400,306.3334L534.8880,307.7648L537.3360,306.8411L539.7840,309.2145L542.2320,309.6580L544.6800,311.0527L547.1280,311.8478L549.5760,313.7839L552.0240,313.0897
            L554.4720,315.5484L556.9200,317.3041L559.3680,318.3746L561.8160,319.6500L564.2640,321.1149L566.7120,323.0205L569.1600,323.1152L571.6080,326.7182L574.0560,327.5590L576.5040,328.6112
            L578.9520,331.3118L581.4000,333.7219L581.4612,333.7386"/>
  </g>
  <g style="fill:none; stroke:#000000; stroke-width:  0.9180; stroke-linecap:butt; stroke-linejoin:miter; stroke-dasharray:none">
   <path d="M91.8000,91.8000L581.4000,91.8000"/>
   <path d="M91.8000,581.4000L581.4000,581.4000"/>
  </g>
  <g style="fill:none; stroke:#000000; stroke-width:  1.8360; stroke-linecap:butt; stroke-linejoin:miter; stroke-dasharray:none">
   <path d="M153.0000,91.8000L153.0000,97.9200"/>
   <path d="M153.0000,581.4000L153.0000,575.2800"/>
   <path d="M275.4000,91.8000L275.4000,97.9200"/>
   <path d="M275.4000,581.4000L275.4000,575.2800"/>
   <path d="M397.8000,91.8000L397.8000,97.9200"/>
   <path d="M397.8000,581.4000L397.8000,575.2800"/>
   <path d="M520.2000,91.8000L520.2000,97.9200"/>
   <path d="M520.2000,581.4000L520.2000,575.2800"/>
   <path d="M91.8000,91.8000L91.8000,104.0400"/>
   <path d="M91.8000,581.4000L91.8000,569.1600"/>
   <path d="M214.2000,91.8000L214.2000,104.0400"/>
   <path d="M214.2000,581.4000L214.2000,569.1600"/>
   <path d="M336.6000,91.8000L336.6000,104.0400"/>
   <path d="M336.6000,581.4000L336.6000,569.1600"/>
   <path d="M459.0000,91.8000L459.0000,104.0400"/>
   <path d="M459.0000,581.4000L459.0000,569.1600"/>
  </g>
  <g style="fill:#000000; fill-rule:nonzero">
   <text   style="font-family:'Helvetica','Nimbus Sans L'; font-style:normal; font-weight:bold; font-size:612.0000" transform="matrix(0.0364,0.0000,-0.0000,-0.0364,76.8000,69.6800)">0.2</text>
   <text   style="font-family:'Helvetica','Nimbus Sans L'; font-style:normal; font-weight:bold; font-size:612.0000" transform="matrix(0.0364,0.0000,-0.0000,-0.0364,199.2000,69.6800)">0.3</text>
   <text   style="font-family:'Helvetica','Nimbus Sans L'; font-style:normal; font-weight:bold; font-size:612.0000" transform="matrix(0.0364,0.0000,-0.0000,-0.0364,321.1000,69.6800)">0.4</text>
   <text   style="font-family:'Helvetica','Nimbus Sans L'; font-style:normal; font-weight:bold; font-size:612.0000" transform="matrix(0.0364,0.0000,-0.0000,-0.0364,444.0000,69.6800)">0.5</text>
   <text   style="font-family:'Helvetica','Nimbus Sans L'; font-style:normal; font-weight:bold; font-size:612.0000" transform="matrix(0.0367,0.0000,-0.0000,-0.0367,305.1000,47.5600)">r (nm)</text>
  </g>
  <g style="fill:none; stroke:#000000; stroke-width:  0.9180; stroke-linecap:butt; stroke-linejoin:miter; stroke-dasharray:none">
   <path d="M91.8000,91.8000L91.8000,581.4000"/>
   <path d="M581.4000,91.8000L581.4000,581.4000"/>
  </g>
  <g style="fill:none; stroke:#000000; stroke-width:  1.8360; stroke-linecap:butt; stroke-linejoin:miter; stroke-dasharray:none">
   <path d="M91.8000,153.0000L97.9200,153.0000"/>
   <path d="M581.4000,153.0000L575.2800,153.0000"/>
   <path d="M91.8000,275.4000L97.9200,275.4000"/>
   <path d="M581.4000,275.4000L575.2800,275.4000"/>
   <path d="M91.8000,397.8000L97.9200,397.8000"/>
   <path d="M581.4000,397.8000L575.2800,397.8000"/>
   <path d="M91.8000,520.2000L97.9200,520.2000"/>
   <path d="M581.4000,520.2000L575.2800,520.2000"/>
   <path d="M91.8000,91.8000L104.0400,91.8000"/>
   <path d="M581.4000,91.8000L569.1600,91.8000"/>
   <path d="M91.8000,214.2000L104.0400,214.2000"/>
   <path d="M581.4000,214.2000L569.1600,214.2000"/>
   <path d="M91.8000,336.6000L104.0400,336.6000"/>
   <path d="M581.4000,336.6000L569.1600,336.6000"/>
   <path d="M91.8000,459.0000L104.0400,459.0000"/>
   <path d="M581.4000,459.0000L569.1600,459.0000"/>
   <path d="M91.8000,581.4000L104.0400,581.4000"/>
   <path d="M581.4000,581.4000L569.1600,581.4000"/>
  </g>
  <g style="fill:#000000; fill-rule:nonzero">
   <text   style="font-family:'Helvetica','Nimbus Sans L'; font-style:normal; font-weight:bold; font-size:612.0000" transform="matrix(0.0364,0.0000,-0.0000,-0.0364,74.6800,83.8000)">0</text>
   <text   style="font-family:'Helvetica','Nimbus Sans L'; font-style:normal; font-weight:bold; font-size:612.0000" transform="matrix(0.0364,0.0000,-0.0000,-0.0364,49.6800,206.2000)">500</text>
   <text   style="font-family:'Helvetica','Nimbus Sans L'; font-style:normal; font-weight:bold; font-size:612.0000" transform="matrix(0.0364,0.0000,-0.0000,-0.0364,37.6800,328.6000)">1000</text>
   <text   style="font-family:'Helvetica','Nimbus Sans L'; font-style:normal; font-weight:bold; font-size:612.0000" transform="matrix(0.0364,0.0000,-0.0000,-0.0364,37.6800,451.0000)">1500</text>
   <text   style="font-family:'Helvetica','Nimbus Sans L'; font-style:normal; font-weight:bold; font-size:612.0000" transform="matrix(0.0364,0.0000,-0.0000,-0.0364,37.6800,573.4000)">2000</text>
   <text   style="font-family:'Helvetica','Nimbus Sans L'; font-style:normal; font-weight:bold; font-size:612.0000" transform="matrix(0.0000,0.0367,0.0367,-0.0000,26.5600,318.1000)">g(r)</text>
  </g>
  <g style="fill:none; stroke:#000000; stroke-width:  1.8360; stroke-linecap:butt; stroke-linejoin:miter; stroke-dasharray:none">
   <path d="M91.8000,91.8000L91.8000,581.4000L581.4000,581.4000L581.4000,91.8000z"/>
  </g>
  <g style="fill:#FFFFFF; fill-rule:nonzero">
   <path  d="M428.4000,550.8000L428.4000,434.0800L575.8570,434.0800L575.8570,550.8000z"/>
  </g>
  <g style="fill:#000000; fill-rule:nonzero">
   <text   style="font-family:'Helvetica','Nimbus Sans L'; font-style:normal; font-weight:bold; font-size:612.0000" transform="matrix(0.0364,0.0000,-0.0000,-0.0364,478.7370,528.6800)">RSGSY</text>
  </g>
  <g style="fill:none; stroke:#0000FF; stroke-width:  2.7540; stroke-linecap:butt; stroke-linejoin:miter; stroke-dasharray:none">
   <path d="M435.8970,536.6800L466.4970,536.6800"/>
  </g>
  <g style="fill:#000000; fill-rule:nonzero">
   <text   style="font-family:'Helvetica','Nimbus Sans L'; font-style:normal; font-weight:bold; font-size:612.0000" transform="matrix(0.0364,0.0000,-0.0000,-0.0364,478.7370,506.5600)">RGSGY</text>
  </g>
  <g style="fill:none; stroke:#00FFFF; stroke-width:  2.7540; stroke-linecap:butt; stroke-linejoin:miter; stroke-dasharray:none">
   <path d="M435.8970,514.5600L466.4970,514.5600"/>
  </g>
  <g style="fill:#000000; fill-rule:nonzero">
   <text   style="font-family:'Helvetica','Nimbus Sans L'; font-style:normal; font-weight:bold; font-size:612.0000" transform="matrix(0.0364,0.0000,-0.0000,-0.0364,478.7370,484.4400)">RGLGY</text>
  </g>
  <g style="fill:none; stroke:#008B00; stroke-width:  2.7540; stroke-linecap:butt; stroke-linejoin:miter; stroke-dasharray:none">
   <path d="M435.8970,492.4400L466.4970,492.4400"/>
  </g>
  <g style="fill:#000000; fill-rule:nonzero">
   <text   style="font-family:'Helvetica','Nimbus Sans L'; font-style:normal; font-weight:bold; font-size:612.0000" transform="matrix(0.0364,0.0000,-0.0000,-0.0364,478.7370,462.3200)">H+GLGY</text>
  </g>
  <g style="fill:none; stroke:#FFA500; stroke-width:  2.7540; stroke-linecap:butt; stroke-linejoin:miter; stroke-dasharray: 14 8">
   <path d="M435.8970,470.3200L466.4970,470.3200"/>
  </g>
  <g style="fill:#000000; fill-rule:nonzero">
   <text   style="font-family:'Helvetica','Nimbus Sans L'; font-style:normal; font-weight:bold; font-size:612.0000" transform="matrix(0.0364,0.0000,-0.0000,-0.0364,478.7370,440.2000)">HGLGY</text>
  </g>
  <g style="fill:none; stroke:#FFA500; stroke-width:  2.7540; stroke-linecap:butt; stroke-linejoin:miter; stroke-dasharray:none">
   <path d="M435.8970,448.2000L466.4970,448.2000"/>
  </g>
 </g>
</svg>
