<?xml version="1.0" encoding="ISO-8859-1"?>
<!DOCTYPE svg PUBLIC "-//W3C//DTD SVG 1.0//EN" "http://www.w3.org/TR/2001/REC-SVG-20010904/DTD/svg10.dtd">
<!-- generated by Grace-5.1.25 -->
<svg xml:space="preserve" width="11.0000in" height="8.5000in" viewBox="0.0000 0.0000 792.0000 612.0000">
 <g transform="translate(0,612.0000) scale(1,-1)">
 <desc></desc>
  <g style="fill:#FFFFFF; fill-rule:nonzero">
   <path  d="M0.0000,0.0000L0.0000,612.0000L792.0000,612.0000L792.0000,0.0000z"/>
  </g>
  <g style="fill:none; stroke:#FFA500; stroke-width:  2.7540; stroke-linecap:butt; stroke-linejoin:miter; stroke-dasharray:none">
   <path d="M91.7388,105.1014L91.8000,105.2469L94.5977,115.3238L97.3954,129.8556L100.1931,147.5534L102.9909,171.6567L105.7886,195.1068L108.5863,219.3486L111.3840,244.3655L114.1817,269.7414
            L116.9794,290.3032L119.7771,311.0936L122.5749,324.2873L125.3726,335.4169L128.1703,343.8946L130.9680,354.9752L133.7657,355.6359L136.5634,356.9253L139.3611,354.1103L142.1589,349.7041
            L144.9566,345.8040L147.7543,338.5665L150.5520,329.9255L153.3497,321.9539L156.1474,314.2187L158.9451,305.9939L161.7429,299.0340L164.5406,292.3267L167.3383,289.1529L170.1360,287.8229
            L172.9337,281.1646L175.7314,277.9334L178.5291,278.3090L181.3269,276.9706L184.1246,277.7866L186.9223,280.5690L189.7200,282.0052L192.5177,286.6153L195.3154,290.0422L198.1131,293.6976
            L200.9109,297.7040L203.7086,302.5260L206.5063,306.6465L209.3040,312.8478L212.1017,317.9964L214.8994,323.5612L217.6971,331.7696L220.4949,335.8086L223.2926,340.0189L226.0903,346.9624
            L228.8880,350.2099L231.6857,353.8246L234.4834,357.1211L237.2811,359.7077L240.0789,362.3348L242.8766,363.1508L245.6743,367.7202L248.4720,368.2749L251.2697,364.7664L254.0674,368.2260
            L256.8651,363.8935L259.6629,363.9260L262.4606,363.0937L265.2583,361.0783L268.0560,362.6286L270.8537,357.9696L273.6514,355.3749L276.4491,353.4819L279.2469,351.3279L282.0446,346.8483
            L284.8423,345.4204L287.6400,341.5119L290.4377,339.5048L293.2354,338.0933L296.0331,332.4795L298.8309,331.7206L301.6286,329.3219L304.4263,328.9791L307.2240,324.0998L310.0217,320.7379
            L312.8194,317.4662L315.6171,317.2703L318.4149,313.5986L321.2126,311.1425L324.0103,307.6585L326.8080,306.3856L329.6057,302.2976L332.4034,299.0585L335.2011,300.8533L337.9989,298.1199
            L340.7966,295.9904L343.5943,292.5960L346.3920,292.3757L349.1897,288.8508L351.9874,290.7438L354.7851,290.2136L357.5829,284.8118L360.3806,284.0857L363.1783,284.6405L365.9760,282.9841
            L368.7737,280.4140L371.5714,280.9526L374.3691,281.1484L377.1669,277.7295L379.9646,277.7376L382.7623,273.4377L385.5600,273.6742L388.3577,274.1393L391.1554,274.8330L393.9531,275.0614
            L396.7509,272.7848L399.5486,273.0786L402.3463,272.3116L405.1440,271.0389L407.9417,273.1439L410.7394,271.5855L413.5371,269.3578L416.3349,268.7622L419.1326,272.3606L421.9303,270.3045
            L424.7280,271.2264L427.5257,271.3569L430.3234,270.0107L433.1211,269.3742L435.9189,270.2800L438.7166,270.5248L441.5143,269.7334L444.3120,271.7730L447.1097,272.3525L449.9074,273.6986
            L452.7051,274.2700L455.5029,271.1366L458.3006,274.4739L461.0983,271.8874L463.8960,276.3261L466.6937,274.3270L469.4914,276.7586L472.2891,276.7748L475.0869,277.5990L477.8846,278.1621
            L480.6823,279.9080L483.4800,280.2916L486.2777,280.3242L489.0754,282.9190L491.8731,286.3541L494.6709,285.4157L497.4686,285.8564L500.2663,288.7039L503.0640,288.2797L505.8617,291.2089
            L508.6594,290.8092L511.4571,291.8616L514.2549,292.8327L517.0526,294.3666L519.8503,296.8878L522.6480,298.7808L525.4457,298.6668L528.2434,302.2896L531.0411,302.5344L533.8389,304.5089
            L536.6366,305.7816L539.4343,309.2984L542.2320,310.4162L545.0297,312.7009L547.8274,314.7244L550.6251,318.8123L553.4229,320.9911L556.2206,321.0481L559.0183,325.0787L561.8160,328.4570
            L564.6137,326.4251L567.4114,329.5667L570.2091,334.6090L573.0069,336.1104L575.8046,339.0071L578.6023,343.7232L581.4000,344.3761L581.4612,344.4127"/>
  </g>
  <g style="fill:none; stroke:#008B00; stroke-width:  2.7540; stroke-linecap:butt; stroke-linejoin:miter; stroke-dasharray:none">
   <path d="M91.7388,105.3486L91.8000,105.5078L94.5977,116.4824L97.3954,131.3164L100.1931,149.9035L102.9909,174.9693L105.7886,204.0496L108.5863,233.2523L111.3840,264.2582L114.1817,296.1617
            L116.9794,328.0979L119.7771,358.4183L122.5749,384.3328L125.3726,403.5484L128.1703,416.5791L130.9680,424.4364L133.7657,425.9133L136.5634,426.2399L139.3611,419.8673L142.1589,408.0767
            L144.9566,395.4296L147.7543,385.6547L150.5520,372.3303L153.3497,360.5480L156.1474,343.4458L158.9451,334.6908L161.7429,323.3245L164.5406,312.6684L167.3383,307.2749L170.1360,300.1681
            L172.9337,295.5661L175.7314,292.2288L178.5291,288.8018L181.3269,292.0657L184.1246,290.8907L186.9223,295.0357L189.7200,297.4428L192.5177,301.4247L195.3154,304.5496L198.1131,312.0728
            L200.9109,318.3227L203.7086,322.8104L206.5063,332.3733L209.3040,338.7378L212.1017,345.3714L214.8994,353.8165L217.6971,360.6949L220.4949,365.8436L223.2926,377.2505L226.0903,377.4706
            L228.8880,387.8413L231.6857,389.4815L234.4834,394.1569L237.2811,396.0252L240.0789,395.7072L242.8766,399.5501L245.6743,404.0135L248.4720,402.5447L251.2697,402.1939L254.0674,402.9038
            L256.8651,400.6842L259.6629,400.9780L262.4606,395.9518L265.2583,396.4252L268.0560,392.1331L270.8537,388.8205L273.6514,388.1595L276.4491,382.9294L279.2469,381.2567L282.0446,377.0383
            L284.8423,375.3247L287.6400,371.7183L290.4377,368.5606L293.2354,361.6088L296.0331,359.1121L298.8309,355.9135L301.6286,353.3595L304.4263,351.0013L307.2240,348.5536L310.0217,344.0659
            L312.8194,339.8311L315.6171,340.0189L318.4149,337.4323L321.2126,332.3001L324.0103,331.9899L326.8080,330.9047L329.6057,326.0335L332.4034,327.4859L335.2011,323.9446L337.9989,318.3962
            L340.7966,318.7553L343.5943,317.8659L346.3920,317.2375L349.1897,315.8750L351.9874,312.7824L354.7851,309.7472L357.5829,309.9839L360.3806,307.5116L363.1783,308.1234L365.9760,305.9285
            L368.7737,305.5532L371.5714,303.7990L374.3691,303.3503L377.1669,305.6920L379.9646,300.3395L382.7623,303.0727L385.5600,300.7799L388.3577,301.6612L391.1554,298.5689L393.9531,298.9116
            L396.7509,297.8998L399.5486,296.3576L402.3463,297.7774L405.1440,296.3331L407.9417,299.1236L410.7394,300.6004L413.5371,300.4780L416.3349,299.2379L419.1326,297.5326L421.9303,296.1292
            L424.7280,297.7446L427.5257,296.7737L430.3234,298.5444L433.1211,300.2171L435.9189,298.8137L438.7166,300.6658L441.5143,297.8589L444.3120,301.4408L447.1097,302.4935L449.9074,299.6212
            L452.7051,304.1826L455.5029,305.4879L458.3006,305.3657L461.0983,301.9875L463.8960,305.4389L466.6937,307.2585L469.4914,304.3131L472.2891,307.4137L475.0869,307.6992L477.8846,308.8008
            L480.6823,309.6248L483.4800,311.6321L486.2777,314.6265L489.0754,310.9058L491.8731,314.2593L494.6709,316.5031L497.4686,312.8397L500.2663,313.6476L503.0640,315.7362L505.8617,317.6128
            L508.6594,319.0082L511.4571,322.7044L514.2549,320.9257L517.0526,321.3010L519.8503,322.8023L522.6480,327.5674L525.4457,326.9882L528.2434,326.9392L531.0411,331.3290L533.8389,333.5402
            L536.6366,333.9809L539.4343,335.8982L542.2320,338.2238L545.0297,338.9092L547.8274,339.1866L550.6251,342.8747L553.4229,346.3097L556.2206,347.5009L559.0183,350.0141L561.8160,351.9969
            L564.6137,355.4729L567.4114,355.3994L570.2091,360.3032L573.0069,361.0212L575.8046,364.1464L578.6023,367.1082L581.4000,370.6576L581.4612,370.6818"/>
  </g>
  <g style="fill:none; stroke:#00FFFF; stroke-width:  2.7540; stroke-linecap:butt; stroke-linejoin:miter; stroke-dasharray:none">
   <path d="M91.7388,105.1888L91.8000,105.3448L94.5977,116.2132L97.3954,132.5646L100.1931,151.2825L102.9909,180.2974L105.7886,210.9444L108.5863,245.6874L111.3840,283.0821L114.1817,321.2114
            L116.9794,359.2996L119.7771,394.1814L122.5749,427.1618L125.3726,448.4335L128.1703,465.3562L130.9680,477.8075L133.7657,481.2344L136.5634,474.4704L139.3611,466.8901L142.1589,453.9003
            L144.9566,439.6050L147.7543,423.0494L150.5520,404.3562L153.3497,389.9955L156.1474,373.6603L158.9451,360.8009L161.7429,349.3369L164.5406,334.7478L167.3383,324.0344L170.1360,320.2892
            L172.9337,312.6848L175.7314,306.6059L178.5291,301.9224L181.3269,297.6305L184.1246,301.0900L186.9223,299.2134L189.7200,299.0910L192.5177,302.1508L195.3154,304.8842L198.1131,307.3403
            L200.9109,308.9640L203.7086,308.7273L206.5063,314.9203L209.3040,316.6255L212.1017,318.8123L214.8994,323.0961L217.6971,325.0787L220.4949,329.2075L223.2926,330.7987L226.0903,333.0670
            L228.8880,336.3633L231.6857,338.1993L234.4834,339.8230L237.2811,340.8918L240.0789,341.2510L242.8766,342.2872L245.6743,339.2274L248.4720,340.5085L251.2697,341.2265L254.0674,334.2827
            L256.8651,337.5628L259.6629,335.7841L262.4606,333.2710L265.2583,332.7894L268.0560,330.2438L270.8537,327.9184L273.6514,326.7923L276.4491,321.9455L279.2469,319.9710L282.0446,321.5539
            L284.8423,315.4099L287.6400,314.8713L290.4377,311.3873L293.2354,309.7880L296.0331,307.5442L298.8309,307.4463L301.6286,304.7944L304.4263,305.0800L307.2240,305.4879L310.0217,301.2450
            L312.8194,298.6014L315.6171,297.5326L318.4149,298.0464L321.2126,296.7409L324.0103,293.4692L326.8080,294.0077L329.6057,292.5145L332.4034,289.4383L335.2011,290.0258L337.9989,288.4674
            L340.7966,287.7330L343.5943,288.9081L346.3920,286.0113L349.1897,285.8155L351.9874,287.3577L354.7851,284.9425L357.5829,284.1837L360.3806,283.7594L363.1783,283.6615L365.9760,284.9342
            L368.7737,283.2618L371.5714,286.2725L374.3691,284.8772L377.1669,282.8617L379.9646,283.1230L382.7623,282.2662L385.5600,283.5717L388.3577,282.5029L391.1554,283.8735L393.9531,285.3913
            L396.7509,283.0006L399.5486,284.9670L402.3463,285.4238L405.1440,285.1384L407.9417,284.1266L410.7394,284.7222L413.5371,285.7259L416.3349,285.1465L419.1326,288.1573L421.9303,289.3487
            L424.7280,290.2297L427.5257,289.0875L430.3234,289.6667L433.1211,290.6785L435.9189,292.7348L438.7166,291.4782L441.5143,294.4237L444.3120,294.8807L447.1097,295.1010L449.9074,297.0349
            L452.7051,294.4481L455.5029,298.0222L458.3006,297.4102L461.0983,297.8996L463.8960,298.0793L466.6937,300.4374L469.4914,302.4690L472.2891,303.2279L475.0869,301.8489L477.8846,306.4916
            L480.6823,304.9576L483.4800,306.9322L486.2777,306.3692L489.0754,307.8786L491.8731,308.0174L494.6709,311.3464L497.4686,312.0400L500.2663,309.8534L503.0640,313.8270L505.8617,311.2079
            L508.6594,314.1942L511.4571,315.2711L514.2549,318.1514L517.0526,316.0299L519.8503,317.7842L522.6480,317.9230L525.4457,318.8368L528.2434,320.8848L531.0411,319.5303L533.8389,322.7534
            L536.6366,323.7000L539.4343,323.6672L542.2320,327.3228L545.0297,329.3219L547.8274,330.5946L550.6251,332.2918L553.4229,333.9481L556.2206,334.4622L559.0183,334.0379L561.8160,336.6081
            L564.6137,340.3778L567.4114,342.5565L570.2091,342.1565L573.0069,342.8992L575.8046,346.7014L578.6023,350.7813L581.4000,351.0013L581.4612,351.0047"/>
  </g>
  <g style="fill:none; stroke:#0000FF; stroke-width:  2.7540; stroke-linecap:butt; stroke-linejoin:miter; stroke-dasharray:none">
   <path d="M91.7388,106.2369L91.8000,106.3972L94.5977,118.4815L97.3954,136.5465L100.1931,161.0657L102.9909,192.0796L105.7886,230.9921L108.5863,275.0859L111.3840,317.0662L114.1817,368.5770
            L116.9794,417.8273L119.7771,457.6619L122.5749,493.9550L125.3726,527.3844L128.1703,547.0651L130.9680,560.9362L133.7657,559.0106L136.5634,555.8936L139.3611,543.5972L142.1589,531.6273
            L144.9566,514.5495L147.7543,489.8999L150.5520,469.6317L153.3497,448.4090L156.1474,430.1320L158.9451,411.1937L161.7429,394.8178L164.5406,382.2114L167.3383,366.8634L170.1360,354.5997
            L172.9337,345.6816L175.7314,340.1658L178.5291,335.0333L181.3269,330.0234L184.1246,324.9972L186.9223,326.1723L189.7200,327.3390L192.5177,328.2611L195.3154,323.6021L198.1131,329.1830
            L200.9109,331.2555L203.7086,335.3515L206.5063,334.7723L209.3040,340.6145L212.1017,342.9318L214.8994,346.9462L217.6971,352.0295L220.4949,354.4856L223.2926,359.5524L226.0903,360.2704
            L228.8880,360.9968L231.6857,366.1863L234.4834,365.7782L237.2811,368.8624L240.0789,367.3775L242.8766,365.9740L245.6743,369.7682L248.4720,365.8108L251.2697,366.1863L254.0674,366.5860
            L256.8651,364.5136L259.6629,366.1209L262.4606,361.6332L265.2583,359.5444L268.0560,353.5145L270.8537,356.9659L273.6514,348.7984L276.4491,350.5037L279.2469,347.2317L282.0446,347.2970
            L284.8423,343.8130L287.6400,342.1974L290.4377,340.9491L293.2354,342.5890L296.0331,335.8739L298.8309,334.4622L301.6286,334.7314L304.4263,331.0271L307.2240,329.1422L310.0217,327.2004
            L312.8194,327.3799L315.6171,324.4097L318.4149,324.4342L321.2126,321.9375L324.0103,320.1423L326.8080,320.3871L329.6057,320.1343L332.4034,317.4498L335.2011,319.4163L337.9989,315.7851
            L340.7966,316.3727L343.5943,315.9810L346.3920,314.3900L349.1897,316.0383L351.9874,312.0644L354.7851,314.3002L357.5829,312.8152L360.3806,314.2838L363.1783,311.3954L365.9760,312.6358
            L368.7737,312.6030L371.5714,315.6221L374.3691,314.6429L377.1669,313.7536L379.9646,312.8803L382.7623,316.1932L385.5600,313.9655L388.3577,312.9866L391.1554,314.5775L393.9531,312.2196
            L396.7509,315.6221L399.5486,314.2593L402.3463,315.7281L405.1440,313.3619L407.9417,316.3075L410.7394,312.9212L413.5371,313.5168L416.3349,317.3519L419.1326,318.0290L421.9303,317.4987
            L424.7280,320.8848L427.5257,320.4197L430.3234,320.4035L433.1211,318.6084L435.9189,323.3979L438.7166,326.8332L441.5143,323.6753L444.3120,325.3480L447.1097,328.1794L449.9074,326.9067
            L452.7051,328.3346L455.5029,328.3427L458.3006,331.9165L461.0983,329.4359L463.8960,334.2174L466.6937,334.2338L469.4914,338.8113L472.2891,334.3153L475.0869,335.9229L477.8846,336.0942
            L480.6823,338.7050L483.4800,339.4965L486.2777,339.3905L489.0754,340.8429L491.8731,343.1276L494.6709,341.3650L497.4686,346.2363L500.2663,347.5744L503.0640,346.6686L505.8617,346.2689
            L508.6594,347.9499L511.4571,350.7729L514.2549,349.6224L517.0526,350.5445L519.8503,351.0258L522.6480,351.9725L525.4457,357.3659L528.2434,356.8109L531.0411,355.9052L533.8389,356.2969
            L536.6366,359.4873L539.4343,360.8173L542.2320,361.1600L545.0297,361.1681L547.8274,363.7302L550.6251,364.9214L553.4229,366.8798L556.2206,367.1408L559.0183,371.0573L561.8160,374.1824
            L564.6137,375.4879L567.4114,377.1362L570.2091,378.2703L573.0069,381.2077L575.8046,381.9176L578.6023,382.9130L581.4000,386.6420L581.4612,386.6072"/>
  </g>
  <g style="fill:none; stroke:#000000; stroke-width:  1.8360; stroke-linecap:butt; stroke-linejoin:miter; stroke-dasharray:none">
   <path d="M91.8000,91.8000L581.4000,91.8000"/>
   <path d="M91.8000,581.4000L581.4000,581.4000"/>
   <path d="M91.8000,91.8000L91.8000,97.9200"/>
   <path d="M91.8000,581.4000L91.8000,575.2800"/>
   <path d="M231.6857,91.8000L231.6857,97.9200"/>
   <path d="M231.6857,581.4000L231.6857,575.2800"/>
   <path d="M371.5714,91.8000L371.5714,97.9200"/>
   <path d="M371.5714,581.4000L371.5714,575.2800"/>
   <path d="M511.4571,91.8000L511.4571,97.9200"/>
   <path d="M511.4571,581.4000L511.4571,575.2800"/>
   <path d="M161.7429,91.8000L161.7429,104.0400"/>
   <path d="M161.7429,581.4000L161.7429,569.1600"/>
   <path d="M301.6286,91.8000L301.6286,104.0400"/>
   <path d="M301.6286,581.4000L301.6286,569.1600"/>
   <path d="M441.5143,91.8000L441.5143,104.0400"/>
   <path d="M441.5143,581.4000L441.5143,569.1600"/>
  </g>
  <g style="fill:#000000; fill-rule:nonzero">
   <text   style="font-family:'Helvetica','Nimbus Sans L'; font-style:normal; font-weight:bold; font-size:612.0000" transform="matrix(0.0364,0.0000,-0.0000,-0.0364,146.7429,69.6800)">0.3</text>
   <text   style="font-family:'Helvetica','Nimbus Sans L'; font-style:normal; font-weight:bold; font-size:612.0000" transform="matrix(0.0364,0.0000,-0.0000,-0.0364,286.1286,69.6800)">0.4</text>
   <text   style="font-family:'Helvetica','Nimbus Sans L'; font-style:normal; font-weight:bold; font-size:612.0000" transform="matrix(0.0364,0.0000,-0.0000,-0.0364,426.5143,69.6800)">0.5</text>
   <text   style="font-family:'Helvetica','Nimbus Sans L'; font-style:normal; font-weight:bold; font-size:612.0000" transform="matrix(0.0367,0.0000,-0.0000,-0.0367,305.1000,47.5600)">r (nm)</text>
  </g>
  <g style="fill:none; stroke:#000000; stroke-width:  1.8360; stroke-linecap:butt; stroke-linejoin:miter; stroke-dasharray:none">
   <path d="M91.8000,91.8000L91.8000,581.4000"/>
   <path d="M581.4000,91.8000L581.4000,581.4000"/>
   <path d="M91.8000,153.0000L97.9200,153.0000"/>
   <path d="M581.4000,153.0000L575.2800,153.0000"/>
   <path d="M91.8000,275.4000L97.9200,275.4000"/>
   <path d="M581.4000,275.4000L575.2800,275.4000"/>
   <path d="M91.8000,397.8000L97.9200,397.8000"/>
   <path d="M581.4000,397.8000L575.2800,397.8000"/>
   <path d="M91.8000,520.2000L97.9200,520.2000"/>
   <path d="M581.4000,520.2000L575.2800,520.2000"/>
   <path d="M91.8000,91.8000L104.0400,91.8000"/>
   <path d="M581.4000,91.8000L569.1600,91.8000"/>
   <path d="M91.8000,214.2000L104.0400,214.2000"/>
   <path d="M581.4000,214.2000L569.1600,214.2000"/>
   <path d="M91.8000,336.6000L104.0400,336.6000"/>
   <path d="M581.4000,336.6000L569.1600,336.6000"/>
   <path d="M91.8000,459.0000L104.0400,459.0000"/>
   <path d="M581.4000,459.0000L569.1600,459.0000"/>
   <path d="M91.8000,581.4000L104.0400,581.4000"/>
   <path d="M581.4000,581.4000L569.1600,581.4000"/>
  </g>
  <g style="fill:#000000; fill-rule:nonzero">
   <text   style="font-family:'Helvetica','Nimbus Sans L'; font-style:normal; font-weight:bold; font-size:612.0000" transform="matrix(0.0364,0.0000,-0.0000,-0.0364,74.6800,83.8000)">0</text>
   <text   style="font-family:'Helvetica','Nimbus Sans L'; font-style:normal; font-weight:bold; font-size:612.0000" transform="matrix(0.0364,0.0000,-0.0000,-0.0364,49.6800,206.2000)">500</text>
   <text   style="font-family:'Helvetica','Nimbus Sans L'; font-style:normal; font-weight:bold; font-size:612.0000" transform="matrix(0.0364,0.0000,-0.0000,-0.0364,37.6800,328.6000)">1000</text>
   <text   style="font-family:'Helvetica','Nimbus Sans L'; font-style:normal; font-weight:bold; font-size:612.0000" transform="matrix(0.0364,0.0000,-0.0000,-0.0364,37.6800,451.0000)">1500</text>
   <text   style="font-family:'Helvetica','Nimbus Sans L'; font-style:normal; font-weight:bold; font-size:612.0000" transform="matrix(0.0364,0.0000,-0.0000,-0.0364,37.6800,573.4000)">2000</text>
   <text   style="font-family:'Helvetica','Nimbus Sans L'; font-style:normal; font-weight:bold; font-size:612.0000" transform="matrix(0.0000,0.0367,0.0367,-0.0000,26.5600,318.1000)">g(r)</text>
  </g>
  <g style="fill:#FFFFFF; fill-rule:nonzero">
   <path  d="M428.4000,550.8000L428.4000,456.2000L564.8570,456.2000L564.8570,550.8000z"/>
  </g>
  <g style="fill:#000000; fill-rule:nonzero">
   <text   style="font-family:'Helvetica','Nimbus Sans L'; font-style:normal; font-weight:bold; font-size:612.0000" transform="matrix(0.0364,0.0000,-0.0000,-0.0364,478.7370,528.6800)">RSGSY</text>
  </g>
  <g style="fill:none; stroke:#0000FF; stroke-width:  2.7540; stroke-linecap:butt; stroke-linejoin:miter; stroke-dasharray:none">
   <path d="M435.8970,536.6800L466.4970,536.6800"/>
  </g>
  <g style="fill:#000000; fill-rule:nonzero">
   <text   style="font-family:'Helvetica','Nimbus Sans L'; font-style:normal; font-weight:bold; font-size:612.0000" transform="matrix(0.0364,0.0000,-0.0000,-0.0364,478.7370,506.5600)">RGSGY</text>
  </g>
  <g style="fill:none; stroke:#00FFFF; stroke-width:  2.7540; stroke-linecap:butt; stroke-linejoin:miter; stroke-dasharray:none">
   <path d="M435.8970,514.5600L466.4970,514.5600"/>
  </g>
  <g style="fill:#000000; fill-rule:nonzero">
   <text   style="font-family:'Helvetica','Nimbus Sans L'; font-style:normal; font-weight:bold; font-size:612.0000" transform="matrix(0.0364,0.0000,-0.0000,-0.0364,478.7370,484.4400)">RGLGY</text>
  </g>
  <g style="fill:none; stroke:#008B00; stroke-width:  2.7540; stroke-linecap:butt; stroke-linejoin:miter; stroke-dasharray:none">
   <path d="M435.8970,492.4400L466.4970,492.4400"/>
  </g>
  <g style="fill:#000000; fill-rule:nonzero">
   <text   style="font-family:'Helvetica','Nimbus Sans L'; font-style:normal; font-weight:bold; font-size:612.0000" transform="matrix(0.0364,0.0000,-0.0000,-0.0364,478.7370,462.3200)">HGLGY</text>
  </g>
  <g style="fill:none; stroke:#FFA500; stroke-width:  2.7540; stroke-linecap:butt; stroke-linejoin:miter; stroke-dasharray:none">
   <path d="M435.8970,470.3200L466.4970,470.3200"/>
  </g>
 </g>
</svg>
