<?xml version="1.0" encoding="ISO-8859-1"?>
<!DOCTYPE svg PUBLIC "-//W3C//DTD SVG 1.0//EN" "http://www.w3.org/TR/2001/REC-SVG-20010904/DTD/svg10.dtd">
<!-- generated by Grace-5.1.25 -->
<svg xml:space="preserve" width="11.0000in" height="8.5000in" viewBox="0.0000 0.0000 792.0000 612.0000">
 <g transform="translate(0,612.0000) scale(1,-1)">
 <desc></desc>
  <g style="fill:#FFFFFF; fill-rule:nonzero">
   <path  d="M0.0000,0.0000L0.0000,612.0000L792.0000,612.0000L792.0000,0.0000z"/>
  </g>
  <g style="fill:none; stroke:#FFA500; stroke-width:  2.7540; stroke-linecap:butt; stroke-linejoin:miter; stroke-dasharray:none">
   <path d="M91.7388,99.7231L91.8000,99.8125L94.5977,106.6584L97.3954,118.0164L100.1931,130.7533L102.9909,148.5980L105.7886,168.4743L108.5863,188.9464L111.3840,211.0095L114.1817,231.2452
            L116.9794,250.2811L119.7771,266.6163L122.5749,280.9687L125.3726,289.2833L128.1703,299.9150L130.9680,301.2044L133.7657,301.6856L136.5634,301.7101L139.3611,299.5723L142.1589,296.0719
            L144.9566,288.7773L147.7543,281.5482L150.5520,275.8529L153.3497,270.4758L156.1474,261.6799L158.9451,255.2419L161.7429,247.4825L164.5406,242.6766L167.3383,236.7852L170.1360,233.0565
            L172.9337,227.6305L175.7314,224.5952L178.5291,219.9034L181.3269,218.6142L184.1246,218.3533L186.9223,215.9626L189.7200,214.6162L192.5177,215.6360L195.3154,213.3922L198.1131,214.5508
            L200.9109,214.2490L203.7086,213.9797L206.5063,215.4646L209.3040,215.7258L212.1017,218.1491L214.8994,215.4810L217.6971,215.5545L220.4949,217.3822L223.2926,218.3450L226.0903,219.0385
            L228.8880,217.3332L231.6857,216.5582L234.4834,218.6306L237.2811,219.4955L240.0789,218.7856L242.8766,217.1293L245.6743,216.9743L248.4720,217.0314L251.2697,217.0967L254.0674,215.8074
            L256.8651,215.7829L259.6629,215.1464L262.4606,213.5390L265.2583,213.9471L268.0560,213.6208L270.8537,210.6751L273.6514,209.9980L276.4491,211.4176L279.2469,211.0342L282.0446,209.5246
            L284.8423,207.7214L287.6400,207.9906L290.4377,206.6036L293.2354,205.5510L296.0331,207.0359L298.8309,204.5882L301.6286,205.8611L304.4263,205.3142L307.2240,203.9598L310.0217,204.9963
            L312.8194,202.6787L315.6171,203.4785L318.4149,203.8863L321.2126,205.3960L324.0103,204.1884L326.8080,205.9427L329.6057,206.6606L332.4034,206.6036L335.2011,208.5701L337.9989,207.6234
            L340.7966,206.9135L343.5943,207.2891L346.3920,208.8800L349.1897,208.9615L351.9874,211.2952L354.7851,211.9642L357.5829,213.0005L360.3806,212.7721L363.1783,213.5963L365.9760,214.8365
            L368.7737,214.7305L371.5714,218.1736L374.3691,218.4348L377.1669,219.3650L379.9646,221.0375L382.7623,221.1844L385.5600,223.0285L388.3577,225.0030L391.1554,224.7012L393.9531,229.0909
            L396.7509,228.1365L399.5486,230.4537L402.3463,230.2334L405.1440,233.2687L407.9417,232.7872L410.7394,234.9904L413.5371,236.6467L416.3349,237.2178L419.1326,238.0582L421.9303,239.2903
            L424.7280,241.9094L427.5257,241.3466L430.3234,242.2440L433.1211,245.4671L435.9189,245.6301L438.7166,245.6629L441.5143,247.6211L444.3120,246.4950L447.1097,249.7915L449.9074,250.1425
            L452.7051,250.6402L455.5029,249.8568L458.3006,249.1714L461.0983,254.4179L463.8960,255.5440L466.6937,255.4623L469.4914,255.3643L472.2891,255.9927L475.0869,257.6980L477.8846,259.7299
            L480.6823,261.0271L483.4800,262.2185L486.2777,258.2611L489.0754,260.6192L491.8731,261.4432L494.6709,260.9211L497.4686,264.3561L500.2663,265.4251L503.0640,265.3108L505.8617,265.8494
            L508.6594,266.8041L511.4571,265.6127L514.2549,268.2971L517.0526,267.6690L519.8503,268.4604L522.6480,269.2927L525.4457,269.8066L528.2434,272.2710L531.0411,270.0188L533.8389,270.9571
            L536.6366,270.5574L539.4343,273.3072L542.2320,273.9762L545.0297,275.3878L547.8274,275.5102L550.6251,276.7014L553.4229,276.7912L556.2206,279.2879L559.0183,279.6551L561.8160,280.2671
            L564.6137,282.9271L567.4114,281.0994L570.2091,283.0904L573.0069,283.7350L575.8046,285.9298L578.6023,288.4265L581.4000,288.7529L581.4612,288.7762"/>
  </g>
  <g style="fill:none; stroke:#008B00; stroke-width:  2.7540; stroke-linecap:butt; stroke-linejoin:miter; stroke-dasharray:none">
   <path d="M91.7388,99.5028L91.8000,99.5922L94.5977,106.5769L97.3954,115.8376L100.1931,128.6480L102.9909,146.1992L105.7886,166.3529L108.5863,185.4786L111.3840,204.7270L114.1817,227.1979
            L116.9794,245.1897L119.7771,259.3952L122.5749,275.4448L125.3726,284.0938L128.1703,293.2895L130.9680,299.6785L133.7657,301.4408L136.5634,299.3520L139.3611,296.7818L142.1589,291.7394
            L144.9566,289.8953L147.7543,282.4456L150.5520,273.6742L153.3497,267.8729L156.1474,262.1206L158.9451,254.5567L161.7429,247.4497L164.5406,240.5307L167.3383,237.1524L170.1360,231.4981
            L172.9337,228.3485L175.7314,223.2816L178.5291,218.1819L181.3269,216.1092L184.1246,216.2561L186.9223,214.6815L189.7200,211.8174L192.5177,210.4629L195.3154,209.8183L198.1131,212.8210
            L200.9109,211.1647L203.7086,213.4656L206.5063,209.9488L209.3040,211.5236L212.1017,214.2409L214.8994,212.9109L217.6971,213.0903L220.4949,212.7150L223.2926,214.7305L226.0903,215.4566
            L228.8880,214.5998L231.6857,216.5173L234.4834,217.6189L237.2811,216.8355L240.0789,216.7295L242.8766,216.4030L245.6743,216.0360L248.4720,215.8157L251.2697,215.9626L254.0674,213.8654
            L256.8651,213.4411L259.6629,212.3314L262.4606,212.0377L265.2583,210.9363L268.0560,210.7160L270.8537,212.1601L273.6514,209.4186L276.4491,209.4022L279.2469,207.5990L282.0446,206.8890
            L284.8423,205.8038L287.6400,206.3099L290.4377,204.0822L293.2354,204.1884L296.0331,204.9718L298.8309,204.2455L301.6286,203.8212L304.4263,204.1720L307.2240,203.9353L310.0217,203.7069
            L312.8194,203.9762L315.6171,203.0868L318.4149,204.9064L321.2126,205.2653L324.0103,204.1801L326.8080,203.7803L329.6057,205.3877L332.4034,204.6535L335.2011,205.7713L337.9989,206.2364
            L340.7966,206.1710L343.5943,207.9662L346.3920,207.8438L349.1897,209.3126L351.9874,209.7858L354.7851,211.6950L357.5829,212.0786L360.3806,213.2781L363.1783,214.5346L365.9760,212.5926
            L368.7737,215.3912L371.5714,215.9870L374.3691,218.1900L377.1669,218.7611L379.9646,221.7558L382.7623,221.4701L385.5600,223.6730L388.3577,223.1102L391.1554,225.2072L393.9531,225.5661
            L396.7509,227.9568L399.5486,228.7727L402.3463,229.0993L405.1440,231.3022L407.9417,231.6285L410.7394,233.5541L413.5371,232.8361L416.3349,234.6966L419.1326,235.9532L421.9303,238.4173
            L424.7280,239.5432L427.5257,238.9395L430.3234,241.6240L433.1211,240.9221L435.9189,241.4117L438.7166,242.4888L441.5143,242.4154L444.3120,244.9040L447.1097,246.2176L449.9074,246.1606
            L452.7051,249.0081L455.5029,249.8243L458.3006,250.6074L461.0983,249.2529L463.8960,252.0681L466.6937,251.4480L469.4914,254.9075L472.2891,253.5940L475.0869,254.3364L477.8846,254.7281
            L480.6823,257.2574L483.4800,257.9673L486.2777,259.7299L489.0754,260.0723L491.8731,260.7578L494.6709,260.3091L497.4686,260.4151L500.2663,260.8885L503.0640,263.1079L505.8617,263.5240
            L508.6594,262.8467L511.4571,263.4587L514.2549,265.8983L517.0526,266.6653L519.8503,267.0650L522.6480,268.0198L525.4457,266.0207L528.2434,268.2726L531.0411,268.3055L533.8389,267.1385
            L536.6366,268.4034L539.4343,271.1938L542.2320,271.1204L545.0297,272.2465L547.8274,274.2781L550.6251,273.9843L553.4229,277.4277L556.2206,275.7550L559.0183,278.6027L561.8160,279.9408
            L564.6137,278.9126L567.4114,280.6262L570.2091,281.0177L573.0069,284.2081L575.8046,284.0204L578.6023,284.5183L581.4000,286.4356L581.4612,286.4327"/>
  </g>
  <g style="fill:none; stroke:#00FFFF; stroke-width:  2.7540; stroke-linecap:butt; stroke-linejoin:miter; stroke-dasharray:none">
   <path d="M91.7388,99.5054L91.8000,99.5842L94.5977,106.4136L97.3954,117.4452L100.1931,129.9700L102.9909,145.4893L105.7886,167.0302L108.5863,186.7435L111.3840,208.3089L114.1817,229.2951
            L116.9794,246.7153L119.7771,263.0016L122.5749,277.1258L125.3726,287.6760L128.1703,295.0846L130.9680,302.6240L133.7657,305.8551L136.5634,304.5985L139.3611,302.6648L142.1589,299.1236
            L144.9566,293.4853L147.7543,287.5127L150.5520,279.0514L153.3497,275.3797L156.1474,268.3706L158.9451,262.3490L161.7429,255.2339L164.5406,251.6520L167.3383,244.5449L170.1360,239.3148
            L172.9337,235.1128L175.7314,234.8352L178.5291,231.9304L181.3269,229.3113L184.1246,230.1110L186.9223,229.1889L189.7200,227.1898L192.5177,227.8263L195.3154,229.0503L198.1131,228.8217
            L200.9109,229.1889L203.7086,231.3676L206.5063,231.3267L209.3040,232.2731L212.1017,232.0041L214.8994,233.4237L217.6971,233.7745L220.4949,235.3821L223.2926,235.8224L226.0903,235.4146
            L228.8880,235.9448L231.6857,236.0183L234.4834,237.2668L237.2811,235.4310L240.0789,238.1397L242.8766,236.4100L245.6743,234.1581L248.4720,234.7617L251.2697,233.2114L254.0674,232.0937
            L256.8651,232.5179L259.6629,231.9142L262.4606,229.2542L265.2583,228.8545L268.0560,226.5697L270.8537,228.4709L273.6514,225.8679L276.4491,225.6804L279.2469,224.2689L282.0446,222.7592
            L284.8423,222.0901L287.6400,222.3594L290.4377,219.0794L293.2354,219.3567L296.0331,217.3741L298.8309,217.3577L301.6286,217.8064L304.4263,217.8147L307.2240,215.1464L310.0217,216.7702
            L312.8194,217.2678L315.6171,216.3868L318.4149,216.8191L321.2126,215.5219L324.0103,215.2198L326.8080,217.0967L329.6057,216.0277L332.4034,215.8563L335.2011,217.0150L337.9989,217.6350
            L340.7966,217.1538L343.5943,219.1773L346.3920,217.4230L349.1897,220.2216L351.9874,220.2870L354.7851,221.9922L357.5829,222.5962L360.3806,221.9026L363.1783,223.4121L365.9760,224.2116
            L368.7737,225.4601L371.5714,227.6224L374.3691,228.9360L377.1669,230.0537L379.9646,232.9913L382.7623,231.8408L385.5600,234.2724L388.3577,234.3049L391.1554,237.2587L393.9531,241.4771
            L396.7509,241.5505L399.5486,242.5133L402.3463,242.8641L405.1440,244.2022L407.9417,245.8832L410.7394,248.1922L413.5371,249.4896L416.3349,249.2123L419.1326,252.3291L421.9303,253.1369
            L424.7280,253.3492L427.5257,253.0226L430.3234,253.6510L433.1211,254.5484L435.9189,256.6863L438.7166,259.7705L441.5143,258.9791L444.3120,259.1095L447.1097,259.4197L449.9074,261.7125
            L452.7051,259.9174L455.5029,261.8758L458.3006,263.2139L461.0983,265.4986L463.8960,263.0670L466.6937,263.2219L469.4914,264.4295L472.2891,267.5711L475.0869,266.2085L477.8846,268.1666
            L480.6823,266.6327L483.4800,266.2817L486.2777,267.9299L489.0754,269.6435L491.8731,268.8602L494.6709,271.5202L497.4686,269.4558L500.2663,270.6144L503.0640,270.9246L505.8617,272.0832
            L508.6594,271.9444L511.4571,271.3407L514.2549,271.6181L517.0526,274.8411L519.8503,274.7432L522.6480,273.7885L525.4457,273.5356L528.2434,276.1222L531.0411,275.2083L533.8389,275.0776
            L536.6366,277.9009L539.4343,276.2526L542.2320,280.0142L545.0297,279.1166L547.8274,280.7158L550.6251,281.5482L553.4229,280.3486L556.2206,281.8419L559.0183,282.8701L561.8160,282.6659
            L564.6137,285.5217L567.4114,285.0405L570.2091,285.6116L573.0069,287.8554L575.8046,288.3286L578.6023,290.7847L581.4000,294.0484L581.4612,293.9747"/>
  </g>
  <g style="fill:none; stroke:#0000FF; stroke-width:  2.7540; stroke-linecap:butt; stroke-linejoin:miter; stroke-dasharray:none">
   <path d="M91.7388,100.0967L91.8000,100.1962L94.5977,106.7399L97.3954,116.5804L100.1931,130.0924L102.9909,147.1375L105.7886,167.3565L108.5863,189.0772L111.3840,207.8274L114.1817,229.3441
            L116.9794,249.6691L119.7771,265.8658L122.5749,282.0214L125.3726,290.8907L128.1703,302.2078L130.9680,306.1652L133.7657,310.1144L136.5634,310.9303L139.3611,311.9014L142.1589,305.1290
            L144.9566,299.2704L147.7543,295.5497L150.5520,290.0503L153.3497,282.0133L156.1474,278.0397L158.9451,268.4359L161.7429,262.4305L164.5406,257.2329L167.3383,250.2811L170.1360,247.8333
            L172.9337,241.5096L175.7314,240.0166L178.5291,236.4509L181.3269,235.7003L184.1246,232.0447L186.9223,231.0249L189.7200,230.3230L192.5177,230.0212L195.3154,230.2006L198.1131,231.2288
            L200.9109,231.5389L203.7086,229.8253L206.5063,234.3375L209.3040,232.1590L212.1017,236.0021L214.8994,234.1417L217.6971,236.4183L220.4949,236.8261L223.2926,237.0709L226.0903,236.2305
            L228.8880,235.5776L231.6857,237.4056L234.4834,236.8996L237.2811,238.0176L240.0789,235.7573L242.8766,239.0293L245.6743,236.0021L248.4720,236.1735L251.2697,235.8224L254.0674,234.9086
            L256.8651,232.9260L259.6629,235.3982L262.4606,233.8562L265.2583,231.3837L268.0560,232.0447L270.8537,230.1272L273.6514,229.8579L276.4491,229.1889L279.2469,228.0057L282.0446,228.0956
            L284.8423,226.1127L287.6400,227.0104L290.4377,225.7783L293.2354,226.1617L296.0331,224.7012L298.8309,224.9785L301.6286,224.2933L304.4263,224.6605L307.2240,224.1790L310.0217,223.9097
            L312.8194,223.8037L315.6171,224.4809L318.4149,223.7873L321.2126,226.4637L324.0103,226.3494L326.8080,226.9450L329.6057,225.6233L332.4034,227.3448L335.2011,227.6549L337.9989,229.9477
            L340.7966,230.2905L343.5943,229.6540L346.3920,231.8817L349.1897,231.5225L351.9874,234.9495L354.7851,237.3566L357.5829,237.9441L360.3806,238.3194L363.1783,241.2242L365.9760,245.0509
            L368.7737,245.2059L371.5714,245.9648L374.3691,247.8497L377.1669,250.7543L379.9646,253.0390L382.7623,255.9683L385.5600,258.5384L388.3577,263.1730L391.1554,262.2102L393.9531,264.3970
            L396.7509,267.1630L399.5486,268.6643L402.3463,271.8793L405.1440,276.0977L407.9417,275.1838L410.7394,277.6480L413.5371,280.7322L416.3349,282.6659L419.1326,282.8537L421.9303,284.0368
            L424.7280,283.7185L427.5257,286.0358L430.3234,287.5291L433.1211,288.4346L435.9189,288.5081L438.7166,291.5272L441.5143,291.1519L444.3120,294.3747L447.1097,291.1845L449.9074,294.5216
            L452.7051,291.9923L455.5029,296.1209L458.3006,294.4401L461.0983,295.0357L463.8960,293.8689L466.6937,296.4555L469.4914,295.8761L472.2891,296.5289L475.0869,293.0611L477.8846,296.6513
            L480.6823,293.2653L483.4800,297.6631L486.2777,296.0068L489.0754,296.9125L491.8731,299.4092L494.6709,298.5444L497.4686,297.3368L500.2663,297.7040L503.0640,297.3040L505.8617,299.5072
            L508.6594,297.0102L511.4571,297.7529L514.2549,300.9757L517.0526,299.3030L519.8503,296.9857L522.6480,298.6913L525.4457,299.9559L528.2434,301.0166L531.0411,299.2053L533.8389,299.7926
            L536.6366,299.4988L539.4343,301.2859L542.2320,301.6612L545.0297,301.0085L547.8274,305.2923L550.6251,306.1978L553.4229,304.5660L556.2206,305.2350L559.0183,307.9114L561.8160,306.0184
            L564.6137,306.6793L567.4114,307.3158L570.2091,309.2414L573.0069,311.2568L575.8046,312.1379L578.6023,312.8478L581.4000,311.8769L581.4612,311.9344"/>
  </g>
  <g style="fill:none; stroke:#000000; stroke-width:  1.8360; stroke-linecap:butt; stroke-linejoin:miter; stroke-dasharray:none">
   <path d="M91.8000,91.8000L581.4000,91.8000"/>
   <path d="M91.8000,581.4000L581.4000,581.4000"/>
   <path d="M91.8000,91.8000L91.8000,97.9200"/>
   <path d="M91.8000,581.4000L91.8000,575.2800"/>
   <path d="M231.6857,91.8000L231.6857,97.9200"/>
   <path d="M231.6857,581.4000L231.6857,575.2800"/>
   <path d="M371.5714,91.8000L371.5714,97.9200"/>
   <path d="M371.5714,581.4000L371.5714,575.2800"/>
   <path d="M511.4571,91.8000L511.4571,97.9200"/>
   <path d="M511.4571,581.4000L511.4571,575.2800"/>
   <path d="M161.7429,91.8000L161.7429,104.0400"/>
   <path d="M161.7429,581.4000L161.7429,569.1600"/>
   <path d="M301.6286,91.8000L301.6286,104.0400"/>
   <path d="M301.6286,581.4000L301.6286,569.1600"/>
   <path d="M441.5143,91.8000L441.5143,104.0400"/>
   <path d="M441.5143,581.4000L441.5143,569.1600"/>
  </g>
  <g style="fill:#000000; fill-rule:nonzero">
   <text   style="font-family:'Helvetica','Nimbus Sans L'; font-style:normal; font-weight:bold; font-size:612.0000" transform="matrix(0.0364,0.0000,-0.0000,-0.0364,146.7429,69.6800)">0.3</text>
   <text   style="font-family:'Helvetica','Nimbus Sans L'; font-style:normal; font-weight:bold; font-size:612.0000" transform="matrix(0.0364,0.0000,-0.0000,-0.0364,286.1286,69.6800)">0.4</text>
   <text   style="font-family:'Helvetica','Nimbus Sans L'; font-style:normal; font-weight:bold; font-size:612.0000" transform="matrix(0.0364,0.0000,-0.0000,-0.0364,426.5143,69.6800)">0.5</text>
   <text   style="font-family:'Helvetica','Nimbus Sans L'; font-style:normal; font-weight:bold; font-size:612.0000" transform="matrix(0.0367,0.0000,-0.0000,-0.0367,305.1000,47.5600)">r (nm)</text>
  </g>
  <g style="fill:none; stroke:#000000; stroke-width:  1.8360; stroke-linecap:butt; stroke-linejoin:miter; stroke-dasharray:none">
   <path d="M91.8000,91.8000L91.8000,581.4000"/>
   <path d="M581.4000,91.8000L581.4000,581.4000"/>
   <path d="M91.8000,153.0000L97.9200,153.0000"/>
   <path d="M581.4000,153.0000L575.2800,153.0000"/>
   <path d="M91.8000,275.4000L97.9200,275.4000"/>
   <path d="M581.4000,275.4000L575.2800,275.4000"/>
   <path d="M91.8000,397.8000L97.9200,397.8000"/>
   <path d="M581.4000,397.8000L575.2800,397.8000"/>
   <path d="M91.8000,520.2000L97.9200,520.2000"/>
   <path d="M581.4000,520.2000L575.2800,520.2000"/>
   <path d="M91.8000,91.8000L104.0400,91.8000"/>
   <path d="M581.4000,91.8000L569.1600,91.8000"/>
   <path d="M91.8000,214.2000L104.0400,214.2000"/>
   <path d="M581.4000,214.2000L569.1600,214.2000"/>
   <path d="M91.8000,336.6000L104.0400,336.6000"/>
   <path d="M581.4000,336.6000L569.1600,336.6000"/>
   <path d="M91.8000,459.0000L104.0400,459.0000"/>
   <path d="M581.4000,459.0000L569.1600,459.0000"/>
   <path d="M91.8000,581.4000L104.0400,581.4000"/>
   <path d="M581.4000,581.4000L569.1600,581.4000"/>
  </g>
  <g style="fill:#000000; fill-rule:nonzero">
   <text   style="font-family:'Helvetica','Nimbus Sans L'; font-style:normal; font-weight:bold; font-size:612.0000" transform="matrix(0.0364,0.0000,-0.0000,-0.0364,74.6800,83.8000)">0</text>
   <text   style="font-family:'Helvetica','Nimbus Sans L'; font-style:normal; font-weight:bold; font-size:612.0000" transform="matrix(0.0364,0.0000,-0.0000,-0.0364,49.6800,206.2000)">500</text>
   <text   style="font-family:'Helvetica','Nimbus Sans L'; font-style:normal; font-weight:bold; font-size:612.0000" transform="matrix(0.0364,0.0000,-0.0000,-0.0364,37.6800,328.6000)">1000</text>
   <text   style="font-family:'Helvetica','Nimbus Sans L'; font-style:normal; font-weight:bold; font-size:612.0000" transform="matrix(0.0364,0.0000,-0.0000,-0.0364,37.6800,451.0000)">1500</text>
   <text   style="font-family:'Helvetica','Nimbus Sans L'; font-style:normal; font-weight:bold; font-size:612.0000" transform="matrix(0.0364,0.0000,-0.0000,-0.0364,37.6800,573.4000)">2000</text>
   <text   style="font-family:'Helvetica','Nimbus Sans L'; font-style:normal; font-weight:bold; font-size:612.0000" transform="matrix(0.0000,0.0367,0.0367,-0.0000,26.5600,318.1000)">g(r)</text>
  </g>
  <g style="fill:#FFFFFF; fill-rule:nonzero">
   <path  d="M428.4000,550.8000L428.4000,456.2000L564.8570,456.2000L564.8570,550.8000z"/>
  </g>
  <g style="fill:#000000; fill-rule:nonzero">
   <text   style="font-family:'Helvetica','Nimbus Sans L'; font-style:normal; font-weight:bold; font-size:612.0000" transform="matrix(0.0364,0.0000,-0.0000,-0.0364,478.7370,528.6800)">RSGSY</text>
  </g>
  <g style="fill:none; stroke:#0000FF; stroke-width:  2.7540; stroke-linecap:butt; stroke-linejoin:miter; stroke-dasharray:none">
   <path d="M435.8970,536.6800L466.4970,536.6800"/>
  </g>
  <g style="fill:#000000; fill-rule:nonzero">
   <text   style="font-family:'Helvetica','Nimbus Sans L'; font-style:normal; font-weight:bold; font-size:612.0000" transform="matrix(0.0364,0.0000,-0.0000,-0.0364,478.7370,506.5600)">RGSGY</text>
  </g>
  <g style="fill:none; stroke:#00FFFF; stroke-width:  2.7540; stroke-linecap:butt; stroke-linejoin:miter; stroke-dasharray:none">
   <path d="M435.8970,514.5600L466.4970,514.5600"/>
  </g>
  <g style="fill:#000000; fill-rule:nonzero">
   <text   style="font-family:'Helvetica','Nimbus Sans L'; font-style:normal; font-weight:bold; font-size:612.0000" transform="matrix(0.0364,0.0000,-0.0000,-0.0364,478.7370,484.4400)">RGLGY</text>
  </g>
  <g style="fill:none; stroke:#008B00; stroke-width:  2.7540; stroke-linecap:butt; stroke-linejoin:miter; stroke-dasharray:none">
   <path d="M435.8970,492.4400L466.4970,492.4400"/>
  </g>
  <g style="fill:#000000; fill-rule:nonzero">
   <text   style="font-family:'Helvetica','Nimbus Sans L'; font-style:normal; font-weight:bold; font-size:612.0000" transform="matrix(0.0364,0.0000,-0.0000,-0.0364,478.7370,462.3200)">HGLGY</text>
  </g>
  <g style="fill:none; stroke:#FFA500; stroke-width:  2.7540; stroke-linecap:butt; stroke-linejoin:miter; stroke-dasharray:none">
   <path d="M435.8970,470.3200L466.4970,470.3200"/>
  </g>
 </g>
</svg>
