<?xml version="1.0" encoding="ISO-8859-1"?>
<!DOCTYPE svg PUBLIC "-//W3C//DTD SVG 1.0//EN" "http://www.w3.org/TR/2001/REC-SVG-20010904/DTD/svg10.dtd">
<!-- generated by Grace-5.1.25 -->
<svg xml:space="preserve" width="11.0000in" height="8.5000in" viewBox="0.0000 0.0000 792.0000 612.0000">
 <g transform="translate(0,612.0000) scale(1,-1)">
 <desc></desc>
  <g style="fill:#FFFFFF; fill-rule:nonzero">
   <path  d="M0.0000,0.0000L0.0000,612.0000L792.0000,612.0000L792.0000,0.0000z"/>
  </g>
  <g style="fill:none; stroke:#FFA500; stroke-width:  2.7540; stroke-linecap:butt; stroke-linejoin:miter; stroke-dasharray:none">
   <path d="M91.7388,105.7342L91.8000,105.8914L94.5977,117.8940L97.3954,133.4214L100.1931,155.2806L102.9909,181.7253L105.7886,209.3941L108.5863,240.9711L111.3840,269.3906L114.1817,297.4753
            L116.9794,323.5693L119.7771,346.8238L122.5749,364.0320L125.3726,383.0028L128.1703,393.6754L130.9680,402.8874L133.7657,405.0987L136.5634,404.0706L139.3611,405.3841L142.1589,398.7831
            L144.9566,392.6472L147.7543,383.7208L150.5520,378.0091L153.3497,364.8888L156.1474,354.9017L158.9451,347.1991L161.7429,338.4522L164.5406,331.5982L167.3383,322.0109L170.1360,319.6121
            L172.9337,318.7063L175.7314,315.2466L178.5291,311.5587L181.3269,313.4598L184.1246,313.5252L186.9223,316.3482L189.7200,317.9149L192.5177,323.7162L195.3154,324.5076L198.1131,332.1285
            L200.9109,337.3750L203.7086,340.9817L206.5063,345.3469L209.3040,349.7857L212.1017,357.9125L214.8994,363.7383L217.6971,372.1589L220.4949,375.4635L223.2926,377.6992L226.0903,385.9076
            L228.8880,389.6283L231.6857,393.3165L234.4834,397.3880L237.2811,396.4903L240.0789,402.9528L242.8766,404.7966L245.6743,405.0334L248.4720,406.8855L251.2697,403.0343L254.0674,404.3234
            L256.8651,404.9435L259.6629,400.8150L262.4606,399.8032L265.2583,398.2203L268.0560,394.4668L270.8537,396.0661L273.6514,389.4734L276.4491,388.4697L279.2469,386.5847L282.0446,381.8197
            L284.8423,381.6403L287.6400,374.9739L290.4377,371.0167L293.2354,366.8553L296.0331,362.0249L298.8309,362.7429L301.6286,358.3693L304.4263,359.6097L307.2240,353.4085L310.0217,349.1981
            L312.8194,348.2679L315.6171,345.2899L318.4149,344.1068L321.2126,338.6316L324.0103,339.5374L326.8080,331.8920L329.6057,334.5765L332.4034,329.3870L335.2011,325.8131L337.9989,325.7725
            L340.7966,324.6790L343.5943,320.5666L346.3920,319.4814L349.1897,318.9673L351.9874,314.7489L354.7851,318.0045L357.5829,313.2069L360.3806,311.1834L363.1783,312.1298L365.9760,309.3310
            L368.7737,307.1934L371.5714,308.6130L374.3691,306.7447L377.1669,306.7528L379.9646,302.1263L382.7623,305.8715L385.5600,304.9006L388.3577,302.6729L391.1554,302.4200L393.9531,304.9412
            L396.7509,302.2732L399.5486,300.5924L402.3463,299.1236L405.1440,299.8090L407.9417,298.8788L410.7394,300.5434L413.5371,299.5806L416.3349,299.0256L419.1326,296.1453L421.9303,296.4146
            L424.7280,299.4827L427.5257,297.9813L430.3234,299.9314L433.1211,299.1236L435.9189,298.4056L438.7166,299.5478L441.5143,298.9522L444.3120,302.7708L447.1097,300.0374L449.9074,302.5669
            L452.7051,302.2406L455.5029,301.7427L458.3006,301.3512L461.0983,305.4144L463.8960,303.7500L466.6937,305.4879L469.4914,303.0974L472.2891,306.9976L475.0869,308.5560L477.8846,309.9920
            L480.6823,308.1072L483.4800,310.9876L486.2777,314.1859L489.0754,316.0219L491.8731,314.9041L494.6709,317.6863L497.4686,316.0789L500.2663,315.3445L503.0640,321.4153L505.8617,322.8104
            L508.6594,321.0236L511.4571,325.9600L514.2549,325.5032L517.0526,327.3879L519.8503,328.9708L522.6480,332.5040L525.4457,332.3246L528.2434,335.9310L531.0411,334.7153L533.8389,337.4323
            L536.6366,341.3080L539.4343,342.1729L542.2320,344.7594L545.0297,347.3379L547.8274,348.8554L550.6251,352.3722L553.4229,355.6442L556.2206,356.4846L559.0183,360.0095L561.8160,362.0984
            L564.6137,363.9096L567.4114,365.7863L570.2091,369.3031L573.0069,370.6495L575.8046,370.4372L578.6023,375.7736L581.4000,377.4219L581.4612,377.5063"/>
  </g>
  <g style="fill:none; stroke:#008B00; stroke-width:  2.7540; stroke-linecap:butt; stroke-linejoin:miter; stroke-dasharray:none">
   <path d="M91.7388,105.0251L91.8000,105.1734L94.5977,115.3238L97.3954,129.7252L100.1931,148.7121L102.9909,171.5505L105.7886,198.7869L108.5863,230.3394L111.3840,259.7135L114.1817,291.1110
            L116.9794,324.3037L119.7771,354.8200L122.5749,380.2123L125.3726,401.1658L128.1703,414.6941L130.9680,422.6088L133.7657,424.5833L136.5634,426.8027L139.3611,418.6188L142.1589,411.3325
            L144.9566,396.3434L147.7543,385.9891L150.5520,370.9677L153.3497,355.6033L156.1474,342.4177L158.9451,329.6891L161.7429,317.1151L164.5406,307.8624L167.3383,299.5968L170.1360,291.2905
            L172.9337,289.8545L175.7314,284.5998L178.5291,286.9252L181.3269,284.5834L184.1246,285.3342L186.9223,286.5744L189.7200,288.9977L192.5177,294.7338L195.3154,297.1980L198.1131,303.2279
            L200.9109,311.9340L203.7086,314.6020L206.5063,320.5095L209.3040,325.5603L212.1017,332.5530L214.8994,337.6362L217.6971,344.8573L220.4949,349.2799L223.2926,356.3541L226.0903,362.7510
            L228.8880,368.4708L231.6857,374.0439L234.4834,377.1768L237.2811,378.6375L240.0789,379.5923L242.8766,384.6185L245.6743,385.3201L248.4720,385.7933L251.2697,383.6229L254.0674,382.7825
            L256.8651,386.3891L259.6629,381.7137L262.4606,379.7308L265.2583,378.4336L268.0560,374.4192L270.8537,374.2804L273.6514,372.2243L276.4491,371.2860L279.2469,365.7863L282.0446,362.1145
            L284.8423,360.3197L287.6400,356.5172L290.4377,354.6976L293.2354,351.1401L296.0331,349.8836L298.8309,344.5717L301.6286,338.7540L304.4263,337.5302L307.2240,338.5826L310.0217,333.0670
            L312.8194,333.1811L315.6171,327.9429L318.4149,327.0046L321.2126,323.7571L324.0103,324.0670L326.8080,316.6094L329.6057,319.1631L332.4034,316.0138L335.2011,312.4155L337.9989,310.6693
            L340.7966,310.8162L343.5943,308.4336L346.3920,306.7934L349.1897,307.8054L351.9874,303.4888L354.7851,300.5189L357.5829,300.6658L360.3806,300.5924L363.1783,299.7192L365.9760,297.8180
            L368.7737,298.8707L371.5714,297.6956L374.3691,296.2026L377.1669,295.9904L379.9646,295.8925L382.7623,295.3948L385.5600,292.0004L388.3577,291.9514L391.1554,291.5761L393.9531,291.7311
            L396.7509,291.4293L399.5486,292.4900L402.3463,292.2452L405.1440,289.4628L407.9417,289.4873L410.7394,291.6415L413.5371,291.2579L416.3349,291.5925L419.1326,289.2508L421.9303,291.7394
            L424.7280,291.7394L427.5257,291.7639L430.3234,290.9886L433.1211,290.1482L435.9189,292.2371L438.7166,290.8253L441.5143,293.2161L444.3120,293.0775L447.1097,292.5145L449.9074,294.6195
            L452.7051,298.5280L455.5029,294.9377L458.3006,295.9740L461.0983,296.4881L463.8960,297.2550L466.6937,299.3520L469.4914,299.6947L472.2891,301.7101L475.0869,298.9116L477.8846,298.5689
            L480.6823,301.7916L483.4800,304.1253L486.2777,303.9133L489.0754,304.5496L491.8731,307.1934L494.6709,308.0828L497.4686,307.6830L500.2663,308.2703L503.0640,312.5460L505.8617,311.0365
            L508.6594,311.7952L511.4571,312.2848L514.2549,314.9367L517.0526,315.8015L519.8503,316.9438L522.6480,315.3773L525.4457,319.4814L528.2434,320.8197L531.0411,323.3164L533.8389,326.4090
            L536.6366,321.8231L539.4343,327.7471L542.2320,331.4922L545.0297,331.3454L547.8274,334.5520L550.6251,334.4460L553.4229,339.6189L556.2206,339.4233L559.0183,344.1638L561.8160,343.6987
            L564.6137,343.9271L567.4114,347.9335L570.2091,353.0004L573.0069,354.8445L575.8046,356.2888L578.6023,357.4149L581.4000,356.6234L581.4612,356.7243"/>
  </g>
  <g style="fill:none; stroke:#00FFFF; stroke-width:  2.7540; stroke-linecap:butt; stroke-linejoin:miter; stroke-dasharray:none">
   <path d="M91.7388,105.3100L91.8000,105.4589L94.5977,116.4252L97.3954,133.1685L100.1931,155.0032L102.9909,181.3664L105.7886,212.3885L108.5863,247.8823L111.3840,285.5381L114.1817,325.8131
            L116.9794,365.6232L119.7771,403.0098L122.5749,432.1146L125.3726,459.9628L128.1703,479.3333L130.9680,485.4856L133.7657,490.6832L136.5634,488.6842L139.3611,479.6435L142.1589,468.5873
            L144.9566,453.8350L147.7543,436.8796L150.5520,421.1074L153.3497,401.2637L156.1474,387.7517L158.9451,372.8199L161.7429,358.0430L164.5406,349.2309L167.3383,336.8938L170.1360,329.7216
            L172.9337,321.6927L175.7314,317.1886L178.5291,316.2177L181.3269,310.8977L184.1246,311.0772L186.9223,310.4245L189.7200,309.3883L192.5177,311.3628L195.3154,312.3665L198.1131,315.1489
            L200.9109,316.8542L203.7086,317.4334L206.5063,326.5884L209.3040,327.1515L212.1017,330.8722L214.8994,332.6754L217.6971,336.4776L220.4949,341.2671L223.2926,341.5364L226.0903,346.1629
            L228.8880,347.1665L231.6857,348.7413L234.4834,350.2182L237.2811,350.8545L240.0789,351.6461L242.8766,351.4013L245.6743,350.0469L248.4720,348.6924L251.2697,349.1166L254.0674,348.5291
            L256.8651,345.0368L259.6629,346.9217L262.4606,343.6417L265.2583,341.5202L268.0560,339.7986L270.8537,336.8122L273.6514,333.5728L276.4491,332.5285L279.2469,331.8350L282.0446,330.9537
            L284.8423,323.3654L287.6400,324.9972L290.4377,324.6383L293.2354,319.5631L296.0331,319.6772L298.8309,314.1288L301.6286,310.8079L304.4263,314.4635L307.2240,309.5188L310.0217,308.4172
            L312.8194,308.5560L315.6171,303.2849L318.4149,303.1055L321.2126,305.5207L324.0103,300.9921L326.8080,300.6903L329.6057,300.7554L332.4034,297.8345L335.2011,296.6105L337.9989,299.3848
            L340.7966,298.8381L343.5943,293.8525L346.3920,296.3250L349.1897,295.2398L351.9874,293.8281L354.7851,294.0729L357.5829,293.5671L360.3806,294.3830L363.1783,293.4773L365.9760,292.3105
            L368.7737,291.5517L371.5714,291.7149L374.3691,290.5154L377.1669,289.3893L379.9646,292.1147L382.7623,291.4946L385.5600,291.7965L388.3577,292.7103L391.1554,293.1835L393.9531,292.4246
            L396.7509,294.3830L399.5486,293.0285L402.3463,295.4682L405.1440,294.8971L407.9417,295.7537L410.7394,297.3693L413.5371,294.1218L416.3349,294.8643L419.1326,295.6313L421.9303,296.8961
            L424.7280,299.5723L427.5257,298.3811L430.3234,302.6240L433.1211,298.5280L435.9189,299.7111L438.7166,301.6286L441.5143,301.9385L444.3120,303.8071L447.1097,304.0029L449.9074,305.6676
            L452.7051,306.3611L455.5029,306.0348L458.3006,306.4181L461.0983,309.3393L463.8960,309.0864L466.6937,310.3756L469.4914,309.7146L472.2891,312.9048L475.0869,311.4118L477.8846,314.2187
            L480.6823,316.4625L483.4800,317.2703L486.2777,317.9066L489.0754,318.7634L491.8731,319.0001L494.6709,324.3201L497.4686,321.5132L500.2663,321.7007L503.0640,324.9566L505.8617,323.3245
            L508.6594,324.1732L511.4571,324.6545L514.2549,325.1522L517.0526,327.4288L519.8503,328.3018L522.6480,331.4758L525.4457,332.0553L528.2434,332.6509L531.0411,332.4306L533.8389,334.3236
            L536.6366,336.0695L539.4343,336.8938L542.2320,340.1983L545.0297,341.4794L547.8274,341.7650L550.6251,343.0950L553.4229,343.7641L556.2206,345.6243L559.0183,349.5981L561.8160,349.7448
            L564.6137,351.8909L567.4114,354.3713L570.2091,354.8364L573.0069,358.4102L575.8046,360.9642L578.6023,359.8136L581.4000,361.5353L581.4612,361.5666"/>
  </g>
  <g style="fill:none; stroke:#0000FF; stroke-width:  2.7540; stroke-linecap:butt; stroke-linejoin:miter; stroke-dasharray:none">
   <path d="M91.7388,105.8366L91.8000,105.9893L94.5977,118.5466L97.3954,135.8530L100.1931,160.9349L102.9909,191.9083L105.7886,230.0212L108.5863,270.2146L111.3840,316.2667L114.1817,365.5334
            L116.9794,412.0261L119.7771,453.7615L122.5749,488.7329L125.3726,515.6511L128.1703,540.7333L130.9680,546.6161L133.7657,553.4864L136.5634,551.1285L139.3611,537.4939L142.1589,522.8642
            L144.9566,502.1962L147.7543,485.9180L150.5520,465.2909L153.3497,445.9693L156.1474,422.9025L158.9451,406.7959L161.7429,389.0244L164.5406,375.3247L167.3383,361.6496L170.1360,348.7494
            L172.9337,344.2373L175.7314,335.4822L178.5291,332.2428L181.3269,327.2983L184.1246,323.4143L186.9223,322.9737L189.7200,320.2811L192.5177,322.6065L195.3154,324.6464L198.1131,324.3771
            L200.9109,329.2075L203.7086,328.7588L206.5063,333.4014L209.3040,335.2374L212.1017,340.4267L214.8994,344.0170L217.6971,343.8456L220.4949,349.7203L223.2926,355.1710L226.0903,356.4765
            L228.8880,357.2107L231.6857,359.3321L234.4834,360.8173L237.2811,363.8445L240.0789,365.5415L242.8766,362.1880L245.6743,362.0330L248.4720,360.4337L251.2697,361.7801L254.0674,359.7483
            L256.8651,357.8391L259.6629,356.2562L262.4606,355.6606L265.2583,354.5835L268.0560,353.8410L270.8537,352.2253L273.6514,350.8789L276.4491,347.5663L279.2469,345.6243L282.0446,342.7359
            L284.8423,339.5048L287.6400,339.4639L290.4377,336.5185L293.2354,334.0460L296.0331,331.6063L298.8309,331.7206L301.6286,327.7551L304.4263,328.4325L307.2240,325.3970L310.0217,323.7732
            L312.8194,323.3328L315.6171,321.1705L318.4149,319.0491L321.2126,318.6655L324.0103,316.9927L326.8080,317.1805L329.6057,315.3119L332.4034,315.0755L335.2011,314.1372L337.9989,315.4588
            L340.7966,311.9829L343.5943,310.8813L346.3920,310.7019L349.1897,312.6275L351.9874,308.8252L354.7851,306.8179L357.5829,308.7518L360.3806,308.9885L363.1783,308.5151L365.9760,307.2096
            L368.7737,308.8088L371.5714,310.2451L374.3691,307.5932L377.1669,309.0862L379.9646,310.0328L382.7623,309.3065L385.5600,310.2042L388.3577,310.9712L391.1554,311.0201L393.9531,308.7109
            L396.7509,311.0610L399.5486,311.0527L402.3463,308.7763L405.1440,309.9920L407.9417,312.9538L410.7394,311.2404L413.5371,313.8840L416.3349,314.0148L419.1326,314.0390L421.9303,314.4390
            L424.7280,316.4706L427.5257,314.1859L430.3234,317.0255L433.1211,317.7435L435.9189,319.4079L438.7166,320.2973L441.5143,320.4116L444.3120,320.8687L447.1097,322.4432L449.9074,322.8349
            L452.7051,320.5994L455.5029,322.6310L458.3006,326.9801L461.0983,325.1115L463.8960,329.6726L466.6937,327.9755L469.4914,330.3826L472.2891,328.8323L475.0869,331.5982L477.8846,331.6717
            L480.6823,334.8783L483.4800,333.9155L486.2777,334.7314L489.0754,336.7878L491.8731,339.1212L494.6709,338.2891L497.4686,336.8857L500.2663,340.4512L503.0640,339.9616L505.8617,343.1846
            L508.6594,343.5682L511.4571,343.5682L514.2549,344.9962L517.0526,347.5337L519.8503,345.3225L522.6480,346.7095L525.4457,346.2689L528.2434,349.0757L531.0411,350.2182L533.8389,351.8092
            L536.6366,355.5299L539.4343,354.1509L542.2320,356.6315L545.0297,356.4601L547.8274,355.7013L550.6251,360.0584L553.4229,361.6249L556.2206,363.5508L559.0183,364.5706L561.8160,365.9251
            L564.6137,368.0059L567.4114,368.8380L570.2091,371.6776L573.0069,372.4363L575.8046,372.9829L578.6023,378.4417L581.4000,377.3565L581.4612,377.4206"/>
  </g>
  <g style="fill:none; stroke:#000000; stroke-width:  0.9180; stroke-linecap:butt; stroke-linejoin:miter; stroke-dasharray:none">
   <path d="M91.8000,91.8000L581.4000,91.8000"/>
   <path d="M91.8000,581.4000L581.4000,581.4000"/>
  </g>
  <g style="fill:none; stroke:#000000; stroke-width:  1.8360; stroke-linecap:butt; stroke-linejoin:miter; stroke-dasharray:none">
   <path d="M91.8000,91.8000L91.8000,97.9200"/>
   <path d="M91.8000,581.4000L91.8000,575.2800"/>
   <path d="M231.6857,91.8000L231.6857,97.9200"/>
   <path d="M231.6857,581.4000L231.6857,575.2800"/>
   <path d="M371.5714,91.8000L371.5714,97.9200"/>
   <path d="M371.5714,581.4000L371.5714,575.2800"/>
   <path d="M511.4571,91.8000L511.4571,97.9200"/>
   <path d="M511.4571,581.4000L511.4571,575.2800"/>
   <path d="M161.7429,91.8000L161.7429,104.0400"/>
   <path d="M161.7429,581.4000L161.7429,569.1600"/>
   <path d="M301.6286,91.8000L301.6286,104.0400"/>
   <path d="M301.6286,581.4000L301.6286,569.1600"/>
   <path d="M441.5143,91.8000L441.5143,104.0400"/>
   <path d="M441.5143,581.4000L441.5143,569.1600"/>
  </g>
  <g style="fill:#000000; fill-rule:nonzero">
   <text   style="font-family:'Helvetica','Nimbus Sans L'; font-style:normal; font-weight:bold; font-size:612.0000" transform="matrix(0.0364,0.0000,-0.0000,-0.0364,146.7429,69.6800)">0.3</text>
   <text   style="font-family:'Helvetica','Nimbus Sans L'; font-style:normal; font-weight:bold; font-size:612.0000" transform="matrix(0.0364,0.0000,-0.0000,-0.0364,286.1286,69.6800)">0.4</text>
   <text   style="font-family:'Helvetica','Nimbus Sans L'; font-style:normal; font-weight:bold; font-size:612.0000" transform="matrix(0.0364,0.0000,-0.0000,-0.0364,426.5143,69.6800)">0.5</text>
   <text   style="font-family:'Helvetica','Nimbus Sans L'; font-style:normal; font-weight:bold; font-size:612.0000" transform="matrix(0.0367,0.0000,-0.0000,-0.0367,305.1000,47.5600)">r (nm)</text>
  </g>
  <g style="fill:none; stroke:#000000; stroke-width:  0.9180; stroke-linecap:butt; stroke-linejoin:miter; stroke-dasharray:none">
   <path d="M91.8000,91.8000L91.8000,581.4000"/>
   <path d="M581.4000,91.8000L581.4000,581.4000"/>
  </g>
  <g style="fill:none; stroke:#000000; stroke-width:  1.8360; stroke-linecap:butt; stroke-linejoin:miter; stroke-dasharray:none">
   <path d="M91.8000,153.0000L97.9200,153.0000"/>
   <path d="M581.4000,153.0000L575.2800,153.0000"/>
   <path d="M91.8000,275.4000L97.9200,275.4000"/>
   <path d="M581.4000,275.4000L575.2800,275.4000"/>
   <path d="M91.8000,397.8000L97.9200,397.8000"/>
   <path d="M581.4000,397.8000L575.2800,397.8000"/>
   <path d="M91.8000,520.2000L97.9200,520.2000"/>
   <path d="M581.4000,520.2000L575.2800,520.2000"/>
   <path d="M91.8000,91.8000L104.0400,91.8000"/>
   <path d="M581.4000,91.8000L569.1600,91.8000"/>
   <path d="M91.8000,214.2000L104.0400,214.2000"/>
   <path d="M581.4000,214.2000L569.1600,214.2000"/>
   <path d="M91.8000,336.6000L104.0400,336.6000"/>
   <path d="M581.4000,336.6000L569.1600,336.6000"/>
   <path d="M91.8000,459.0000L104.0400,459.0000"/>
   <path d="M581.4000,459.0000L569.1600,459.0000"/>
   <path d="M91.8000,581.4000L104.0400,581.4000"/>
   <path d="M581.4000,581.4000L569.1600,581.4000"/>
  </g>
  <g style="fill:#000000; fill-rule:nonzero">
   <text   style="font-family:'Helvetica','Nimbus Sans L'; font-style:normal; font-weight:bold; font-size:612.0000" transform="matrix(0.0364,0.0000,-0.0000,-0.0364,74.6800,83.8000)">0</text>
   <text   style="font-family:'Helvetica','Nimbus Sans L'; font-style:normal; font-weight:bold; font-size:612.0000" transform="matrix(0.0364,0.0000,-0.0000,-0.0364,49.6800,206.2000)">500</text>
   <text   style="font-family:'Helvetica','Nimbus Sans L'; font-style:normal; font-weight:bold; font-size:612.0000" transform="matrix(0.0364,0.0000,-0.0000,-0.0364,37.6800,328.6000)">1000</text>
   <text   style="font-family:'Helvetica','Nimbus Sans L'; font-style:normal; font-weight:bold; font-size:612.0000" transform="matrix(0.0364,0.0000,-0.0000,-0.0364,37.6800,451.0000)">1500</text>
   <text   style="font-family:'Helvetica','Nimbus Sans L'; font-style:normal; font-weight:bold; font-size:612.0000" transform="matrix(0.0364,0.0000,-0.0000,-0.0364,37.6800,573.4000)">2000</text>
   <text   style="font-family:'Helvetica','Nimbus Sans L'; font-style:normal; font-weight:bold; font-size:612.0000" transform="matrix(0.0000,0.0367,0.0367,-0.0000,26.5600,318.1000)">g(r)</text>
  </g>
  <g style="fill:none; stroke:#000000; stroke-width:  1.8360; stroke-linecap:butt; stroke-linejoin:miter; stroke-dasharray:none">
   <path d="M91.8000,91.8000L91.8000,581.4000L581.4000,581.4000L581.4000,91.8000z"/>
  </g>
  <g style="fill:#FFFFFF; fill-rule:nonzero">
   <path  d="M428.4000,550.8000L428.4000,456.2000L564.8570,456.2000L564.8570,550.8000z"/>
  </g>
  <g style="fill:#000000; fill-rule:nonzero">
   <text   style="font-family:'Helvetica','Nimbus Sans L'; font-style:normal; font-weight:bold; font-size:612.0000" transform="matrix(0.0364,0.0000,-0.0000,-0.0364,478.7370,528.6800)">RSGSY</text>
  </g>
  <g style="fill:none; stroke:#0000FF; stroke-width:  2.7540; stroke-linecap:butt; stroke-linejoin:miter; stroke-dasharray:none">
   <path d="M435.8970,536.6800L466.4970,536.6800"/>
  </g>
  <g style="fill:#000000; fill-rule:nonzero">
   <text   style="font-family:'Helvetica','Nimbus Sans L'; font-style:normal; font-weight:bold; font-size:612.0000" transform="matrix(0.0364,0.0000,-0.0000,-0.0364,478.7370,506.5600)">RGSGY</text>
  </g>
  <g style="fill:none; stroke:#00FFFF; stroke-width:  2.7540; stroke-linecap:butt; stroke-linejoin:miter; stroke-dasharray:none">
   <path d="M435.8970,514.5600L466.4970,514.5600"/>
  </g>
  <g style="fill:#000000; fill-rule:nonzero">
   <text   style="font-family:'Helvetica','Nimbus Sans L'; font-style:normal; font-weight:bold; font-size:612.0000" transform="matrix(0.0364,0.0000,-0.0000,-0.0364,478.7370,484.4400)">RGLGY</text>
  </g>
  <g style="fill:none; stroke:#008B00; stroke-width:  2.7540; stroke-linecap:butt; stroke-linejoin:miter; stroke-dasharray:none">
   <path d="M435.8970,492.4400L466.4970,492.4400"/>
  </g>
  <g style="fill:#000000; fill-rule:nonzero">
   <text   style="font-family:'Helvetica','Nimbus Sans L'; font-style:normal; font-weight:bold; font-size:612.0000" transform="matrix(0.0364,0.0000,-0.0000,-0.0364,478.7370,462.3200)">HGLGY</text>
  </g>
  <g style="fill:none; stroke:#FFA500; stroke-width:  2.7540; stroke-linecap:butt; stroke-linejoin:miter; stroke-dasharray:none">
   <path d="M435.8970,470.3200L466.4970,470.3200"/>
  </g>
 </g>
</svg>
