<?xml version="1.0" encoding="ISO-8859-1"?>
<!DOCTYPE svg PUBLIC "-//W3C//DTD SVG 1.0//EN" "http://www.w3.org/TR/2001/REC-SVG-20010904/DTD/svg10.dtd">
<!-- generated by Grace-5.1.25 -->
<svg xml:space="preserve" width="11.0000in" height="8.5000in" viewBox="0.0000 0.0000 792.0000 612.0000">
 <g transform="translate(0,612.0000) scale(1,-1)">
 <desc></desc>
  <g style="fill:#FFFFFF; fill-rule:nonzero">
   <path  d="M0.0000,0.0000L0.0000,612.0000L792.0000,612.0000L792.0000,0.0000z"/>
  </g>
  <g style="fill:none; stroke:#FFA500; stroke-width:  2.7540; stroke-linecap:butt; stroke-linejoin:miter; stroke-dasharray:none">
   <path d="M91.7388,99.9117L91.8000,100.0084L94.5977,107.6865L97.3954,117.4614L100.1931,132.4750L102.9909,151.2007L105.7886,169.8861L108.5863,191.9736L111.3840,214.1266L114.1817,234.1500
            L116.9794,252.3944L119.7771,271.1938L122.5749,282.9190L125.3726,295.2724L128.1703,301.6531L130.9680,308.4255L133.7657,309.3229L136.5634,306.9241L139.3611,305.9858L142.1589,300.1272
            L144.9566,295.4518L147.7543,288.4591L150.5520,284.7058L153.3497,273.9598L156.1474,265.8168L158.9451,259.5257L161.7429,254.5078L164.5406,246.3645L167.3383,240.2776L170.1360,236.1407
            L172.9337,231.9387L175.7314,228.5443L178.5291,224.6848L181.3269,224.7746L184.1246,221.4701L186.9223,220.1646L189.7200,219.0223L192.5177,218.6142L195.3154,218.5408L198.1131,218.6958
            L200.9109,219.5690L203.7086,219.8953L206.5063,216.0115L209.3040,218.5572L212.1017,221.1193L214.8994,219.6260L217.6971,221.0050L220.4949,221.7394L223.2926,218.7937L226.0903,222.8001
            L228.8880,222.9144L231.6857,222.7102L234.4834,221.8943L237.2811,219.6260L240.0789,221.2823L242.8766,221.3557L245.6743,221.0784L248.4720,221.1274L251.2697,219.0713L254.0674,219.5606
            L256.8651,220.9396L259.6629,218.0512L262.4606,218.7775L265.2583,217.1702L268.0560,215.7829L270.8537,214.6326L273.6514,215.6115L276.4491,214.7630L279.2469,214.1755L282.0446,213.1474
            L284.8423,213.0984L287.6400,210.6751L290.4377,209.7449L293.2354,210.2019L296.0331,208.2110L298.8309,208.8719L301.6286,207.7703L304.4263,210.2754L307.2240,206.8484L310.0217,208.4966
            L312.8194,208.4722L315.6171,206.6198L318.4149,208.4232L321.2126,208.6190L324.0103,207.9498L326.8080,207.6724L329.6057,209.4430L332.4034,208.9045L335.2011,207.6070L337.9989,210.2264
            L340.7966,210.4629L343.5943,211.0749L346.3920,211.1564L349.1897,212.1601L351.9874,212.2010L354.7851,216.6233L357.5829,214.8037L360.3806,215.7667L363.1783,218.1002L365.9760,218.5898
            L368.7737,217.6678L371.5714,219.7974L374.3691,222.1881L377.1669,221.7313L379.9646,222.4329L382.7623,227.6305L385.5600,226.2351L388.3577,225.6478L391.1554,230.0293L393.9531,230.4048
            L396.7509,231.9306L399.5486,231.8082L402.3463,233.5216L405.1440,237.1280L407.9417,236.0672L410.7394,237.2014L413.5371,239.6330L416.3349,239.7880L419.1326,240.6528L421.9303,242.1787
            L424.7280,242.7336L427.5257,243.9087L430.3234,244.2676L433.1211,246.0546L435.9189,247.0744L438.7166,247.7026L441.5143,249.7180L444.3120,250.3136L447.1097,250.5584L449.9074,253.8143
            L452.7051,253.8143L455.5029,250.2975L458.3006,255.6664L461.0983,257.0454L463.8960,256.3844L466.6937,257.9918L469.4914,258.8322L472.2891,259.8359L475.0869,261.7289L477.8846,262.7243
            L480.6823,261.9003L483.4800,262.6917L486.2777,264.1847L489.0754,267.4487L491.8731,266.2900L494.6709,266.9346L497.4686,268.7542L500.2663,267.1958L503.0640,268.5909L505.8617,267.9218
            L508.6594,269.7740L511.4571,272.7278L514.2549,268.9826L517.0526,272.1158L519.8503,270.0107L522.6480,273.7721L525.4457,273.4622L528.2434,274.4739L531.0411,273.4377L533.8389,273.6090
            L536.6366,274.9716L539.4343,277.0196L542.2320,276.5954L545.0297,278.3905L547.8274,277.8600L550.6251,281.3932L553.4229,283.3922L556.2206,281.8094L559.0183,284.9751L561.8160,283.5717
            L564.6137,283.0821L567.4114,287.4882L570.2091,287.2270L573.0069,290.3766L575.8046,291.5027L578.6023,290.6459L581.4000,291.9597L581.4612,292.0070"/>
  </g>
  <g style="fill:none; stroke:#008B00; stroke-width:  2.7540; stroke-linecap:butt; stroke-linejoin:miter; stroke-dasharray:none">
   <path d="M91.7388,98.9675L91.8000,99.0537L94.5977,104.9203L97.3954,114.2386L100.1931,125.8656L102.9909,141.4584L105.7886,158.6750L108.5863,178.7554L111.3840,197.1059L114.1817,215.8891
            L116.9794,233.3093L119.7771,249.0245L122.5749,261.1984L125.3726,272.9317L128.1703,278.5129L130.9680,283.4331L133.7657,282.5763L136.5634,284.7467L139.3611,283.7594L142.1589,280.0549
            L144.9566,272.9317L147.7543,268.4930L150.5520,261.4107L153.3497,255.4380L156.1474,247.0500L158.9451,242.8641L161.7429,234.3213L164.5406,227.8427L167.3383,222.1719L170.1360,217.4230
            L172.9337,215.0323L175.7314,211.3686L178.5291,210.2509L181.3269,205.7143L184.1246,203.4051L186.9223,202.9889L189.7200,202.9074L192.5177,202.6300L195.3154,201.1287L198.1131,200.8511
            L200.9109,202.1975L203.7086,202.1404L206.5063,200.4513L209.3040,201.4956L212.1017,202.9644L214.8994,200.6227L217.6971,203.0053L220.4949,201.8956L223.2926,203.2092L226.0903,204.8739
            L228.8880,204.5311L231.6857,204.7270L234.4834,204.9228L237.2811,205.1023L240.0789,203.3725L242.8766,205.4531L245.6743,203.4459L248.4720,203.3887L251.2697,201.4956L254.0674,201.4467
            L256.8651,204.1965L259.6629,201.9935L262.4606,199.8883L265.2583,201.5935L268.0560,198.0035L270.8537,200.3370L273.6514,198.6726L276.4491,198.7215L279.2469,198.3135L282.0446,197.1303
            L284.8423,195.4821L287.6400,194.9927L290.4377,195.7352L293.2354,194.3807L296.0331,195.7678L298.8309,195.8576L301.6286,192.6020L304.4263,194.0706L307.2240,193.9891L310.0217,192.3898
            L312.8194,195.8087L315.6171,193.8667L318.4149,194.2828L321.2126,194.5031L324.0103,194.5193L326.8080,194.3154L329.6057,194.5438L332.4034,194.9763L335.2011,196.4858L337.9989,197.3996
            L340.7966,197.5465L343.5943,197.2855L346.3920,199.1213L349.1897,200.2229L351.9874,200.5492L354.7851,201.7159L357.5829,201.5365L360.3806,205.5020L363.1783,205.4122L365.9760,204.2699
            L368.7737,208.2354L371.5714,207.8927L374.3691,208.8310L377.1669,209.9326L379.9646,210.4548L382.7623,212.0460L385.5600,210.8384L388.3577,214.9099L391.1554,213.9388L393.9531,215.7912
            L396.7509,217.5046L399.5486,217.9371L402.3463,219.4057L405.1440,220.4664L407.9417,221.7964L410.7394,222.4493L413.5371,223.6569L416.3349,225.0439L419.1326,224.5952L421.9303,226.7901
            L424.7280,227.3041L427.5257,229.0993L430.3234,228.9524L433.1211,229.3521L435.9189,229.4665L438.7166,232.3629L441.5143,231.8572L444.3120,232.9260L447.1097,235.1373L449.9074,237.0545
            L452.7051,238.7111L455.5029,238.2460L458.3006,237.5116L461.0983,240.5713L463.8960,240.6039L466.6937,241.9013L469.4914,241.9912L472.2891,242.1870L475.0869,244.7408L477.8846,242.8886
            L480.6823,244.4879L483.4800,246.9031L486.2777,247.5804L489.0754,247.1153L491.8731,250.1342L494.6709,250.1342L497.4686,250.7788L500.2663,248.5513L503.0640,251.1053L505.8617,250.8931
            L508.6594,251.1624L511.4571,251.9947L514.2549,254.1323L517.0526,253.3898L519.8503,254.5974L522.6480,253.6101L525.4457,255.9763L528.2434,255.8459L531.0411,254.7851L533.8389,257.1595
            L536.6366,256.3519L539.4343,257.5022L542.2320,260.4151L545.0297,260.5458L547.8274,262.5365L550.6251,261.2799L553.4229,262.7243L556.2206,263.3771L559.0183,264.5519L561.8160,266.8775
            L564.6137,266.0616L567.4114,267.4731L570.2091,270.0678L573.0069,270.0352L575.8046,271.2918L578.6023,273.2174L581.4000,270.6472L581.4612,270.7311"/>
  </g>
  <g style="fill:none; stroke:#00FFFF; stroke-width:  2.7540; stroke-linecap:butt; stroke-linejoin:miter; stroke-dasharray:none">
   <path d="M91.7388,99.2290L91.8000,99.3149L94.5977,105.8914L97.3954,115.9764L100.1931,129.2681L102.9909,144.5755L105.7886,160.9842L108.5863,182.2230L111.3840,201.2591L114.1817,220.7766
            L116.9794,240.1226L119.7771,257.4207L122.5749,270.7777L125.3726,282.8292L128.1703,291.4373L130.9680,293.3957L133.7657,298.6423L136.5634,295.4846L139.3611,294.2281L142.1589,291.8045
            L144.9566,287.6596L147.7543,280.9934L150.5520,274.4169L153.3497,266.4859L156.1474,263.1975L158.9451,255.4867L161.7429,250.0527L164.5406,247.1968L167.3383,239.9104L170.1360,237.0873
            L172.9337,233.2849L175.7314,229.6621L178.5291,229.9558L181.3269,226.6596L184.1246,228.2750L186.9223,226.5289L189.7200,225.5090L192.5177,224.0077L195.3154,226.3820L198.1131,225.8762
            L200.9109,226.0965L203.7086,226.3903L206.5063,229.6785L209.3040,231.3267L212.1017,230.1355L214.8994,232.0121L217.6971,231.8733L220.4949,234.1500L223.2926,232.7955L226.0903,234.8190
            L228.8880,236.2141L231.6857,236.5977L234.4834,235.4881L237.2811,235.2024L240.0789,234.9331L242.8766,234.4518L245.6743,233.2849L248.4720,234.4193L251.2697,233.5950L254.0674,231.1145
            L256.8651,230.5597L259.6629,230.6004L262.4606,227.7448L265.2583,226.7575L268.0560,225.8434L270.8537,226.6187L273.6514,224.5543L276.4491,225.7293L279.2469,223.6730L282.0446,223.7220
            L284.8423,220.4094L287.6400,220.5562L290.4377,220.8826L293.2354,218.8020L296.0331,218.8510L298.8309,217.6270L301.6286,216.2725L304.4263,217.5126L307.2240,215.2771L310.0217,214.0450
            L312.8194,214.7875L315.6171,212.6333L318.4149,214.4039L321.2126,215.9134L324.0103,215.6034L326.8080,215.3912L329.6057,216.5826L332.4034,215.0323L335.2011,216.2644L337.9989,215.8972
            L340.7966,217.8473L343.5943,215.4157L346.3920,218.6632L349.1897,215.7178L351.9874,217.7085L354.7851,219.1202L357.5829,219.9442L360.3806,220.8664L363.1783,222.7756L365.9760,223.2571
            L368.7737,224.0975L371.5714,227.3041L374.3691,226.8145L377.1669,228.2914L379.9646,231.1879L382.7623,230.5353L385.5600,233.1382L388.3577,234.6638L391.1554,235.9368L393.9531,236.9730
            L396.7509,237.8543L399.5486,241.1669L402.3463,244.1452L405.1440,242.7256L407.9417,245.9648L410.7394,245.8913L413.5371,248.3474L416.3349,248.2412L419.1326,249.5550L421.9303,252.3129
            L424.7280,253.3408L427.5257,251.1788L430.3234,252.0436L433.1211,254.2791L435.9189,254.5893L438.7166,257.2412L441.5143,256.6618L444.3120,258.0816L447.1097,258.6447L449.9074,258.9627
            L452.7051,259.3788L455.5029,261.2557L458.3006,262.4143L461.0983,261.2474L463.8960,263.5647L466.6937,261.5331L469.4914,262.7487L472.2891,264.9519L475.0869,262.3081L477.8846,266.2981
            L480.6823,265.7351L483.4800,267.2283L486.2777,266.1676L489.0754,265.1884L491.8731,268.0198L494.6709,270.7696L497.4686,267.1140L500.2663,267.4648L503.0640,272.4504L505.8617,270.9654
            L508.6594,270.5654L511.4571,268.9500L514.2549,271.5202L517.0526,270.7777L519.8503,272.4014L522.6480,273.2010L525.4457,276.0487L528.2434,275.4857L531.0411,273.7231L533.8389,274.5554
            L536.6366,275.4122L539.4343,278.3334L542.2320,276.4649L545.0297,277.6886L547.8274,278.9780L550.6251,279.8754L553.4229,282.7068L556.2206,282.5190L559.0183,282.0133L561.8160,283.7594
            L564.6137,283.8654L567.4114,287.4312L570.2091,287.3333L573.0069,289.5117L575.8046,289.0875L578.6023,289.6097L581.4000,289.8870L581.4612,289.8738"/>
  </g>
  <g style="fill:none; stroke:#0000FF; stroke-width:  2.7540; stroke-linecap:butt; stroke-linejoin:miter; stroke-dasharray:none">
   <path d="M91.7388,99.8021L91.8000,99.8941L94.5977,106.7154L97.3954,116.8903L100.1931,131.5039L102.9909,148.4592L105.7886,168.4253L108.5863,188.3917L111.3840,208.8555L114.1817,231.6205
            L116.9794,248.1841L119.7771,268.6807L122.5749,281.8010L125.3726,292.9796L128.1703,301.5143L130.9680,307.4952L133.7657,311.6647L136.5634,313.9330L139.3611,311.9910L142.1589,309.6331
            L144.9566,302.1099L147.7543,299.9314L150.5520,292.8246L153.3497,285.6280L156.1474,278.5780L158.9451,271.7241L161.7429,263.8014L164.5406,257.5186L167.3383,250.9340L170.1360,245.1652
            L172.9337,242.9704L175.7314,238.9150L178.5291,235.4961L181.3269,235.4146L184.1246,232.1017L186.9223,231.1879L189.7200,231.4900L192.5177,232.9913L195.3154,230.1600L198.1131,229.8988
            L200.9109,231.1962L203.7086,229.0013L206.5063,231.5796L209.3040,231.5551L212.1017,233.0565L214.8994,236.3855L217.6971,234.5169L220.4949,234.6721L223.2926,237.2097L226.0903,238.1970
            L228.8880,234.6883L231.6857,234.7862L234.4834,237.9848L237.2811,238.9884L240.0789,236.4834L242.8766,235.5534L245.6743,236.5977L248.4720,234.7945L251.2697,235.0964L254.0674,234.9169
            L256.8651,233.9458L259.6629,232.7710L262.4606,234.6966L265.2583,232.8036L268.0560,232.6812L270.8537,233.1953L273.6514,228.9524L276.4491,230.1110L279.2469,228.7891L282.0446,229.2297
            L284.8423,226.9450L287.6400,229.2378L290.4377,226.3085L293.2354,224.5543L296.0331,225.2642L298.8309,225.6069L301.6286,224.2689L304.4263,227.4346L307.2240,225.4926L310.0217,224.9460
            L312.8194,224.6686L315.6171,226.0312L318.4149,224.3259L321.2126,224.8645L324.0103,225.9577L326.8080,227.0429L329.6057,228.0141L332.4034,227.2388L335.2011,228.9360L337.9989,229.6540
            L340.7966,231.7999L343.5943,231.6530L346.3920,230.6332L349.1897,234.0437L351.9874,233.4890L354.7851,234.7292L357.5829,238.6866L360.3806,238.7028L363.1783,240.8651L365.9760,239.7064
            L368.7737,242.6683L371.5714,248.5349L374.3691,247.3518L377.1669,251.7009L379.9646,254.5484L382.7623,257.0045L385.5600,256.9719L388.3577,259.6319L391.1554,261.2719L393.9531,263.8665
            L396.7509,267.3752L399.5486,271.8874L402.3463,270.5654L405.1440,273.7721L407.9417,276.5219L410.7394,278.9616L413.5371,279.7530L416.3349,282.2417L419.1326,283.4902L421.9303,283.0250
            L424.7280,287.1700L427.5257,283.7430L430.3234,287.5781L433.1211,290.0584L435.9189,291.6985L438.7166,291.0946L441.5143,288.6388L444.3120,289.2914L447.1097,290.2706L449.9074,293.1020
            L452.7051,290.1646L455.5029,291.1925L458.3006,295.7456L461.0983,292.9960L463.8960,295.4927L466.6937,291.4863L469.4914,294.9133L472.2891,293.7465L475.0869,294.6114L477.8846,293.0775
            L480.6823,296.2188L483.4800,294.1708L486.2777,298.0873L489.0754,294.7664L491.8731,294.9867L494.6709,298.5035L497.4686,294.3994L500.2663,297.2389L503.0640,296.3495L505.8617,294.5705
            L508.6594,298.5769L511.4571,296.2841L514.2549,298.0957L517.0526,297.7855L519.8503,296.1128L522.6480,296.6920L525.4457,298.1363L528.2434,297.8753L531.0411,298.4381L533.8389,298.1933
            L536.6366,297.6467L539.4343,300.6413L542.2320,302.1997L545.0297,299.9968L547.8274,301.4981L550.6251,305.0964L553.4229,304.6068L556.2206,304.6803L559.0183,306.8343L561.8160,307.4627
            L564.6137,306.7934L567.4114,308.4661L570.2091,309.0945L573.0069,312.0972L575.8046,309.8779L578.6023,312.6520L581.4000,312.0808L581.4612,312.0469"/>
  </g>
  <g style="fill:none; stroke:#000000; stroke-width:  0.9180; stroke-linecap:butt; stroke-linejoin:miter; stroke-dasharray:none">
   <path d="M91.8000,91.8000L581.4000,91.8000"/>
   <path d="M91.8000,581.4000L581.4000,581.4000"/>
  </g>
  <g style="fill:none; stroke:#000000; stroke-width:  1.8360; stroke-linecap:butt; stroke-linejoin:miter; stroke-dasharray:none">
   <path d="M91.8000,91.8000L91.8000,97.9200"/>
   <path d="M91.8000,581.4000L91.8000,575.2800"/>
   <path d="M231.6857,91.8000L231.6857,97.9200"/>
   <path d="M231.6857,581.4000L231.6857,575.2800"/>
   <path d="M371.5714,91.8000L371.5714,97.9200"/>
   <path d="M371.5714,581.4000L371.5714,575.2800"/>
   <path d="M511.4571,91.8000L511.4571,97.9200"/>
   <path d="M511.4571,581.4000L511.4571,575.2800"/>
   <path d="M161.7429,91.8000L161.7429,104.0400"/>
   <path d="M161.7429,581.4000L161.7429,569.1600"/>
   <path d="M301.6286,91.8000L301.6286,104.0400"/>
   <path d="M301.6286,581.4000L301.6286,569.1600"/>
   <path d="M441.5143,91.8000L441.5143,104.0400"/>
   <path d="M441.5143,581.4000L441.5143,569.1600"/>
  </g>
  <g style="fill:#000000; fill-rule:nonzero">
   <text   style="font-family:'Helvetica','Nimbus Sans L'; font-style:normal; font-weight:bold; font-size:612.0000" transform="matrix(0.0364,0.0000,-0.0000,-0.0364,146.7429,69.6800)">0.3</text>
   <text   style="font-family:'Helvetica','Nimbus Sans L'; font-style:normal; font-weight:bold; font-size:612.0000" transform="matrix(0.0364,0.0000,-0.0000,-0.0364,286.1286,69.6800)">0.4</text>
   <text   style="font-family:'Helvetica','Nimbus Sans L'; font-style:normal; font-weight:bold; font-size:612.0000" transform="matrix(0.0364,0.0000,-0.0000,-0.0364,426.5143,69.6800)">0.5</text>
   <text   style="font-family:'Helvetica','Nimbus Sans L'; font-style:normal; font-weight:bold; font-size:612.0000" transform="matrix(0.0367,0.0000,-0.0000,-0.0367,305.1000,47.5600)">r (nm)</text>
  </g>
  <g style="fill:none; stroke:#000000; stroke-width:  0.9180; stroke-linecap:butt; stroke-linejoin:miter; stroke-dasharray:none">
   <path d="M91.8000,91.8000L91.8000,581.4000"/>
   <path d="M581.4000,91.8000L581.4000,581.4000"/>
  </g>
  <g style="fill:none; stroke:#000000; stroke-width:  1.8360; stroke-linecap:butt; stroke-linejoin:miter; stroke-dasharray:none">
   <path d="M91.8000,153.0000L97.9200,153.0000"/>
   <path d="M581.4000,153.0000L575.2800,153.0000"/>
   <path d="M91.8000,275.4000L97.9200,275.4000"/>
   <path d="M581.4000,275.4000L575.2800,275.4000"/>
   <path d="M91.8000,397.8000L97.9200,397.8000"/>
   <path d="M581.4000,397.8000L575.2800,397.8000"/>
   <path d="M91.8000,520.2000L97.9200,520.2000"/>
   <path d="M581.4000,520.2000L575.2800,520.2000"/>
   <path d="M91.8000,91.8000L104.0400,91.8000"/>
   <path d="M581.4000,91.8000L569.1600,91.8000"/>
   <path d="M91.8000,214.2000L104.0400,214.2000"/>
   <path d="M581.4000,214.2000L569.1600,214.2000"/>
   <path d="M91.8000,336.6000L104.0400,336.6000"/>
   <path d="M581.4000,336.6000L569.1600,336.6000"/>
   <path d="M91.8000,459.0000L104.0400,459.0000"/>
   <path d="M581.4000,459.0000L569.1600,459.0000"/>
   <path d="M91.8000,581.4000L104.0400,581.4000"/>
   <path d="M581.4000,581.4000L569.1600,581.4000"/>
  </g>
  <g style="fill:#000000; fill-rule:nonzero">
   <text   style="font-family:'Helvetica','Nimbus Sans L'; font-style:normal; font-weight:bold; font-size:612.0000" transform="matrix(0.0364,0.0000,-0.0000,-0.0364,74.6800,83.8000)">0</text>
   <text   style="font-family:'Helvetica','Nimbus Sans L'; font-style:normal; font-weight:bold; font-size:612.0000" transform="matrix(0.0364,0.0000,-0.0000,-0.0364,49.6800,206.2000)">500</text>
   <text   style="font-family:'Helvetica','Nimbus Sans L'; font-style:normal; font-weight:bold; font-size:612.0000" transform="matrix(0.0364,0.0000,-0.0000,-0.0364,37.6800,328.6000)">1000</text>
   <text   style="font-family:'Helvetica','Nimbus Sans L'; font-style:normal; font-weight:bold; font-size:612.0000" transform="matrix(0.0364,0.0000,-0.0000,-0.0364,37.6800,451.0000)">1500</text>
   <text   style="font-family:'Helvetica','Nimbus Sans L'; font-style:normal; font-weight:bold; font-size:612.0000" transform="matrix(0.0364,0.0000,-0.0000,-0.0364,37.6800,573.4000)">2000</text>
   <text   style="font-family:'Helvetica','Nimbus Sans L'; font-style:normal; font-weight:bold; font-size:612.0000" transform="matrix(0.0000,0.0367,0.0367,-0.0000,26.5600,318.1000)">g(r)</text>
  </g>
  <g style="fill:none; stroke:#000000; stroke-width:  1.8360; stroke-linecap:butt; stroke-linejoin:miter; stroke-dasharray:none">
   <path d="M91.8000,91.8000L91.8000,581.4000L581.4000,581.4000L581.4000,91.8000z"/>
  </g>
  <g style="fill:#FFFFFF; fill-rule:nonzero">
   <path  d="M428.4000,550.8000L428.4000,456.2000L564.8570,456.2000L564.8570,550.8000z"/>
  </g>
  <g style="fill:#000000; fill-rule:nonzero">
   <text   style="font-family:'Helvetica','Nimbus Sans L'; font-style:normal; font-weight:bold; font-size:612.0000" transform="matrix(0.0364,0.0000,-0.0000,-0.0364,478.7370,528.6800)">RSGSY</text>
  </g>
  <g style="fill:none; stroke:#0000FF; stroke-width:  2.7540; stroke-linecap:butt; stroke-linejoin:miter; stroke-dasharray:none">
   <path d="M435.8970,536.6800L466.4970,536.6800"/>
  </g>
  <g style="fill:#000000; fill-rule:nonzero">
   <text   style="font-family:'Helvetica','Nimbus Sans L'; font-style:normal; font-weight:bold; font-size:612.0000" transform="matrix(0.0364,0.0000,-0.0000,-0.0364,478.7370,506.5600)">RGSGY</text>
  </g>
  <g style="fill:none; stroke:#00FFFF; stroke-width:  2.7540; stroke-linecap:butt; stroke-linejoin:miter; stroke-dasharray:none">
   <path d="M435.8970,514.5600L466.4970,514.5600"/>
  </g>
  <g style="fill:#000000; fill-rule:nonzero">
   <text   style="font-family:'Helvetica','Nimbus Sans L'; font-style:normal; font-weight:bold; font-size:612.0000" transform="matrix(0.0364,0.0000,-0.0000,-0.0364,478.7370,484.4400)">RGLGY</text>
  </g>
  <g style="fill:none; stroke:#008B00; stroke-width:  2.7540; stroke-linecap:butt; stroke-linejoin:miter; stroke-dasharray:none">
   <path d="M435.8970,492.4400L466.4970,492.4400"/>
  </g>
  <g style="fill:#000000; fill-rule:nonzero">
   <text   style="font-family:'Helvetica','Nimbus Sans L'; font-style:normal; font-weight:bold; font-size:612.0000" transform="matrix(0.0364,0.0000,-0.0000,-0.0364,478.7370,462.3200)">HGLGY</text>
  </g>
  <g style="fill:none; stroke:#FFA500; stroke-width:  2.7540; stroke-linecap:butt; stroke-linejoin:miter; stroke-dasharray:none">
   <path d="M435.8970,470.3200L466.4970,470.3200"/>
  </g>
 </g>
</svg>
