<?xml version="1.0" encoding="ISO-8859-1"?>
<!DOCTYPE svg PUBLIC "-//W3C//DTD SVG 1.0//EN" "http://www.w3.org/TR/2001/REC-SVG-20010904/DTD/svg10.dtd">
<!-- generated by Grace-5.1.25 -->
<svg xml:space="preserve" width="11.0000in" height="8.5000in" viewBox="0.0000 0.0000 792.0000 612.0000">
 <g transform="translate(0,612.0000) scale(1,-1)">
 <desc></desc>
  <g style="fill:#FFFFFF; fill-rule:nonzero">
   <path  d="M0.0000,0.0000L0.0000,612.0000L792.0000,612.0000L792.0000,0.0000z"/>
  </g>
  <g style="fill:none; stroke:#FFA500; stroke-width:  2.7540; stroke-linecap:butt; stroke-linejoin:miter; stroke-dasharray:none">
   <path d="M91.7388,91.8000L91.8000,91.8000L94.2480,91.8000L96.6960,91.8000L99.1440,91.8000L101.5920,91.8000L104.0400,91.8000L106.4880,91.8000L108.9360,91.8000L111.3840,91.8000
            L113.8320,91.8000L116.2800,91.8000L118.7280,91.8000L121.1760,91.8000L123.6240,91.8000L126.0720,91.8000L128.5200,91.8000L130.9680,91.8000L133.4160,91.8000L135.8640,91.8000
            L138.3120,91.8029L140.7600,91.8122L143.2080,91.9285L145.6560,92.1579L148.1040,93.0754L150.5520,94.9503L153.0000,98.1127L155.4480,103.7739L157.8960,111.4812L160.3440,121.8433
            L162.7920,135.7778L165.2400,150.3941L167.6880,166.9558L170.1360,181.7740L172.5840,198.0084L175.0320,212.2365L177.4800,223.5925L179.9280,232.8934L182.3760,240.7750L184.8240,245.1273
            L187.2720,246.6656L189.7200,246.6901L192.1680,245.5310L194.6160,241.1390L197.0640,239.1236L199.5120,233.5113L201.9600,226.9203L204.4080,220.2987L206.8560,214.6436L209.3040,208.5664
            L211.7520,202.9539L214.2000,197.6292L216.6480,193.5920L219.0960,188.1878L221.5440,185.0619L223.9920,182.4254L226.4400,178.8411L228.8880,177.4036L231.3360,174.6173L233.7840,172.8432
            L236.2320,171.3967L238.6800,171.4273L241.1280,170.3446L243.5760,169.6900L246.0240,170.2344L248.4720,169.4239L250.9200,170.2222L253.3680,168.6136L255.8160,169.3353L258.2640,169.4883
            L260.7120,169.9194L263.1600,170.6200L265.6080,170.1948L268.0560,171.1642L270.5040,169.9500L272.9520,170.4332L275.4000,169.7360L277.8480,169.9103L280.2960,169.3078L282.7440,169.8829
            L285.1920,169.3842L287.6400,167.7570L290.0880,167.8794L292.5360,168.9928L294.9840,166.5979L297.4320,166.9007L299.8800,166.3379L302.3280,165.3715L304.7760,165.7783L307.2240,164.1940
            L309.6720,163.6527L312.1200,164.2522L314.5680,163.2703L317.0160,162.7903L319.4640,161.6003L321.9120,161.5820L324.3600,161.0285L326.8080,160.8052L329.2560,160.3313L331.7040,160.1416
            L334.1520,159.6094L336.6000,158.3278L339.0480,159.3616L341.4960,158.2392L343.9440,158.1384L346.3920,158.6062L348.8400,158.5756L351.2880,158.2025L353.7360,157.9148L356.1840,158.5511
            L358.6320,159.3739L361.0800,159.1597L363.5280,159.4380L365.9760,159.7775L368.4240,159.4441L370.8720,160.5758L373.3200,160.3433L375.7680,161.1631L378.2160,162.2977L380.6640,162.5913
            L383.1120,162.4537L385.5600,163.2336L388.0080,163.4295L390.4560,164.7996L392.9040,164.9005L395.3520,165.1298L397.8000,167.0934L400.2480,167.7815L402.6960,168.4545L405.1440,170.3874
            L407.5920,170.7482L410.0400,170.6413L412.4880,170.7575L414.9360,172.6048L417.3840,173.6141L419.8320,174.9630L422.2800,174.5226L424.7280,175.3696L427.1760,176.8193L429.6240,177.1804
            L432.0720,178.5412L434.5200,179.9757L436.9680,180.5691L439.4160,180.4558L441.8640,181.4622L444.3120,182.6242L446.7600,183.2759L449.2080,183.8142L451.6560,185.2240L454.1040,185.2884
            L456.5520,185.7134L459.0000,186.8879L461.4480,187.9523L463.8960,187.4323L466.3440,188.7871L468.7920,189.6098L471.2400,190.7905L473.6880,190.6742L476.1360,192.6011L478.5840,191.7998
            L481.0320,192.8059L483.4800,193.3443L485.9280,193.3137L488.3760,194.8826L490.8240,195.7849L493.2720,196.0481L495.7200,196.1886L498.1680,195.5311L500.6160,197.5007L503.0640,196.8828
            L505.5120,197.5710L507.9600,197.6904L510.4080,199.6508L512.8560,199.0941L515.3040,198.6692L517.7520,199.8528L520.2000,199.3725L522.6480,199.2990L525.0960,199.5071L527.5440,200.2564
            L529.9920,201.0699L532.4400,200.2136L534.8880,200.7030L537.3360,200.6633L539.7840,202.3118L542.2320,201.5012L544.6800,202.2873L547.1280,203.1713L549.5760,204.0215L552.0240,202.6604
            L554.4720,204.8043L556.9200,204.8075L559.3680,204.4832L561.8160,206.3368L564.2640,205.9544L566.7120,207.2053L569.1600,208.9762L571.6080,207.8719L574.0560,209.2607L576.5040,210.8693
            L578.9520,212.5851L581.4000,211.3035L581.4612,211.3476"/>
  </g>
  <g style="fill:none; stroke:#FFA500; stroke-width:  2.7540; stroke-linecap:butt; stroke-linejoin:miter; stroke-dasharray: 14 8">
   <path d="M91.7388,91.8000L91.8000,91.8000L94.2480,91.8000L96.6960,91.8000L99.1440,91.8000L101.5920,91.8000L104.0400,91.8000L106.4880,91.8000L108.9360,91.8000L111.3840,91.8000
            L113.8320,91.8000L116.2800,91.8000L118.7280,91.8000L121.1760,91.8000L123.6240,91.8000L126.0720,91.8000L128.5200,91.8000L130.9680,91.8000L133.4160,91.8000L135.8640,91.8000
            L138.3120,91.8061L140.7600,91.8152L143.2080,91.9102L145.6560,92.2588L148.1040,93.0754L150.5520,95.1001L153.0000,98.4919L155.4480,104.4437L157.8960,113.3194L160.3440,124.5929
            L162.7920,137.7475L165.2400,155.6549L167.6880,172.0849L170.1360,190.5428L172.5840,207.0156L175.0320,223.8556L177.4800,238.3099L179.9280,250.9139L182.3760,260.1720L184.8240,268.3931
            L187.2720,272.6413L189.7200,275.3420L192.1680,274.8465L194.6160,272.9319L197.0640,269.2188L199.5120,266.0381L201.9600,261.0160L204.4080,254.7585L206.8560,247.5312L209.3040,239.4355
            L211.7520,235.4320L214.2000,229.2386L216.6480,223.3173L219.0960,218.8948L221.5440,213.2977L223.9920,209.3951L226.4400,205.6119L228.8880,202.2383L231.3360,200.5989L233.7840,197.3844
            L236.2320,197.0787L238.6800,195.1061L241.1280,194.5494L243.5760,194.2128L246.0240,195.3232L248.4720,193.6745L250.9200,194.0875L253.3680,193.9009L255.8160,193.8735L258.2640,194.7572
            L260.7120,195.0510L263.1600,195.9563L265.6080,195.4637L268.0560,196.1947L270.5040,195.0020L272.9520,197.1032L275.4000,195.9103L277.8480,195.0326L280.2960,195.0968L282.7440,194.7450
            L285.1920,193.9254L287.6400,193.8916L290.0880,192.5521L292.5360,193.0691L294.9840,190.7934L297.4320,190.1881L299.8800,189.3224L302.3280,188.5577L304.7760,188.4936L307.2240,187.9217
            L309.6720,186.9031L312.1200,186.0101L314.5680,185.7716L317.0160,185.0406L319.4640,183.7682L321.9120,182.4438L324.3600,182.4776L326.8080,182.0372L329.2560,181.5508L331.7040,180.5018
            L334.1520,180.6945L336.6000,179.1990L339.0480,179.1011L341.4960,178.9145L343.9440,179.3060L346.3920,179.7525L348.8400,178.7094L351.2880,178.2783L353.7360,178.2384L356.1840,179.4893
            L358.6320,179.3304L361.0800,179.8227L363.5280,179.7309L365.9760,180.1777L368.4240,180.6548L370.8720,181.1349L373.3200,181.2724L375.7680,182.3185L378.2160,183.1229L380.6640,182.7772
            L383.1120,184.5236L385.5600,184.6889L388.0080,186.6615L390.4560,187.2549L392.9040,188.1266L395.3520,188.3070L397.8000,190.9252L400.2480,190.4480L402.6960,192.5337L405.1440,192.8275
            L407.5920,194.8155L410.0400,195.5494L412.4880,197.2378L414.9360,197.5100L417.3840,199.2013L419.8320,199.9752L422.2800,201.4432L424.7280,203.0183L427.1760,202.3975L429.6240,205.1226
            L432.0720,204.4925L434.5200,205.1010L436.9680,206.4589L439.4160,208.0526L441.8640,208.8506L444.3120,209.6428L446.7600,208.9669L449.2080,210.6981L451.6560,212.6707L454.1040,212.2578
            L456.5520,212.6646L459.0000,214.4967L461.4480,214.3682L463.8960,214.7995L466.3440,216.6194L468.7920,218.2096L471.2400,217.4296L473.6880,218.9560L476.1360,218.9528L478.5840,219.8216
            L481.0320,220.6135L483.4800,221.2835L485.9280,223.0603L488.3760,222.7026L490.8240,223.1430L493.2720,224.9568L495.7200,225.5408L498.1680,226.3330L500.6160,226.4094L503.0640,227.5869
            L505.5120,227.7183L507.9600,228.1893L510.4080,230.4435L512.8560,229.0366L515.3040,231.0307L517.7520,230.1255L520.2000,229.9419L522.6480,229.5137L525.0960,231.8320L527.5440,231.3091
            L529.9920,233.3918L532.4400,232.7833L534.8880,233.5297L537.3360,234.0738L539.7840,233.8048L542.2320,236.2087L544.6800,235.3280L547.1280,236.6462L549.5760,238.0714L552.0240,238.8727
            L554.4720,239.2763L556.9200,240.4815L559.3680,239.8452L561.8160,240.6497L564.2640,240.9953L566.7120,243.9682L569.1600,243.0994L571.6080,245.2558L574.0560,246.8093L576.5040,247.2957
            L578.9520,246.8859L581.4000,249.0145L581.4612,249.0499"/>
  </g>
  <g style="fill:none; stroke:#008B00; stroke-width:  2.7540; stroke-linecap:butt; stroke-linejoin:miter; stroke-dasharray:none">
   <path d="M91.7388,91.8000L91.8000,91.8000L94.2480,91.8000L96.6960,91.8000L99.1440,91.8000L101.5920,91.8000L104.0400,91.8000L106.4880,91.8000L108.9360,91.8000L111.3840,91.8000
            L113.8320,91.8000L116.2800,91.8000L118.7280,91.8000L121.1760,91.8000L123.6240,91.8000L126.0720,91.8000L128.5200,91.8000L130.9680,91.8000L133.4160,91.8000L135.8640,91.8000
            L138.3120,91.8091L140.7600,91.8458L143.2080,91.9376L145.6560,92.2955L148.1040,93.2436L150.5520,95.2438L153.0000,98.8620L155.4480,104.8077L157.8960,114.1177L160.3440,125.5442
            L162.7920,140.0381L165.2400,155.2815L167.6880,173.6966L170.1360,192.2493L172.5840,209.0007L175.0320,225.5102L177.4800,237.7013L179.9280,249.3817L182.3760,256.7861L184.8240,264.6281
            L187.2720,269.4849L189.7200,269.1363L192.1680,269.7723L194.6160,268.3409L197.0640,263.9674L199.5120,259.0035L201.9600,253.2231L204.4080,246.3476L206.8560,239.6281L209.3040,234.4073
            L211.7520,228.1649L214.2000,221.2101L216.6480,216.7415L219.0960,210.4076L221.5440,205.7402L223.9920,202.1159L226.4400,198.7884L228.8880,196.5526L231.3360,192.8581L233.7840,189.9097
            L236.2320,189.4600L238.6800,187.1418L241.1280,187.2458L243.5760,185.5452L246.0240,185.2730L248.4720,184.6093L250.9200,185.4137L253.3680,184.6216L255.8160,185.3616L258.2640,186.1905
            L260.7120,184.8815L263.1600,185.6522L265.6080,187.2304L268.0560,185.2974L270.5040,185.3892L272.9520,186.0345L275.4000,185.4015L277.8480,186.0681L280.2960,186.1325L282.7440,187.4904
            L285.1920,185.9949L287.6400,185.3983L290.0880,183.9151L292.5360,183.2514L294.9840,183.4747L297.4320,182.6458L299.8800,182.0556L302.3280,181.8813L304.7760,180.2325L307.2240,180.2325
            L309.6720,180.0460L312.1200,178.3547L314.5680,179.3273L317.0160,177.2597L319.4640,176.7123L321.9120,176.6327L324.3600,177.0242L326.8080,175.9201L329.2560,175.1740L331.7040,174.0819
            L334.1520,174.1035L336.6000,172.8800L339.0480,173.4122L341.4960,172.8281L343.9440,174.0851L346.3920,173.1431L348.8400,173.5468L351.2880,174.2381L353.7360,173.6048L356.1840,173.0758
            L358.6320,172.7945L361.0800,173.2623L363.5280,174.3084L365.9760,174.1003L368.4240,175.3116L370.8720,176.2506L373.3200,175.9600L375.7680,176.3850L378.2160,177.3914L380.6640,178.7400
            L383.1120,179.2232L385.5600,178.5596L388.0080,180.6181L390.4560,180.9084L392.9040,182.0923L395.3520,182.4132L397.8000,183.8294L400.2480,183.8477L402.6960,186.2027L405.1440,186.4811
            L407.5920,188.0103L410.0400,188.2855L412.4880,189.4233L414.9360,190.5428L417.3840,192.2647L419.8320,192.5766L422.2800,192.7019L424.7280,194.6226L427.1760,194.4912L429.6240,195.0938
            L432.0720,196.6106L434.5200,198.8190L436.9680,197.8799L439.4160,199.9781L441.8640,200.3788L444.3120,201.6114L446.7600,202.3301L449.2080,203.0734L451.6560,204.0917L454.1040,205.2264
            L456.5520,205.3948L459.0000,206.5507L461.4480,208.2636L463.8960,207.8261L466.3440,207.9669L468.7920,208.9640L471.2400,210.2820L473.6880,210.9275L476.1360,211.5789L478.5840,212.3924
            L481.0320,213.2090L483.4800,213.7381L485.9280,215.3408L488.3760,215.0808L490.8240,214.9951L493.2720,216.6071L495.7200,217.5643L498.1680,217.9680L500.6160,218.2740L503.0640,218.5707
            L505.5120,220.2588L507.9600,220.3445L510.4080,220.6289L512.8560,220.8735L515.3040,222.0816L517.7520,221.9379L520.2000,221.5677L522.6480,222.6505L525.0960,221.5739L527.5440,223.7394
            L529.9920,222.0023L532.4400,224.7303L534.8880,224.0544L537.3360,224.3266L539.7840,223.9107L542.2320,225.9751L544.6800,225.8865L547.1280,226.0669L549.5760,227.6787L552.0240,228.5901
            L554.4720,228.3179L556.9200,229.0427L559.3680,228.5688L561.8160,231.0675L564.2640,231.7556L566.7120,232.0033L569.1600,231.8200L571.6080,234.8019L574.0560,235.0158L576.5040,235.9426
            L578.9520,237.0589L581.4000,236.7928L581.4612,236.8517"/>
  </g>
  <g style="fill:none; stroke:#00FFFF; stroke-width:  2.7540; stroke-linecap:butt; stroke-linejoin:miter; stroke-dasharray:none">
   <path d="M91.7388,91.8000L91.8000,91.8000L94.2480,91.8000L96.6960,91.8000L99.1440,91.8000L101.5920,91.8000L104.0400,91.8000L106.4880,91.8000L108.9360,91.8000L111.3840,91.8000
            L113.8320,91.8000L116.2800,91.8000L118.7280,91.8000L121.1760,91.8000L123.6240,91.8000L126.0720,91.8000L128.5200,91.8000L130.9680,91.8000L133.4160,91.8000L135.8640,91.8029
            L138.3120,91.8029L140.7600,91.8428L143.2080,91.9530L145.6560,92.3016L148.1040,93.2284L150.5520,94.9961L153.0000,98.5531L155.4480,104.4559L157.8960,113.0381L160.3440,124.2688
            L162.7920,138.0258L165.2400,154.2020L167.6880,171.3691L170.1360,190.8730L172.5840,206.5507L175.0320,224.0941L177.4800,236.2822L179.9280,249.6936L182.3760,260.0097L184.8240,266.5916
            L187.2720,270.9530L189.7200,275.5865L192.1680,275.3053L194.6160,274.6294L197.0640,270.8244L199.5120,267.2981L201.9600,260.4104L204.4080,255.8593L206.8560,249.6446L209.3040,244.1026
            L211.7520,237.1446L214.2000,232.3367L216.6480,226.5164L219.0960,221.7758L221.5440,218.9038L223.9920,215.2093L226.4400,212.3190L228.8880,209.5236L231.3360,207.3277L233.7840,206.7740
            L236.2320,205.8961L238.6800,204.9390L241.1280,205.1010L243.5760,204.0550L246.0240,203.8472L248.4720,204.6056L250.9200,204.1255L253.3680,205.2508L255.8160,205.6545L258.2640,206.6761
            L260.7120,207.4070L263.1600,207.7987L265.6080,208.2391L268.0560,207.2237L270.5040,208.0587L272.9520,208.6183L275.4000,208.9118L277.8480,207.5326L280.2960,207.1196L282.7440,207.1593
            L285.1920,206.8200L287.6400,206.1316L290.0880,205.8932L292.5360,205.1377L294.9840,203.7889L297.4320,203.4371L299.8800,201.9632L302.3280,201.2719L304.7760,200.1830L307.2240,199.5957
            L309.6720,198.8496L312.1200,197.7578L314.5680,196.3019L317.0160,195.3842L319.4640,194.7054L321.9120,194.7634L324.3600,193.4850L326.8080,193.7205L329.2560,192.7541L331.7040,191.8272
            L334.1520,191.2064L336.6000,190.3775L339.0480,189.5364L341.4960,189.3530L343.9440,189.5029L346.3920,189.5029L348.8400,188.2152L351.2880,189.0103L353.7360,188.5670L356.1840,188.5486
            L358.6320,190.3256L361.0800,188.7200L363.5280,187.7932L365.9760,189.0441L368.4240,190.1146L370.8720,190.8791L373.3200,191.0963L375.7680,190.9313L378.2160,191.9648L380.6640,192.6867
            L383.1120,193.0813L385.5600,194.7910L388.0080,194.7910L390.4560,196.2559L392.9040,197.0390L395.3520,197.6322L397.8000,199.7365L400.2480,200.5744L402.6960,200.6907L405.1440,202.6175
            L407.5920,203.9970L410.0400,205.8597L412.4880,206.8932L414.9360,208.3307L417.3840,209.2330L419.8320,211.1721L422.2800,211.9459L424.7280,213.6494L427.1760,214.7841L429.6240,215.4142
            L432.0720,216.4970L434.5200,218.0997L436.9680,219.4666L439.4160,220.3873L441.8640,221.1183L444.3120,222.0206L446.7600,221.8554L449.2080,223.8341L451.6560,224.5193L454.1040,224.6569
            L456.5520,224.8772L459.0000,226.0914L461.4480,227.5196L463.8960,226.4767L466.3440,227.7734L468.7920,229.0488L471.2400,228.7154L473.6880,228.4831L476.1360,229.1774L478.5840,230.5690
            L481.0320,229.9389L483.4800,231.9269L485.9280,231.6180L488.3760,231.2295L490.8240,232.6486L493.2720,232.6824L495.7200,232.8229L498.1680,233.4868L500.6160,232.9086L503.0640,232.4437
            L505.5120,235.0158L507.9600,233.7314L510.4080,234.6734L512.8560,235.2149L515.3040,236.0680L517.7520,235.5235L520.2000,236.6584L522.6480,236.7684L525.0960,237.6584L527.5440,236.5850
            L529.9920,238.6372L532.4400,237.2394L534.8880,238.6188L537.3360,238.9490L539.7840,239.6587L542.2320,240.1635L544.6800,241.3868L547.1280,242.1912L549.5760,241.8974L552.0240,242.8365
            L554.4720,242.7172L556.9200,244.0294L559.3680,244.2250L561.8160,245.3841L564.2640,245.7207L566.7120,247.3109L569.1600,247.8830L571.6080,248.2345L574.0560,250.7641L576.5040,249.7271
            L578.9520,251.7795L581.4000,252.4094L581.4612,252.4253"/>
  </g>
  <g style="fill:none; stroke:#0000FF; stroke-width:  2.7540; stroke-linecap:butt; stroke-linejoin:miter; stroke-dasharray:none">
   <path d="M91.7388,91.8000L91.8000,91.8000L94.2480,91.8000L96.6960,91.8000L99.1440,91.8000L101.5920,91.8000L104.0400,91.8000L106.4880,91.8000L108.9360,91.8000L111.3840,91.8000
            L113.8320,91.8000L116.2800,91.8000L118.7280,91.8000L121.1760,91.8000L123.6240,91.8000L126.0720,91.8000L128.5200,91.8000L130.9680,91.8000L133.4160,91.8029L135.8640,91.8061
            L138.3120,91.8029L140.7600,91.8367L143.2080,91.9530L145.6560,92.2465L148.1040,93.1701L150.5520,95.2284L153.0000,98.8681L155.4480,105.0097L157.8960,113.4570L160.3440,125.7826
            L162.7920,140.1360L165.2400,156.9148L167.6880,174.1248L170.1360,192.8488L172.5840,210.3525L175.0320,226.5746L177.4800,240.3285L179.9280,253.7063L182.3760,262.7042L184.8240,271.4210
            L187.2720,275.0972L189.7200,278.2781L192.1680,279.8439L194.6160,277.2504L197.0640,273.7454L199.5120,269.7816L201.9600,264.7688L204.4080,257.4008L206.8560,251.2258L209.3040,246.1856
            L211.7520,237.5116L214.2000,232.3673L216.6480,226.9661L219.0960,221.0600L221.5440,217.0536L223.9920,212.8299L226.4400,210.0345L228.8880,208.4592L231.3360,204.8993L233.7840,203.9326
            L236.2320,202.6665L238.6800,201.4278L241.1280,200.1830L243.5760,199.8251L246.0240,198.3693L248.4720,200.9049L250.9200,199.5590L253.3680,200.6846L255.8160,200.4645L258.2640,200.8344
            L260.7120,202.0303L263.1600,202.6024L265.6080,202.0303L268.0560,203.6146L270.5040,202.4097L272.9520,202.4983L275.4000,202.7000L277.8480,202.2107L280.2960,201.3605L282.7440,202.7155
            L285.1920,202.0303L287.6400,202.4126L290.0880,200.6511L292.5360,200.2626L294.9840,199.9842L297.4320,198.4398L299.8800,198.6476L302.3280,197.8892L304.7760,197.6873L307.2240,196.3783
            L309.6720,197.0452L312.1200,195.2498L314.5680,195.7514L317.0160,195.3874L319.4640,194.3046L321.9120,193.9284L324.3600,191.5917L326.8080,193.4361L329.2560,191.6897L331.7040,191.3930
            L334.1520,191.5367L336.6000,192.4542L339.0480,191.4419L341.4960,190.9587L343.9440,191.0473L346.3920,191.4326L348.8400,191.4603L351.2880,192.9283L353.7360,192.4023L356.1840,192.1423
            L358.6320,192.9435L361.0800,193.8429L363.5280,193.9222L365.9760,194.5034L368.4240,195.7788L370.8720,195.6931L373.3200,196.4701L375.7680,197.3876L378.2160,198.6231L380.6640,198.6447
            L383.1120,201.1404L385.5600,202.6971L388.0080,203.8778L390.4560,204.3977L392.9040,207.1899L395.3520,208.6061L397.8000,211.0467L400.2480,211.1109L402.6960,214.4600L405.1440,216.7660
            L407.5920,218.4696L410.0400,219.9131L412.4880,221.5313L414.9360,225.2136L417.3840,226.1127L419.8320,228.5656L422.2800,229.4496L424.7280,232.6547L427.1760,233.4592L429.6240,236.0956
            L432.0720,237.4474L434.5200,238.1600L436.9680,240.0962L439.4160,242.2646L441.8640,243.2707L444.3120,244.5094L446.7600,245.1976L449.2080,245.3567L451.6560,246.4240L454.1040,246.5983
            L456.5520,247.5831L459.0000,248.4700L461.4480,248.5618L463.8960,250.0025L466.3440,250.4551L468.7920,251.0147L471.2400,251.1342L473.6880,250.3144L476.1360,250.6081L478.5840,251.1342
            L481.0320,251.3269L483.4800,249.9687L485.9280,251.1616L488.3760,251.6816L490.8240,251.3788L493.2720,250.7425L495.7200,251.2045L498.1680,253.0121L500.6160,252.8101L503.0640,252.1861
            L505.5120,251.7090L507.9600,251.8926L510.4080,251.7029L512.8560,252.2106L515.3040,252.1954L517.7520,253.0365L520.2000,253.0150L522.6480,253.3117L525.0960,252.2412L527.5440,252.8867
            L529.9920,252.2106L532.4400,253.3332L534.8880,252.9080L537.3360,253.5105L539.7840,253.9080L542.2320,254.2813L544.6800,253.1986L547.1280,255.0948L549.5760,255.1834L552.0240,255.8992
            L554.4720,255.3120L556.9200,257.2848L559.3680,257.4559L561.8160,257.4498L564.2640,257.6824L566.7120,257.8535L569.1600,258.9210L571.6080,260.7438L574.0560,259.6427L576.5040,261.7654
            L578.9520,262.0222L581.4000,262.7899L581.4612,262.8401"/>
  </g>
  <g style="fill:none; stroke:#000000; stroke-width:  0.9180; stroke-linecap:butt; stroke-linejoin:miter; stroke-dasharray:none">
   <path d="M91.8000,91.8000L581.4000,91.8000"/>
   <path d="M91.8000,581.4000L581.4000,581.4000"/>
  </g>
  <g style="fill:none; stroke:#000000; stroke-width:  1.8360; stroke-linecap:butt; stroke-linejoin:miter; stroke-dasharray:none">
   <path d="M153.0000,91.8000L153.0000,97.9200"/>
   <path d="M153.0000,581.4000L153.0000,575.2800"/>
   <path d="M275.4000,91.8000L275.4000,97.9200"/>
   <path d="M275.4000,581.4000L275.4000,575.2800"/>
   <path d="M397.8000,91.8000L397.8000,97.9200"/>
   <path d="M397.8000,581.4000L397.8000,575.2800"/>
   <path d="M520.2000,91.8000L520.2000,97.9200"/>
   <path d="M520.2000,581.4000L520.2000,575.2800"/>
   <path d="M91.8000,91.8000L91.8000,104.0400"/>
   <path d="M91.8000,581.4000L91.8000,569.1600"/>
   <path d="M214.2000,91.8000L214.2000,104.0400"/>
   <path d="M214.2000,581.4000L214.2000,569.1600"/>
   <path d="M336.6000,91.8000L336.6000,104.0400"/>
   <path d="M336.6000,581.4000L336.6000,569.1600"/>
   <path d="M459.0000,91.8000L459.0000,104.0400"/>
   <path d="M459.0000,581.4000L459.0000,569.1600"/>
  </g>
  <g style="fill:#000000; fill-rule:nonzero">
   <text   style="font-family:'Helvetica','Nimbus Sans L'; font-style:normal; font-weight:bold; font-size:612.0000" transform="matrix(0.0364,0.0000,-0.0000,-0.0364,76.8000,69.6800)">0.2</text>
   <text   style="font-family:'Helvetica','Nimbus Sans L'; font-style:normal; font-weight:bold; font-size:612.0000" transform="matrix(0.0364,0.0000,-0.0000,-0.0364,199.2000,69.6800)">0.3</text>
   <text   style="font-family:'Helvetica','Nimbus Sans L'; font-style:normal; font-weight:bold; font-size:612.0000" transform="matrix(0.0364,0.0000,-0.0000,-0.0364,321.1000,69.6800)">0.4</text>
   <text   style="font-family:'Helvetica','Nimbus Sans L'; font-style:normal; font-weight:bold; font-size:612.0000" transform="matrix(0.0364,0.0000,-0.0000,-0.0364,444.0000,69.6800)">0.5</text>
   <text   style="font-family:'Helvetica','Nimbus Sans L'; font-style:normal; font-weight:bold; font-size:612.0000" transform="matrix(0.0367,0.0000,-0.0000,-0.0367,305.1000,47.5600)">r (nm)</text>
  </g>
  <g style="fill:none; stroke:#000000; stroke-width:  0.9180; stroke-linecap:butt; stroke-linejoin:miter; stroke-dasharray:none">
   <path d="M91.8000,91.8000L91.8000,581.4000"/>
   <path d="M581.4000,91.8000L581.4000,581.4000"/>
  </g>
  <g style="fill:none; stroke:#000000; stroke-width:  1.8360; stroke-linecap:butt; stroke-linejoin:miter; stroke-dasharray:none">
   <path d="M91.8000,153.0000L97.9200,153.0000"/>
   <path d="M581.4000,153.0000L575.2800,153.0000"/>
   <path d="M91.8000,275.4000L97.9200,275.4000"/>
   <path d="M581.4000,275.4000L575.2800,275.4000"/>
   <path d="M91.8000,397.8000L97.9200,397.8000"/>
   <path d="M581.4000,397.8000L575.2800,397.8000"/>
   <path d="M91.8000,520.2000L97.9200,520.2000"/>
   <path d="M581.4000,520.2000L575.2800,520.2000"/>
   <path d="M91.8000,91.8000L104.0400,91.8000"/>
   <path d="M581.4000,91.8000L569.1600,91.8000"/>
   <path d="M91.8000,214.2000L104.0400,214.2000"/>
   <path d="M581.4000,214.2000L569.1600,214.2000"/>
   <path d="M91.8000,336.6000L104.0400,336.6000"/>
   <path d="M581.4000,336.6000L569.1600,336.6000"/>
   <path d="M91.8000,459.0000L104.0400,459.0000"/>
   <path d="M581.4000,459.0000L569.1600,459.0000"/>
   <path d="M91.8000,581.4000L104.0400,581.4000"/>
   <path d="M581.4000,581.4000L569.1600,581.4000"/>
  </g>
  <g style="fill:#000000; fill-rule:nonzero">
   <text   style="font-family:'Helvetica','Nimbus Sans L'; font-style:normal; font-weight:bold; font-size:612.0000" transform="matrix(0.0364,0.0000,-0.0000,-0.0364,74.6800,83.8000)">0</text>
   <text   style="font-family:'Helvetica','Nimbus Sans L'; font-style:normal; font-weight:bold; font-size:612.0000" transform="matrix(0.0364,0.0000,-0.0000,-0.0364,49.6800,206.2000)">500</text>
   <text   style="font-family:'Helvetica','Nimbus Sans L'; font-style:normal; font-weight:bold; font-size:612.0000" transform="matrix(0.0364,0.0000,-0.0000,-0.0364,37.6800,328.6000)">1000</text>
   <text   style="font-family:'Helvetica','Nimbus Sans L'; font-style:normal; font-weight:bold; font-size:612.0000" transform="matrix(0.0364,0.0000,-0.0000,-0.0364,37.6800,451.0000)">1500</text>
   <text   style="font-family:'Helvetica','Nimbus Sans L'; font-style:normal; font-weight:bold; font-size:612.0000" transform="matrix(0.0364,0.0000,-0.0000,-0.0364,37.6800,573.4000)">2000</text>
   <text   style="font-family:'Helvetica','Nimbus Sans L'; font-style:normal; font-weight:bold; font-size:612.0000" transform="matrix(0.0000,0.0367,0.0367,-0.0000,26.5600,318.1000)">g(r)</text>
  </g>
  <g style="fill:none; stroke:#000000; stroke-width:  1.8360; stroke-linecap:butt; stroke-linejoin:miter; stroke-dasharray:none">
   <path d="M91.8000,91.8000L91.8000,581.4000L581.4000,581.4000L581.4000,91.8000z"/>
  </g>
  <g style="fill:#FFFFFF; fill-rule:nonzero">
   <path  d="M428.4000,550.8000L428.4000,434.0800L575.8570,434.0800L575.8570,550.8000z"/>
  </g>
  <g style="fill:#000000; fill-rule:nonzero">
   <text   style="font-family:'Helvetica','Nimbus Sans L'; font-style:normal; font-weight:bold; font-size:612.0000" transform="matrix(0.0364,0.0000,-0.0000,-0.0364,478.7370,528.6800)">RSGSY</text>
  </g>
  <g style="fill:none; stroke:#0000FF; stroke-width:  2.7540; stroke-linecap:butt; stroke-linejoin:miter; stroke-dasharray:none">
   <path d="M435.8970,536.6800L466.4970,536.6800"/>
  </g>
  <g style="fill:#000000; fill-rule:nonzero">
   <text   style="font-family:'Helvetica','Nimbus Sans L'; font-style:normal; font-weight:bold; font-size:612.0000" transform="matrix(0.0364,0.0000,-0.0000,-0.0364,478.7370,506.5600)">RGSGY</text>
  </g>
  <g style="fill:none; stroke:#00FFFF; stroke-width:  2.7540; stroke-linecap:butt; stroke-linejoin:miter; stroke-dasharray:none">
   <path d="M435.8970,514.5600L466.4970,514.5600"/>
  </g>
  <g style="fill:#000000; fill-rule:nonzero">
   <text   style="font-family:'Helvetica','Nimbus Sans L'; font-style:normal; font-weight:bold; font-size:612.0000" transform="matrix(0.0364,0.0000,-0.0000,-0.0364,478.7370,484.4400)">RGLGY</text>
  </g>
  <g style="fill:none; stroke:#008B00; stroke-width:  2.7540; stroke-linecap:butt; stroke-linejoin:miter; stroke-dasharray:none">
   <path d="M435.8970,492.4400L466.4970,492.4400"/>
  </g>
  <g style="fill:#000000; fill-rule:nonzero">
   <text   style="font-family:'Helvetica','Nimbus Sans L'; font-style:normal; font-weight:bold; font-size:612.0000" transform="matrix(0.0364,0.0000,-0.0000,-0.0364,478.7370,462.3200)">H+GLGY</text>
  </g>
  <g style="fill:none; stroke:#FFA500; stroke-width:  2.7540; stroke-linecap:butt; stroke-linejoin:miter; stroke-dasharray: 14 8">
   <path d="M435.8970,470.3200L466.4970,470.3200"/>
  </g>
  <g style="fill:#000000; fill-rule:nonzero">
   <text   style="font-family:'Helvetica','Nimbus Sans L'; font-style:normal; font-weight:bold; font-size:612.0000" transform="matrix(0.0364,0.0000,-0.0000,-0.0364,478.7370,440.2000)">HGLGY</text>
  </g>
  <g style="fill:none; stroke:#FFA500; stroke-width:  2.7540; stroke-linecap:butt; stroke-linejoin:miter; stroke-dasharray:none">
   <path d="M435.8970,448.2000L466.4970,448.2000"/>
  </g>
 </g>
</svg>
